<?xml version="1.0" encoding="utf-8"?>
<!-- Generator: Adobe Illustrator 27.0.0, SVG Export Plug-In . SVG Version: 6.00 Build 0)  -->
<svg version="1.1" id="Layer_1" xmlns="http://www.w3.org/2000/svg" xmlns:xlink="http://www.w3.org/1999/xlink" x="0px" y="0px"
	 viewBox="0 0 2000 2000" style="enable-background:new 0 0 2000 2000;" xml:space="preserve">
<style type="text/css">
	.st0{fill:#C89C69;}
</style>
<g>
	<path class="st0" d="M989.99,20.22c-324.54,0-588.56,264.03-588.56,588.56c0,50.18,6.35,98.9,18.22,145.44h143.57
		c-12.26-35.88-20.01-73.8-22.84-113.06h67.41V595.3h-68.43c7.02-237.34,198.22-429.14,435.34-437.1v70.2h45.86v-69.43
		c230,15.49,413.19,204.11,420.06,436.34h-53.16v45.86h52.14c-2.84,39.26-10.58,77.18-22.84,113.06h143.57
		c11.87-46.53,18.22-95.26,18.22-145.44C1578.55,284.24,1314.53,20.22,989.99,20.22z"/>
	<path class="st0" d="M1165.78,420.67l-163.34,146.19c-3.97-1.18-8.1-2.01-12.45-2.01c-12.5,0-23.71,5.28-31.72,13.66l-245.6-60.78
		l-11.02,44.52l247.07,61.15c6.04,17.05,22.14,29.33,41.26,29.33c24.26,0,43.94-19.66,43.94-43.94c0-2.69-0.33-5.29-0.79-7.84
		l163.24-146.1L1165.78,420.67z"/>
</g>
<g>
	<path class="st0" d="M282.81,1926.54c-15.89-18.06-24.55-46-25.96-83.87l60.43-10.56c0.56,22.59,3.62,39.25,9.15,49.96
		c5.54,10.71,13.84,16.07,24.9,16.07c8.23,0,14.19-2.71,17.87-8.15c3.69-5.44,5.54-12.38,5.54-20.91c0-14.07-3.05-26.05-9.16-35.87
		c-6.1-9.82-15.67-20.61-28.72-32.35l-35.75-32.12c-14.2-12.34-25.05-25.54-32.56-39.63c-7.52-14.07-11.28-30.95-11.28-50.62
		c0-29.05,8.3-51.42,24.9-67.13c16.6-15.69,39.5-23.55,68.73-23.55c31.2,0,52.91,9.32,65.11,27.95
		c12.2,18.63,19.16,42.33,20.85,71.09l-60.85,9.25c-0.58-18.78-2.63-32.64-6.18-41.6s-10.57-13.43-21.07-13.43
		c-7.66,0-13.62,3.02-17.87,9.03c-4.26,6.02-6.38,13.15-6.38,21.34c0,11.76,2.48,21.66,7.45,29.73
		c4.96,8.07,12.83,16.94,23.62,26.62l34.9,31.68c16.46,14.97,29.37,30.75,38.73,47.33c9.36,16.59,14.04,36.02,14.04,58.32
		c0,17.03-3.69,32.22-11.06,45.56c-7.38,13.36-17.81,23.85-31.28,31.48c-13.48,7.62-29.02,11.44-46.6,11.44
		C322.52,1953.6,298.69,1944.57,282.81,1926.54z"/>
	<path class="st0" d="M480.27,1592.21H630.5v50.19h-80.43v94.62h62.14v50.63h-62.14v111.8h81.28v49.3H480.27V1592.21z"/>
	<path class="st0" d="M667.1,1592.21h89.37c37.16,0,65.11,7.04,83.84,21.13c18.73,14.09,28.09,38.44,28.09,73.07
		c0,23.2-3.12,41.9-9.36,56.13c-6.25,14.23-17.31,25.01-33.2,32.35l47.67,173.87h-71.92l-39.15-161.55h-25.54v161.55H667.1V1592.21z
		 M757.74,1744.07c16.45,0,28.02-4.19,34.68-12.54c6.66-8.38,10.01-21.51,10.01-39.41c0-17.61-2.99-30.51-8.94-38.73
		c-5.96-8.22-16.74-12.34-32.34-12.34h-24.26v103.01H757.74z"/>
	<path class="st0" d="M896.48,1592.21h60.86l40.86,246.5l38.3-246.5h63.41l-65.53,356.55h-72.35L896.48,1592.21z"/>
	<path class="st0" d="M1135.65,1592.21h69.8v356.55h-69.8V1592.21z"/>
	<path class="st0" d="M1275.67,1923c-15.32-20.38-22.99-49.81-22.99-88.25v-127.64c0-39.33,7.59-69.03,22.77-89.14
		c15.17-20.1,41.2-30.16,78.09-30.16c35.18,0,60.08,8.88,74.69,26.63c14.61,17.76,21.92,43.23,21.92,76.37v29.95h-68.09v-33.02
		c0-10.57-0.5-19.07-1.49-25.53c-1-6.46-3.55-11.82-7.66-16.07c-4.11-4.25-10.43-6.38-18.93-6.38c-12.77,0-21.01,4.27-24.68,12.76
		c-3.69,8.51-5.54,20.99-5.54,37.41v161.99c0,16.74,2.13,29.2,6.38,37.42c4.26,8.21,12.2,12.32,23.84,12.32
		c11.91,0,19.57-4.19,22.98-12.55c3.4-8.36,5.11-20.76,5.11-37.2v-34.77h68.09v29.49c0,34.06-7.24,60.38-21.71,79.02
		c-14.47,18.64-39.44,27.95-74.9,27.95C1316.95,1953.6,1290.99,1943.41,1275.67,1923z"/>
	<path class="st0" d="M1493.14,1592.21h150.22v50.19h-80.43v94.62h62.14v50.63h-62.14v111.8h81.28v49.3h-151.08V1592.21z"/>
</g>
<g>
	<g>
		<path class="st0" d="M293.96,1415.48l160.93-256.02l12.25-19.43c19.61-31.55,34.17-57.88,43.71-79.01
			c9.52-21.13,14.3-44.07,14.3-68.86c0-21.96-4.08-38.72-12.25-50.28c-8.17-11.53-20.15-17.32-35.95-17.32
			c-22.34,0-37.86,9.02-46.56,27.04c-8.71,18.03-13.07,42.82-13.07,74.35v31.27H293.96v-33.8c0-64.22,14.56-115.05,43.71-152.5
			c29.12-37.47,74.74-56.21,136.83-56.21c57.18,0,100.74,15.63,130.7,46.9c29.95,31.27,44.93,75.63,44.93,133.08
			c0,34.94-6.27,66.33-18.79,94.22c-12.54,27.87-32.15,62.39-58.83,103.5l-8.98,14.36L436.1,1404.48h196.06v103.09H293.96V1415.48z"
			/>
		<path class="st0" d="M863.36,1347.03H662.39v-101.38l172.37-422.49H981v425.01h64.54v98.85H981v160.54H863.36V1347.03z
			 M863.36,1248.17V957.52l-101.3,290.65H863.36z"/>
		<path class="st0" d="M1266.1,823.16h72.71l-198.52,684.41h-71.89L1266.1,823.16z"/>
		<path class="st0" d="M1543.85,922.86h-179.72v-99.71h303.08v85.34l-139.69,599.07h-122.54L1543.85,922.86z"/>
	</g>
</g>
</svg>
