<?xml version="1.0" encoding="utf-8"?>
<!-- Generator: Adobe Illustrator 27.0.0, SVG Export Plug-In . SVG Version: 6.00 Build 0)  -->
<svg version="1.1" id="Layer_1" xmlns="http://www.w3.org/2000/svg" xmlns:xlink="http://www.w3.org/1999/xlink" x="0px" y="0px"
	 viewBox="0 0 2000 2000" style="enable-background:new 0 0 2000 2000;" xml:space="preserve">
<style type="text/css">
	.st0{fill:#C79B68;}
</style>
<g>
	<path class="st0" d="M1845.68,1011.84c-5.55,463.96-386.53,834.13-853.05,828.03c-462.2-6.04-834.05-388.42-826.81-853.49
		c7.18-460.71,390.04-839.97,865.89-825.96C1484.71,173.76,1852.25,548.74,1845.68,1011.84z M1463.55,1510.68
		c2.42-0.64,3.2-0.64,3.7-1.01c1.39-1.06,2.69-2.26,3.98-3.45c63.1-58.36,114.44-125.64,152.21-202.9
		c68.19-139.5,88.08-286.01,57.56-438.07c-38.37-191.13-140.52-341.17-304.26-446.14c-168.4-107.95-352.12-135.87-545.82-86.13
		C670.72,374.13,541.84,463.96,446,598.49c-113.59,159.44-151.43,337.16-116.34,529.4c25.18,137.95,89.63,256.29,187.94,356.16
		c5.18,5.26,6.99,10.25,6.51,17.58c-2.13,32.97-3.76,65.97-5.26,98.98c-0.81,17.96,3.11,34.99,12.51,50.44
		c12.12,19.92,30,31.02,53.03,33.95c-32.1-16.33-42.59-43.42-40.83-77.75c5.18-101.1,9.84-202.22,14.69-303.33
		c0.72-15.03,6.21-27.82,16.71-38.74c2.58-2.68,4.52-7.05,4.74-10.76c2.17-37.55,4.4-75.1,5.63-112.69
		c1.07-32.72-10.17-59.88-39.13-77.85c-18.09-11.23-31.49-26.81-41.21-45.57c-11.47-22.12-17.56-45.89-20.07-70.54
		c-5.65-55.52,2.54-109.4,21.11-161.68c10.52-29.6,24.39-57.6,46.91-80.37c31.2-31.55,66.6-31.88,97.94-0.35
		c7.38,7.43,14.47,15.59,19.81,24.54c44.65,74.8,59.64,155.62,44.9,241.21c-6.96,40.45-26.43,73.94-62.87,96.82
		c-24.9,15.64-34.29,41.4-33.53,70.05c1.02,38.64,3.31,77.25,5.41,115.86c0.21,3.79,1.9,8.43,4.54,11.01
		c12.15,11.84,16.74,26.46,17.52,42.78c4.4,91.99,8.92,183.97,12.95,275.97c0.35,8.08,2.8,12.36,9.84,16.24
		c116.78,64.4,241.62,93.5,374.83,86.29c82.2-4.45,161.14-22.81,236.46-56.19c16.88-7.48,33.52-15.48,51.73-23.92
		c-0.4,20.28-0.99,39.5,11.19,55.67c12.34,16.38,29.27,23.45,49.47,23.73c-23.28-10.13-36.92-28.07-40.88-52.42
		c-2.06-12.64-1.11-25.89-0.52-38.82c4.32-95.51,8.9-191.01,13.37-286.51c0.77-16.36,5.62-30.87,17.45-42.84
		c2.63-2.67,4.47-7.23,4.67-11.02c2-38.97,4.27-77.94,5.08-116.94c0.66-31.78-12.29-56.98-40.2-73.95
		c-16.55-10.06-28.8-24.6-38.07-41.5c-18.28-33.3-24-69.55-23.28-106.9c1.32-68.53,3.27-137.06,5.1-205.58
		c0.48-17.84,6.53-26.85,17.38-26.96c11.68-0.11,17.67,9.05,17.68,27.25c0.02,70.67,0.01,141.35,0.05,212.02
		c0,3.51-1.01,7.91,0.69,10.33c3.54,5.06,7.91,11.44,13.17,12.95c7.22,2.06,12.03-4.39,13.95-11.39c1-3.65,1.2-7.61,1.2-11.43
		c0.07-68.21,0.04-136.43,0.06-204.64c0-6.32-0.28-12.71,0.51-18.95c1.17-9.29,8.65-16.08,16.73-16.19
		c8.06-0.11,15.45,6.59,17.12,15.73c0.5,2.75,0.68,5.59,0.68,8.39c-0.03,71.73-0.13,143.45-0.12,215.18c0,4.19-0.56,9.26,1.49,12.37
		c2.99,4.54,7.98,10.42,12.37,10.64c4.35,0.22,10.26-5.05,13.16-9.44c2.38-3.61,1.75-9.48,1.76-14.34
		c0.09-70.68,0.02-141.35,0.15-212.03c0.01-5.17-0.25-11.49,2.46-15.22c3.52-4.85,9.7-10.17,15.06-10.54
		c4.78-0.33,11.4,4.8,14.64,9.36c2.9,4.07,3.08,10.64,3.1,16.11c0.18,70.32,0.11,140.65,0.14,210.97c0,4.55-1.17,10.12,0.98,13.42
		c3.26,5.02,8.45,10.91,13.72,11.98c7.27,1.47,11.78-5.31,13.15-12.35c0.93-4.76,0.54-9.8,0.55-14.72
		c0.03-69.62-0.03-139.24,0.15-208.86c0.01-5.49,0.07-12.03,2.9-16.18c3.15-4.63,9.46-9.7,14.45-9.75
		c4.96-0.05,10.92,5.09,14.67,9.47c2.56,2.99,2.74,8.56,2.88,13.01c1.93,62.19,4.45,124.38,5.1,186.59
		c0.28,27.26-1.12,54.94-5.76,81.74c-6.41,37-23.21,69.31-56.44,90.21c-28.06,17.65-40.04,43.81-39.25,75.71
		c0.96,38.64,3.46,77.25,5.71,115.85c0.21,3.66,2.59,7.85,5.22,10.61c10.19,10.69,15.44,23.13,16.12,37.85
		c2.05,44.59,4.31,89.17,6.5,133.75C1461.08,1461.57,1462.3,1485.72,1463.55,1510.68z"/>
	<path class="st0" d="M887.54,1360.08c-93.92-62.77-130.61-154.75-140.71-263.12c5.58,0,9.33,0,13.07,0
		c148.31,0.02,296.63-0.87,444.91,0.91c25.43,0.31,53.13,3.7,74.8,22.64c26.31,23,36.41,51.9,28.91,85.22
		c-7.66,34.04-30.5,55.3-64.46,63.96c-28.89,7.37-57.94,14.12-86.73,21.86c-5.58,1.5-11.46,5.32-15.17,9.76
		c-18.82,22.52-40.36,41.81-67.3,58.4c10.55,2.89,19.35,4.48,27.48,7.74c11.63,4.66,23.59,9.32,33.93,16.2
		c13.17,8.78,12.7,20.41,0.26,30.09c-16.57,12.89-36.43,18.21-56.41,21.91c-72.71,13.47-145.33,13.99-217.19-5.43
		c-12.29-3.32-24.3-9.26-35.13-16.07c-13.59-8.54-14.2-22.33-0.38-30.46c14.87-8.75,31.88-13.87,48.04-20.38
		C878.92,1361.92,882.71,1361.34,887.54,1360.08z M1172.21,1263.08c24.96-6.69,51.53-11.92,76.69-21.03
		c28.8-10.44,43.54-42.91,35.67-71.51c-4.93-17.9-18.96-29.27-37.33-30.24c-18.37-0.97-34.84,9.63-41.04,26.89
		C1194.89,1198.72,1183.8,1230.34,1172.21,1263.08z"/>
	<path class="st0" d="M956.33,1065.46c-10.78-27.51-11.83-54.88-8.65-82.53c5.56-48.27,28.62-88.85,56.2-127.62
		c14.26-20.04,26.49-41.53,31.64-66.03c7.4-35.22-6.37-56.14-41.54-63.79c-7.1-1.55-14.32-2.53-21.45-4.5
		c23.21-5.76,46.62-8.53,70.11-2.88c22.03,5.29,36.04,21.55,34.05,44.37c-1.71,19.56-6.7,39.44-13.78,57.81
		c-13.2,34.24-32.93,65.33-56.41,93.38c-34.7,41.45-48.09,89.53-49.21,142.22c-0.04,2.11,0,4.22-0.08,6.32
		C957.18,1062.84,956.88,1063.47,956.33,1065.46z"/>
	<path class="st0" d="M1082.15,829.62c25.54,10.63,36.27,36.75,25.98,60.62c-10.21,23.69-28.29,40.74-47.25,57.09
		c-21.78,18.78-43.84,37.25-65.42,56.25c-5.88,5.18-10.49,11.82-15.68,17.79c-1.02-0.72-2.04-1.44-3.05-2.16
		c9.48-13.99,17.95-28.81,28.67-41.77c15.87-19.2,33.83-36.66,49.94-55.68c8.79-10.38,16.41-21.98,23.16-33.82
		C1088.96,869.6,1093.26,850.2,1082.15,829.62z"/>
</g>
</svg>
