<?xml version="1.0" encoding="utf-8"?>
<!-- Generator: Adobe Illustrator 27.0.0, SVG Export Plug-In . SVG Version: 6.00 Build 0)  -->
<svg version="1.1" id="Layer_1" xmlns="http://www.w3.org/2000/svg" xmlns:xlink="http://www.w3.org/1999/xlink" x="0px" y="0px"
	 viewBox="0 0 747 664" style="enable-background:new 0 0 747 664;" xml:space="preserve">
<style type="text/css">
	.st0{display:none;fill:#C69A68;}
	.st1{display:none;fill:#C69B69;}
	.st2{display:none;}
	.st3{display:inline;}
	.st4{fill:#B8986A;}
</style>
<image style="display:none;overflow:visible;enable-background:new    ;" width="472" height="298" xlink:href="9E5E36D0.png"  transform="matrix(1 0 0 1 131 178)">
</image>
<path class="st0" d="M575.4,410.6c-3.4-18.4-4.5-18.8-23.8-18.9c-13.3-0.1-11.6,10.3-15.8,18.9H575.4z M588.5,440.8
	c-5.5-25.9-9.8-28.2-47.3-26.2c-8.9,0.5-14.6,9.2-16.4,26.2H588.5z M253.2,432.8c7.8,6.5,15.2,7.3,24.3,4c5.8-2.1,13-0.4,19.5,0
	c4.3,0.3,9.4,3,12.6,1.5c10.5-5.1,19.8-3.9,30.4-0.2c4.8,1.7,12.2-2.1,17.5-5.1c1.1-0.6-0.8-8.8-2.8-12.7
	c-9.6-18.6-32.8-32.1-51-30.1C277.9,392.9,259.2,408.6,253.2,432.8 M399.7,395.2c2.5,5.7,5.2,10.4,6.7,15.5c2.1,7.5,3,15.4,5.1,22.9
	c0.6,2.4,3.4,4.1,5.3,6.2c0.7-2.3,2.1-4.5,2.1-6.8c0-3.7-0.6-7.5-1.3-11.1c-12.2-57-69-101.2-134.6-87.4
	c-47.5,10-82.5,47.6-89.6,97.5c-0.3,2.4,1.7,5.2,2.7,7.8c1.5-2.1,3.8-4,4.5-6.3c3.5-11.8,6.6-23.7,10.2-36.7
	c11.1,6.5,19.8,11.6,28,16.4c-2,7.9-4,14.4-5.3,21c-0.3,1.7,1.5,3.8,2.4,5.7c1.6-1.4,3.7-2.5,4.8-4.3c1-1.6,0.7-4,1.2-6
	c6.7-29.3,39.2-53.7,67.6-50.7c32.9,3.5,53.9,21.9,62.5,54.5c0.7,2.5,2.7,4.7,4.1,7.1c1.4-0.5,2.8-1,4.1-1.6
	c-2.2-9.2-4.5-18.4-6.9-28.4C381.4,405.8,390.1,400.7,399.7,395.2 M482.8,340.4c10.2-12.2,18.5-6.7,27.7-4.1
	c16.1,4.6,31.3,1.7,43.5-10.6c12.5-12.5,15.2-27.6,11.1-44.4c-1-4.2-1.3-9.4,0.2-13.3c6.7-17.9,0.9-34-15.6-43.7
	c-4.1-2.4-8.3-7.1-9.6-11.6c-6.2-20.9-25.2-30.8-45.5-23.3c-3.8,1.4-9.4,1.4-12.7-0.5c-22.2-12.9-43.6-6.1-54.1,17.1
	c-1.7,3.8-6.5,7.7-10.5,8.7c-17.6,4.3-28.9,20.1-24.3,37.8c2,7.8,0.5,12.4-4.9,17.9c-13.6,13.8-14.7,34.7-3.7,50.8
	c9.8,14.3,30.3,21.7,46.3,14c10.3-4.9,17.7-5.5,26.2,2.2c2.6,2.4,7.4,2.3,11.3,3.4c3.4-14.6,3.1-15.4-7.2-22.3
	c-13.9-9.4-28-18.5-41.6-28.2c-2.3-1.6-2.6-6-3.8-9c3.6-0.4,7.8-2.1,10.6-0.8c5.6,2.5,10.3,6.7,15.4,10.1
	c8.7,5.7,17.4,11.4,27.7,18.1c0.2-5.7,0.5-9,0.5-12.3c0-19.5-0.1-39,0.1-58.5c0-4.4-1.8-10.7,5.5-11c7.6-0.4,7.3,5.7,7.3,10.8
	c0.1,11.4,0,22.8,0,36.7c12.5-8,22.5-15,33.2-20.9c2.7-1.5,7.2,0.1,10.9,0.3c-1.4,3.3-2,7.8-4.4,9.6c-10.5,7.6-21.7,14.3-32.4,21.7
	c-2.8,2-6.7,5.2-6.8,8C482.4,307.4,482.8,322,482.8,340.4 M526.9,415.6c-5.8-0.6-11-1.2-18.7-2.1c9.5-1.9,17.1-1.8,22.6-5.2
	c3.7-2.2,4.6-9.3,6.6-14l-2.1-1.9c-3.2-1.6-6.4-3.1-9.6-4.6c3.3-1,6.7-2.8,10-2.9c14.1-0.3,28.1-0.3,42.2,0c3.2,0.1,6.4,2.1,9.6,3.3
	c-3,1.3-6,2.6-9.1,4l-2.1,1c0.1,17.4,11.4,20.4,25.7,20.8c-5.2,0.5-10.3,1-17.5,1.7c5.9,10.2,3.1,24.1,18.5,27l2.7,3.5l-3.1,3.1
	c-2.6,0.5-5.5,0.3-8.2,0.3c-74,0-148.1,0-222.1,0c-6.2,0-12.9,1.2-12.4-10c-11.1,7.3-20.9,6.6-31.1,1.2c-2.9-1.5-8.1-0.3-11.4,1.3
	c-8.1,4.1-15.5,4-23.5-0.2c-3-1.6-7.8-2.7-10.5-1.5c-10.1,4.6-19.8,7.7-30.3-0.4c0.2,1.5,0.5,3,0.7,4.6c-5.3,1.6-10.5,4.5-15.8,4.6
	c-26.7,0.5-53.5,0.3-80.2,0.1c-2.8,0-5.6-2.1-8.4-3.2c2.7-1.3,5.3-3.4,8.2-3.8c7.4-1,17.1,1.4,21.6-2.5c4.4-3.8,3.5-13.7,4.9-20.9
	c9.4-47.9,51.6-87.8,101-95.6c67.8-10.7,127.4,29.2,143.2,95.9l0.4,1c1.9,7,2,18.7,6,20.1c8.8,3.2,19.5,1.8,29.3,1.3
	c2-0.1,5.6-4.2,5.6-6.5c0.4-25.7,0.3-51.4,0.2-77c0-1.7-0.2-3.5-1-4.9c-1.5-2.6-29.5-9.7-32.7-8.6c-30.5,11-59.9-4.1-67.8-35.2
	c-3.9-15.6-0.3-30,9.3-42.5c4-5.2,6-9.3,4.4-16.4c-3.7-17.3,8.7-37.3,26.8-43.6c6.4-2.2,10-5.7,13.1-11.4
	c11.9-21.4,36.8-28.7,59.3-18.7c4.4,2,10.4,2.3,15.2,1.2c23.2-5.2,44.1,6.1,52.5,28.5c1.6,4.3,5.4,8.5,9.3,11.2
	c16.9,11.5,23.7,30.7,17.8,50.4c-1.3,4.2-1.4,9.4-0.4,13.7c5,21-1,38.9-16.5,52.9c-15.5,14.1-34.1,18-54.4,10.7
	c-12.4-4.5-22,2.2-22,15.1c0,24,0.2,47.9-0.2,71.9c-0.1,7.1,2.2,10.2,9.3,9.8c1.7-0.1,3.4,0,5.1,0
	C520.3,442.1,521.8,440.9,526.9,415.6"/>
<path class="st0" d="M231.4,198.5c11.6-3.1,20.3,2.1,28.8,8.7c8.7-6.2,17.5-12,29.2-8.9c-10.5,6.4-26.1,5.8-28.6,23.9
	C256.8,205.7,243.6,203.2,231.4,198.5"/>
<path class="st0" d="M260.1,260c-11.6,2.5-19.4,8.5-22,21.5c-4.2-12.1-10.5-20.7-25.4-20c1.1-1.8,2.3-3.6,3.4-5.5
	c7.3,2.7,14.7,5.4,23.4,8.6C244.4,261.2,250.6,254.5,260.1,260"/>
<path class="st0" d="M328.3,222.8c-7.3,6.5-13.2,11.7-19,16.8c-4.8-4.3-11.1-9.9-18.2-16.4c6.7-4.5,11.8,2.3,18.3,5.3
	C315,226.3,320.4,218.8,328.3,222.8"/>
<path class="st0" d="M298,476c-10.9-7-21.2-4.2-32.1-1.2c-4.7,1.3-11-3.3-14.1-4.4c9-0.9,19.5-2.8,30-2.8c5.6,0,11.1,3.4,16.7,5.3
	L298,476"/>
<polygon class="st0" points="319.7,463 351,463 350.8,464.1 319.3,464.1 "/>
<path class="st0" d="M353.2,350.9c-14.9,29-14.9,29-45.3,18.8v-29.2C324.1,339.1,338.5,343.6,353.2,350.9"/>
<path class="st0" d="M396.8,386.9c-11.1,6.5-19.8,11.5-28.4,16.5c-7.5-7.2-14.6-13.9-22.8-21.7c4.8-8.3,10-17.1,16.5-28.3
	C373.9,364.9,384.7,375.2,396.8,386.9"/>
<path class="st0" d="M299.7,337.8c0,11.7,0.5,20.2-0.3,28.6c-0.2,2.4-3.5,5.5-6.1,6.5c-6.9,2.6-14.2,4.1-23,6.6
	c-4.5-7.9-9.5-16.6-16-27.9C269.7,346.9,283.8,342.7,299.7,337.8"/>
<path class="st0" d="M242.7,405.7c-8.8-5.1-17.5-10.2-28.4-16.6c11.2-11.5,21.2-21.7,32.4-33.2c6.3,10.7,11.2,19.1,16.4,27.9
	C256.6,390.9,250.1,397.8,242.7,405.7"/>
<path class="st1" d="M304.7,475h132.9v-7.4c0-1.8-0.2-4.3-1.3-5.3c-2.2-2.2-10-2.1-16.9-2.1l-92.6,0l-4,0
	c-6.8-0.1-14.7-0.1-16.9,2.1c-1.1,1.1-1.3,3.5-1.3,5.3V475z M445,489.7H297.4c-4.1,0-7.4-3.3-7.4-7.4v-14.8c0-6.8,1.9-12.1,5.7-15.8
	c6.6-6.5,16.8-6.5,27.4-6.3l92.4,0l3.9,0c10.5-0.1,20.8-0.2,27.4,6.3c3.8,3.7,5.6,9.1,5.6,15.8v14.8
	C452.3,486.4,449,489.7,445,489.7"/>
<rect x="408.1" y="419.1" class="st1" width="14.8" height="33.7"/>
<rect x="319.5" y="419.3" class="st1" width="14.8" height="33.5"/>
<path class="st1" d="M246.1,342.1c5.4,51,67.1,74.3,124.6,74.3c57.9,0,120.1-23.3,125.6-74.3H246.1z M370.7,431.1
	c-36.1,0-69.7-8.3-94.8-23.2c-29.4-17.6-44.9-42.9-44.9-73.2c0-4.1,3.3-7.4,7.4-7.4H504c4.1,0,7.4,3.3,7.4,7.4
	C511.4,401,438.4,431.1,370.7,431.1"/>
<path class="st1" d="M284.2,268.3c8.2,19.5,48.6,30,86.9,30c38.3,0,78.7-10.4,86.9-30H284.2z M371.2,313c-26,0-50.4-4.2-68.7-11.7
	C274,289.4,268,272.8,268,260.9c0-4.1,3.3-7.4,7.4-7.4h191.6c4.1,0,7.4,3.3,7.4,7.4C474.3,296.9,422.5,313,371.2,313"/>
<rect x="393.3" y="303.7" class="st1" width="14.8" height="31"/>
<rect x="334.3" y="303.7" class="st1" width="14.8" height="31"/>
<path class="st1" d="M371.2,260.9c-4.1,0-7.4-3.3-7.4-7.4v-81.2c0-20.4,16.6-36.9,36.9-36.9c20.3,0,36.9,16.5,36.9,36.9v7.4
	c0,4.1-3.3,7.4-7.4,7.4c-4.1,0-7.4-3.3-7.4-7.4v-7.4c0-12.2-9.9-22.2-22.1-22.2c-12.2,0-22.2,9.9-22.2,22.2v81.2
	C378.5,257.6,375.2,260.9,371.2,260.9"/>
<path class="st1" d="M371.2,268.3c-4.1,0-7.4-3.3-7.4-7.4v-88.6c0-12.2-9.9-22.2-22.1-22.2c-12.2,0-22.2,9.9-22.2,22.2v7.4
	c0,4.1-3.3,7.4-7.4,7.4c-4.1,0-7.4-3.3-7.4-7.4v-7.4c0-20.4,16.6-36.9,36.9-36.9s36.9,16.6,36.9,36.9v88.6
	C378.5,265,375.2,268.3,371.2,268.3"/>
<path class="st1" d="M430.2,231.4c-4.1,0-7.4-3.3-7.4-7.4v-14.8c0-4.1,3.3-7.4,7.4-7.4c4.1,0,7.4,3.3,7.4,7.4V224
	C437.6,228.1,434.3,231.4,430.2,231.4"/>
<path class="st1" d="M312.1,231.4c-4.1,0-7.4-3.3-7.4-7.4v-14.8c0-4.1,3.3-7.4,7.4-7.4c4.1,0,7.4,3.3,7.4,7.4V224
	C319.5,228.1,316.2,231.4,312.1,231.4"/>
<g class="st2">
	<defs>
		<rect id="SVGID_1_" x="116.7" y="135.4" width="494.1" height="354.3"/>
	</defs>
	<clipPath id="SVGID_00000078015690262370427360000006384054227881357709_" class="st3">
		<use xlink:href="#SVGID_1_"  style="overflow:visible;"/>
	</clipPath>
</g>
<path class="st4" d="M484.5,376.4c2.3,4.7,4.1,6.3,8.7,5.7c11.3-1.5,22.5-3.6,33.8-5.5l1.4-1.7c-0.7-4.5-1.5-8.9-2.3-13.3
	C511.7,366.7,498.2,371.5,484.5,376.4 M220.5,361.5c-0.8,4.5-1.6,8.8-2.1,13.1l1.4,2c11.2,1.9,22.5,3.8,33.8,5.6
	c4.3,0.7,6.9-2,8.8-5.7C248.5,371.5,234.9,366.7,220.5,361.5 M466.7,467.8c0,3.3-0.2,6,0,8.8c0.2,2.5,1.7,4.1,4.3,4.2
	c14.2,0.1,28.5,0.1,42.7,0c2.4,0,4-1.4,4.2-3.8c0.2-3,0.1-6.1,0.1-9.1H466.7z M228.5,467.8c0,3-0.2,5.8,0.1,8.7
	c0.2,2.6,1.7,4.3,4.5,4.3c14.1,0,28.2,0,42.3,0c2.4,0,4.2-1.3,4.4-3.6c0.3-3,0.1-6.1,0.1-9.4H228.5z M216.9,389.7l-0.4,1.5
	c-0.1,15.7-0.6,31.3-0.2,47c0.2,9.8,7.8,16.5,17.5,16.6c17.4,0.1,34.9,0.2,52.3-0.1c2.5,0,5.5-1.4,7.2-3.1c4.1-4,8.6-5.9,14.2-5.9
	c43.8,0,87.6,0,131.4,0c5.6,0,10.2,1.8,14.2,5.8c1.7,1.6,4.3,3.1,6.6,3.1c18,0.2,36,0.3,53.9,0c9.2-0.1,16.4-7.3,16.7-16.4
	c0.4-11.5,0.4-22.9,0.4-34.4c0-4.7-0.5-9.4-0.8-14.2l-1.8,0.1l-2.3,0.5c-11.2,2.5-22.4,5.1-33.9,5c-6.7-0.1-12-2.6-16.1-7.8
	c-1.8-2.2-3.3-4.7-4.7-7.2c-4.2-7.2-2-12.8,5.8-15.5c12.6-4.3,25.1-8.8,37.7-13.2c1.4-0.5,2.7-1.2,4.9-2.1
	c-3.8-3.4-7.1-6.4-10.4-9.2c-2.5-2.1-3.7-4.6-2.9-7.8c0.9-3.4,3.2-5,6.7-5.5c7.3-0.9,14.7-1.8,22-2.7c6.5-0.8,10.5-5.6,10.3-12.6
	c-11.8-1.4-23.6-2.7-35.4-4.1c-2.6-0.3-3.6,0.7-3.6,3.3c0.1,3.7,0.2,7.5,0,11.3c-0.2,4.6-4.6,7.9-8.8,6.4c-2-0.7-3.9-2.6-5-4.4
	c-9.7-15.8-19.2-31.6-28.8-47.5c-1.7-2.7-3.8-4.5-7.1-4.7c-21.1-1.2-42.2-3-63.4-3.7c-31.9-0.9-63.7,0-95.5,2.9
	c-14.1,1.3-11.5-0.1-18.5,11.4c-8.5,14-17,28.1-25.5,42.2c-2,3.4-5.1,4.7-8.3,3.8c-3.3-0.9-5.1-3.5-5.2-7.5c0-3.3-0.1-6.6,0-9.9
	c0.1-3-1.1-3.9-4-3.6c-6.7,0.8-13.4,1.5-20,2.3c-5.1,0.6-10.2,1.3-15.3,1.9c1.6,9.4,3.9,11.6,12.6,12.6c6.8,0.8,13.6,1.7,20.3,2.6
	c4.4,0.6,7.3,4.2,6.3,8.4c-0.5,1.8-1.9,3.6-3.3,5c-3,3-6.4,5.8-10,9.1c4,1.6,7.1,2.9,10.2,4c11.2,3.9,22.5,7.7,33.7,11.6
	c5.7,2,8.5,7.5,5.8,12.6c-2.1,4-4.7,7.8-7.5,11.2c-3.5,4.2-8.3,6.2-13.8,6.1c-5.2-0.2-10.4-0.4-15.5-1.2
	C232.3,392.9,224.8,391.2,216.9,389.7 M219.5,338.5c-4.5-0.6-8.3-1.1-12.1-1.6c-4.8-0.6-8.9-2.5-12.1-6.2c-4.3-5-6.7-11-7.5-17.4
	c-1-7.3,4.5-13.6,12.2-14.6c11.5-1.4,23-2.8,34.5-4c8.2-0.9,11.4,0.6,17.4,7.7l1.9-3c6-10,12.1-20,18.1-30
	c3.7-6.3,9.2-9.7,16.3-10.4c34.9-3.5,70-4.8,105.1-3.7c21.2,0.6,42.3,2.4,63.4,3.6c8.3,0.5,14.3,4.2,18.5,11.4
	c5.6,9.7,11.6,19.3,17.4,28.9c0.6,1,1.3,2,2.2,3.4c4.8-8.2,12.1-8.8,20.3-7.6c10.2,1.5,20.6,2.5,30.9,3.6c9.9,1.1,15.4,10,11.9,19.3
	l-1.2,3.1c-3.3,10.8-10.7,15.9-21.8,16.4c-2.4,0.1-4.7,0.6-7.2,0.9l0.2,1.1c9.6,11.1,13,24.5,14.2,38.7c1.8,20,2.6,40,1.5,60.1
	c-0.5,8.7-3.9,15.9-10.2,21.9c-1.2,1.1-2,3.1-2.1,4.7c-0.3,4,0,7.9-0.1,11.9c-0.2,9.6-7.5,16.9-17.2,16.9c-14.3,0.1-28.7,0.1-43,0
	c-9.5-0.1-16.9-7.5-17.2-17v-0.7c0.6-5.5,0.4-10.5-6.3-12.2l-0.5-0.4c-3.6-5.2-9-4.9-14.5-4.9c-41,0.1-82.1,0.1-123.1,0
	c-3,0-5.2,0.6-7.3,2.9c-1.7,1.8-3.9,3.4-6.2,4.3c-2.3,0.9-2.8,2.2-2.8,4.4c0.1,3.2,0.1,6.4-0.4,9.6c-1.4,8.1-8.3,13.9-16.5,14
	c-14.5,0.1-28.9,0.1-43.4,0c-9.2-0.1-16.4-6.9-17-16c-0.3-4.5-0.1-9-0.3-13.6l-1.7-3.6c-6.8-6.1-10.2-13.6-10.7-22.7
	c-1.1-23.3-0.3-46.5,2.8-69.7c1.4-9.8,5.2-18.6,11.2-26.5C217.8,340.9,218.5,339.9,219.5,338.5"/>
<path class="st4" d="M513.4,219.1c-9,0-16.9,0.2-24.8-0.1c-2.2-0.1-4.9-1.2-6.3-2.7c-5.3-5.6-10.3-11.5-15.4-17.4
	c-2.8-3.3-2.8-6.2,0-9.5c2.5-3,5.6-5.7,7.7-9.1c5.9-9.4,14.2-13,25.1-11.3c4.2,0.6,8.5,0.1,13.5,0.1c-1.2-1.5-1.8-2.3-2.5-3.1
	c-18.8-20.4-50.2-16.8-65,7.6c-2.5,4.1-5.4,5.4-9.9,5.4c-41.7-0.1-83.4-0.1-125.1-0.1l-3.3-0.1c-1.9-0.9-3.9-1.9-5.3-3.4
	c-3.4-3.8-5.9-8.3-9.6-11.7c-16.6-15.6-41-14.6-56.5,2.1c-0.8,0.8-1.5,1.8-2.7,3.3h4.1c6.8,0,13.7-0.2,20.5,0.1
	c2.2,0.1,4.9,1.1,6.4,2.6c5.4,5.6,10.4,11.7,15.5,17.6c2.7,3.1,2.7,6.1,0,9.3c-5.1,6-10.1,12-15.5,17.6c-1.4,1.5-4,2.5-6,2.6
	c-7,0.3-14.1,0.1-21.2,0.2l-3.3,0.2c6.1,10.2,23,17.8,35.6,16.2c14.3-1.8,24.5-9.8,31.9-21.7c1.9-3.1,4.1-4.6,7.7-4.5
	c42.8,0,85.6,0,128.4,0c3.4,0,5.6,1.3,7.5,4.3c10,16.6,29,27.9,50.9,18.9C502.7,229.8,508.3,225.6,513.4,219.1 M480.1,194.2
	c3.3,3.8,6.4,7.5,9.7,11l3.4,0.8c9.9,0,19.9,0,29.8,0c6.9,0,9.8,4.4,6.9,10.8c-15.5,34-64,46.6-92.7,8.6c-1.8-2.3-3.5-3.1-6.2-3.1
	c-38.5,0.1-77,0.1-115.5,0c-2.7,0-4.3,0.9-5.9,3c-10,13.2-22.8,21.5-39.6,23.2c-21.5,2.3-46.1-12.7-53.7-32.9
	c-2-5.3,0.8-9.6,6.7-9.6c10,0,20.1,0,30.1,0c2.1,0,3.7-0.5,5.1-2.3c2.6-3.3,5.5-6.3,8.4-9.7c-3.3-3.8-6.4-7.5-9.7-11l-3.6-1
	c-9.8-0.1-19.6,0-29.5-0.1c-7.3,0-10-4.3-6.9-10.8c15.6-34.1,64.4-46.3,92.7-8.2c1.6,2.2,3.2,3,5.9,3c38.6-0.1,77.2-0.1,115.9,0
	c2.4,0,4-0.7,5.5-2.7c11.8-15.6,27.1-25.1,47.3-23.5c21.8,1.7,37.2,13,46.3,32.9c2.2,4.8-0.8,9.3-6.1,9.3
	c-10.3,0.1-20.5-0.1-30.8,0.1c-1.6,0-3.6,1-4.7,2.1C485.7,187.4,483.1,190.8,480.1,194.2"/>
<path class="st4" d="M465.1,322.9c-6-9.9-11.5-19.1-17.2-28.3l-3-1.5c-15-1-29.9-2-44.9-2.7c-32.7-1.4-65.3-0.3-97.8,2.6
	c-2,0.2-3.2,0.8-4.2,2.5c-4.9,8.3-9.9,16.4-14.8,24.7l-1.3,2.7C343,326.6,403.7,326.6,465.1,322.9 M373,339.4
	c-33.4-1.3-66.9-2.6-100.4-3.9c-6.9-0.3-10.1-6.2-6.6-12.1c7.3-12.2,14.7-24.4,22-36.5c2.6-4.4,6.6-6.3,11.5-6.6
	c8.6-0.6,17.1-1.8,25.7-1.9c27.4-0.4,54.7-0.8,82-0.6c13.4,0.1,26.8,1.6,40.3,2.5c4.9,0.3,8.7,2.6,11.3,7c7.2,12,14.5,24,21.6,36
	c3.7,6.1,0.5,12.1-6.6,12.3C440.3,336.9,406.7,338.1,373,339.4"/>
<path class="st4" d="M316,381.6c1.7,3.4,3.3,6.4,4.9,9.4c3.4,6.6,8.9,10,16.3,10c24.4,0,48.8,0,73.2,0c4.7,0,9.2-1.5,12-5.3
	c3.2-4.2,5.7-9,8.7-14H316z M372.4,369.1c24.3-0.3,47.5-0.7,70.8-1.1c3.3,0,6.6-0.4,9.9-0.4c4.3,0,7.3,2.6,7.3,6.4
	c0.1,3.8-2.8,6.9-7.1,6.5c-5.9-0.6-9.2,1.6-11.1,7c-1.3,3.5-3.3,6.7-5.1,10c-5.8,10.5-14.7,16.3-26.8,16.3
	c-24.7,0.1-49.4,0.2-74.1,0c-12.1-0.1-21-5.9-26.7-16.5c-2.5-4.6-5-9.3-7.3-14.1c-0.9-1.9-2.1-2.7-4.1-2.6c-1.8,0.1-3.5,0-5.3-0.1
	c-3.9-0.2-6.6-2.9-6.6-6.5c0-3.7,2.9-6.5,6.9-6.5c3.6,0,7.3,0.3,10.9,0.4C327.1,368.4,350.3,368.8,372.4,369.1"/>
<path class="st4" d="M280.3,427.1c-7.5-1-15.1-2-22.6-3.1c-6.2-0.9-9.7,0.6-13,6c-1.7,2.7-3.2,5.5-4.9,8.2c-2.2,3.4-5.9,4.3-9.2,2.4
	c-3-1.8-3.9-5.6-2-9c2-3.7,4.1-7.3,6.5-10.7c5.2-7.5,12.6-10.9,21.6-10.1c8.3,0.8,16.6,2.1,24.8,3.4c5.1,0.8,7.6,5.2,5.5,9.4
	C285.7,426.3,283.4,427.3,280.3,427.1"/>
<path class="st4" d="M519,434.4c-0.1,3.6-1.6,5.8-4.5,6.7c-3.1,1-5.7,0-7.5-2.6c-1.9-2.9-3.7-6-5.4-9.1c-2.7-4.6-6.7-6.4-12-5.6
	c-7.1,1.1-14.2,2-21.2,3l-2,0.2c-4.2,0.2-7.2-2-7.5-5.7c-0.4-3.7,1.9-6.6,6.1-7.2c8.3-1.2,16.5-2.5,24.9-3.4c3.1-0.3,6.4,0.3,9.4,1
	c5.1,1.3,9.1,4.3,12,8.7c2.4,3.7,4.6,7.5,6.8,11.3L519,434.4z"/>
<path class="st4" d="M312,419c5.1,0,9,3.8,9,8.8c0,5.1-3.9,9-8.9,9c-4.9,0-8.8-3.9-8.9-8.8C303.1,423,306.9,419.1,312,419"/>
<path class="st4" d="M434.8,419c5.1,0.1,8.8,4.1,8.7,9.2c-0.2,4.9-4.1,8.6-9,8.6c-5,0-8.8-4-8.8-9.1
	C425.7,422.6,429.6,418.9,434.8,419"/>
</svg>
