<?xml version="1.0" encoding="utf-8"?>
<!-- Generator: Adobe Illustrator 27.0.0, SVG Export Plug-In . SVG Version: 6.00 Build 0)  -->
<svg version="1.1" id="Layer_1" xmlns="http://www.w3.org/2000/svg" xmlns:xlink="http://www.w3.org/1999/xlink" x="0px" y="0px"
	 viewBox="0 0 747 664" style="enable-background:new 0 0 747 664;" xml:space="preserve">
<style type="text/css">
	.st0{display:none;fill:#C69A68;}
	.st1{fill:#C69B69;}
</style>
<image style="display:none;overflow:visible;enable-background:new    ;" width="472" height="298" xlink:href="37897661.png"  transform="matrix(1 0 0 1 131 178)">
</image>
<path class="st0" d="M575.4,410.6c-3.4-18.4-4.5-18.8-23.8-18.9c-13.3-0.1-11.6,10.3-15.8,18.9H575.4z M588.5,440.8
	c-5.5-25.9-9.8-28.2-47.3-26.2c-8.9,0.5-14.6,9.2-16.4,26.2H588.5z M253.2,432.8c7.8,6.5,15.2,7.3,24.3,4c5.8-2.1,13-0.4,19.5,0
	c4.3,0.3,9.4,3,12.6,1.5c10.5-5.1,19.8-3.9,30.4-0.2c4.8,1.7,12.2-2.1,17.5-5.1c1.1-0.6-0.8-8.8-2.8-12.7
	c-9.6-18.6-32.8-32.1-51-30.1C277.9,392.9,259.2,408.6,253.2,432.8 M399.7,395.2c2.5,5.7,5.2,10.4,6.7,15.5c2.1,7.5,3,15.4,5.1,22.9
	c0.6,2.4,3.4,4.1,5.3,6.2c0.7-2.3,2.1-4.5,2.1-6.8c0-3.7-0.6-7.5-1.3-11.1c-12.2-57-69-101.2-134.6-87.4
	c-47.5,10-82.5,47.6-89.6,97.5c-0.3,2.4,1.7,5.2,2.7,7.8c1.5-2.1,3.8-4,4.5-6.3c3.5-11.8,6.6-23.7,10.2-36.7
	c11.1,6.5,19.8,11.6,28,16.4c-2,7.9-4,14.4-5.3,21c-0.3,1.7,1.5,3.8,2.4,5.7c1.6-1.4,3.7-2.5,4.8-4.3c1-1.6,0.7-4,1.2-6
	c6.7-29.3,39.2-53.7,67.6-50.7c32.9,3.5,53.9,21.9,62.5,54.5c0.7,2.5,2.7,4.7,4.1,7.1c1.4-0.5,2.8-1,4.1-1.6
	c-2.2-9.2-4.5-18.4-6.9-28.4C381.4,405.8,390.1,400.7,399.7,395.2 M482.8,340.4c10.2-12.2,18.5-6.7,27.7-4.1
	c16.1,4.6,31.3,1.7,43.5-10.6c12.5-12.5,15.2-27.6,11.1-44.4c-1-4.2-1.3-9.4,0.2-13.3c6.7-17.9,0.9-34-15.6-43.7
	c-4.1-2.4-8.3-7.1-9.6-11.6c-6.2-20.9-25.2-30.8-45.5-23.3c-3.8,1.4-9.4,1.4-12.7-0.5c-22.2-12.9-43.6-6.1-54.1,17.1
	c-1.7,3.8-6.5,7.7-10.5,8.7c-17.6,4.3-28.9,20.1-24.3,37.8c2,7.8,0.5,12.4-4.9,17.9c-13.6,13.8-14.7,34.7-3.7,50.8
	c9.8,14.3,30.3,21.7,46.3,14c10.3-4.9,17.7-5.5,26.2,2.2c2.6,2.4,7.4,2.3,11.3,3.4c3.4-14.6,3.1-15.4-7.2-22.3
	c-13.9-9.4-28-18.5-41.6-28.2c-2.3-1.6-2.6-6-3.8-9c3.6-0.4,7.8-2.1,10.6-0.8c5.6,2.5,10.3,6.7,15.4,10.1
	c8.7,5.7,17.4,11.4,27.7,18.1c0.2-5.7,0.5-9,0.5-12.3c0-19.5-0.1-39,0.1-58.5c0-4.4-1.8-10.7,5.5-11c7.6-0.4,7.3,5.7,7.3,10.8
	c0.1,11.4,0,22.8,0,36.7c12.5-8,22.5-15,33.2-20.9c2.7-1.5,7.2,0.1,10.9,0.3c-1.4,3.3-2,7.8-4.4,9.6c-10.5,7.6-21.7,14.3-32.4,21.7
	c-2.8,2-6.7,5.2-6.8,8C482.4,307.4,482.8,322,482.8,340.4 M526.9,415.6c-5.8-0.6-11-1.2-18.7-2.1c9.5-1.9,17.1-1.8,22.6-5.2
	c3.7-2.2,4.6-9.3,6.6-14l-2.1-1.9c-3.2-1.6-6.4-3.1-9.6-4.6c3.3-1,6.7-2.8,10-2.9c14.1-0.3,28.1-0.3,42.2,0c3.2,0.1,6.4,2.1,9.6,3.3
	c-3,1.3-6,2.6-9.1,4l-2.1,1c0.1,17.4,11.4,20.4,25.7,20.8c-5.2,0.5-10.3,1-17.5,1.7c5.9,10.2,3.1,24.1,18.5,27l2.7,3.5l-3.1,3.1
	c-2.6,0.5-5.5,0.3-8.2,0.3c-74,0-148.1,0-222.1,0c-6.2,0-12.9,1.2-12.4-10c-11.1,7.3-20.9,6.6-31.1,1.2c-2.9-1.5-8.1-0.3-11.4,1.3
	c-8.1,4.1-15.5,4-23.5-0.2c-3-1.6-7.8-2.7-10.5-1.5c-10.1,4.6-19.8,7.7-30.3-0.4c0.2,1.5,0.5,3,0.7,4.6c-5.3,1.6-10.5,4.5-15.8,4.6
	c-26.7,0.5-53.5,0.3-80.2,0.1c-2.8,0-5.6-2.1-8.4-3.2c2.7-1.3,5.3-3.4,8.2-3.8c7.4-1,17.1,1.4,21.6-2.5c4.4-3.8,3.5-13.7,4.9-20.9
	c9.4-47.9,51.6-87.8,101-95.6c67.8-10.7,127.4,29.2,143.2,95.9l0.4,1c1.9,7,2,18.7,6,20.1c8.8,3.2,19.5,1.8,29.3,1.3
	c2-0.1,5.6-4.2,5.6-6.5c0.4-25.7,0.3-51.4,0.2-77c0-1.7-0.2-3.5-1-4.9c-1.5-2.6-29.5-9.7-32.7-8.6c-30.5,11-59.9-4.1-67.8-35.2
	c-3.9-15.6-0.3-30,9.3-42.5c4-5.2,6-9.3,4.4-16.4c-3.7-17.3,8.7-37.3,26.8-43.6c6.4-2.2,10-5.7,13.1-11.4
	c11.9-21.4,36.8-28.7,59.3-18.7c4.4,2,10.4,2.3,15.2,1.2c23.2-5.2,44.1,6.1,52.5,28.5c1.6,4.3,5.4,8.5,9.3,11.2
	c16.9,11.5,23.7,30.7,17.8,50.4c-1.3,4.2-1.4,9.4-0.4,13.7c5,21-1,38.9-16.5,52.9c-15.5,14.1-34.1,18-54.4,10.7
	c-12.4-4.5-22,2.2-22,15.1c0,24,0.2,47.9-0.2,71.9c-0.1,7.1,2.2,10.2,9.3,9.8c1.7-0.1,3.4,0,5.1,0
	C520.3,442.1,521.8,440.9,526.9,415.6"/>
<path class="st0" d="M231.4,198.5c11.6-3.1,20.3,2.1,28.8,8.7c8.7-6.2,17.5-12,29.2-8.9c-10.5,6.4-26.1,5.8-28.6,23.9
	C256.8,205.7,243.6,203.2,231.4,198.5"/>
<path class="st0" d="M260.1,260c-11.6,2.5-19.4,8.5-22,21.5c-4.2-12.1-10.5-20.7-25.4-20c1.1-1.8,2.3-3.6,3.4-5.5
	c7.3,2.7,14.7,5.4,23.4,8.6C244.4,261.2,250.6,254.5,260.1,260"/>
<path class="st0" d="M328.3,222.8c-7.3,6.5-13.2,11.7-19,16.8c-4.8-4.3-11.1-9.9-18.2-16.4c6.7-4.5,11.8,2.3,18.3,5.3
	C315,226.3,320.4,218.8,328.3,222.8"/>
<path class="st0" d="M298,476c-10.9-7-21.2-4.2-32.1-1.2c-4.7,1.3-11-3.3-14.1-4.4c9-0.9,19.5-2.8,30-2.8c5.6,0,11.1,3.4,16.7,5.3
	L298,476"/>
<polygon class="st0" points="319.7,463 351,463 350.8,464.1 319.3,464.1 "/>
<path class="st0" d="M353.2,350.9c-14.9,29-14.9,29-45.3,18.8v-29.2C324.1,339.1,338.5,343.6,353.2,350.9"/>
<path class="st0" d="M396.8,386.9c-11.1,6.5-19.8,11.5-28.4,16.5c-7.5-7.2-14.6-13.9-22.8-21.7c4.8-8.3,10-17.1,16.5-28.3
	C373.9,364.9,384.7,375.2,396.8,386.9"/>
<path class="st0" d="M299.7,337.8c0,11.7,0.5,20.2-0.3,28.6c-0.2,2.4-3.5,5.5-6.1,6.5c-6.9,2.6-14.2,4.1-23,6.6
	c-4.5-7.9-9.5-16.6-16-27.9C269.7,346.9,283.8,342.7,299.7,337.8"/>
<path class="st0" d="M242.7,405.7c-8.8-5.1-17.5-10.2-28.4-16.6c11.2-11.5,21.2-21.7,32.4-33.2c6.3,10.7,11.2,19.1,16.4,27.9
	C256.6,390.9,250.1,397.8,242.7,405.7"/>
<path class="st1" d="M282.2,547.6H460v-9.9c0-2.4-0.3-5.8-1.7-7.1c-2.9-2.9-13.4-2.8-22.6-2.8H311.8h-5.4
	c-9.1-0.1-19.7-0.1-22.6,2.8c-1.5,1.5-1.7,4.7-1.7,7.1v9.9H282.2z M469.9,567.3H272.5c-5.5,0-9.9-4.4-9.9-9.9v-19.8
	c0-9.1,2.5-16.2,7.6-21.1c8.8-8.7,22.5-8.7,36.7-8.4h123.6h5.2c14-0.1,27.8-0.3,36.7,8.4c5.1,5,7.5,12.2,7.5,21.1v19.8
	C479.7,562.9,475.3,567.3,469.9,567.3"/>
<rect x="420.6" y="472.8" class="st1" width="19.8" height="45.1"/>
<rect x="302" y="473.1" class="st1" width="19.8" height="44.8"/>
<path class="st1" d="M203.8,369.8c7.2,68.2,89.8,99.4,166.7,99.4c77.5,0,160.7-31.2,168-99.4L203.8,369.8L203.8,369.8z M370.5,488.9
	c-48.3,0-93.2-11.1-126.8-31c-39.3-23.5-60.1-57.4-60.1-97.9c0-5.5,4.4-9.9,9.9-9.9h355.3c5.5,0,9.9,4.4,9.9,9.9
	C558.8,448.6,461.1,488.9,370.5,488.9"/>
<path class="st1" d="M254.8,271.1c11,26.1,65,40.1,116.3,40.1s105.3-13.9,116.3-40.1H254.8z M371.2,330.9
	c-34.8,0-67.4-5.6-91.9-15.7c-38.1-15.9-46.2-38.1-46.2-54c0-5.5,4.4-9.9,9.9-9.9h256.3c5.5,0,9.9,4.4,9.9,9.9
	C509.1,309.3,439.8,330.9,371.2,330.9"/>
<rect x="400.8" y="318.4" class="st1" width="19.8" height="41.5"/>
<rect x="321.8" y="318.4" class="st1" width="19.8" height="41.5"/>
<path class="st1" d="M371.2,261.2c-5.5,0-9.9-4.4-9.9-9.9V142.6c0-27.3,22.2-49.4,49.4-49.4s49.4,22.1,49.4,49.4v9.9
	c0,5.5-4.4,9.9-9.9,9.9s-9.9-4.4-9.9-9.9v-9.9c0-16.3-13.2-29.7-29.6-29.7S381,126.2,381,142.6v108.6
	C381,256.8,376.6,261.2,371.2,261.2"/>
<path class="st1" d="M371.2,271.1c-5.5,0-9.9-4.4-9.9-9.9V142.6c0-16.3-13.2-29.7-29.6-29.7S302,126.2,302,142.6v9.9
	c0,5.5-4.4,9.9-9.9,9.9s-9.9-4.4-9.9-9.9v-9.9c0-27.3,22.2-49.4,49.4-49.4s49.4,22.2,49.4,49.4v118.5
	C381,266.7,376.6,271.1,371.2,271.1"/>
<path class="st1" d="M450.1,221.7c-5.5,0-9.9-4.4-9.9-9.9V192c0-5.5,4.4-9.9,9.9-9.9s9.9,4.4,9.9,9.9v19.8
	C460,217.3,455.6,221.7,450.1,221.7"/>
<path class="st1" d="M292.1,221.7c-5.5,0-9.9-4.4-9.9-9.9V192c0-5.5,4.4-9.9,9.9-9.9s9.9,4.4,9.9,9.9v19.8
	C302,217.3,297.6,221.7,292.1,221.7"/>
</svg>
