<?xml version="1.0" encoding="utf-8"?>
<!-- Generator: Adobe Illustrator 27.0.0, SVG Export Plug-In . SVG Version: 6.00 Build 0)  -->
<svg version="1.1" id="Layer_1" xmlns="http://www.w3.org/2000/svg" xmlns:xlink="http://www.w3.org/1999/xlink" x="0px" y="0px"
	 viewBox="0 0 747 664" style="enable-background:new 0 0 747 664;" xml:space="preserve">
<style type="text/css">
	.st0{fill:#C69A68;}
</style>
<image style="display:none;overflow:visible;enable-background:new    ;" width="472" height="298" xlink:href="91887C07.png"  transform="matrix(1 0 0 1 131 178)">
</image>
<path class="st0" d="M647.3,449.1c-4.6-25.1-6.1-25.6-32.5-25.8c-18.1-0.1-15.8,14-21.5,25.8H647.3z M665.2,490.3
	c-7.5-35.3-13.4-38.5-64.5-35.7c-12.1,0.7-19.9,12.5-22.4,35.7H665.2z M208,479.4c10.6,8.9,20.7,10,33.1,5.5
	c7.9-2.9,17.7-0.5,26.6,0c5.9,0.4,12.8,4.1,17.2,2c14.3-7,27-5.3,41.5-0.3c6.5,2.3,16.6-2.9,23.9-7c1.5-0.8-1.1-12-3.8-17.3
	c-13.1-25.4-44.7-43.8-69.5-41C241.7,425,216.2,446.4,208,479.4 M407.8,428.1c3.4,7.8,7.1,14.2,9.1,21.1c2.9,10.2,4.1,21,7,31.2
	c0.8,3.3,4.6,5.6,7.2,8.5c1-3.1,2.9-6.1,2.9-9.3c0-5-0.8-10.2-1.8-15.1c-16.6-77.7-94.1-138-183.5-119.2
	c-64.8,13.6-112.5,64.9-122.2,132.9c-0.4,3.3,2.3,7.1,3.7,10.6c2-2.9,5.2-5.5,6.1-8.6c4.8-16.1,9-32.3,13.9-50
	c15.1,8.9,27,15.8,38.2,22.4c-2.7,10.8-5.5,19.6-7.2,28.6c-0.4,2.3,2,5.2,3.3,7.8c2.2-1.9,5-3.4,6.5-5.9c1.4-2.2,1-5.5,1.6-8.2
	c9.1-40,53.5-73.2,92.2-69.1c44.9,4.8,73.5,29.9,85.2,74.3c1,3.4,3.7,6.4,5.6,9.7c1.9-0.7,3.8-1.4,5.6-2.2
	c-3-12.5-6.1-25.1-9.4-38.7C382.8,442.6,394.7,435.6,407.8,428.1 M521.1,353.4c13.9-16.6,25.2-9.1,37.8-5.6
	c22,6.3,42.7,2.3,59.3-14.5c17-17,20.7-37.6,15.1-60.5c-1.4-5.7-1.8-12.8,0.3-18.1c9.1-24.4,1.2-46.4-21.3-59.6
	c-5.6-3.3-11.3-9.7-13.1-15.8c-8.5-28.5-34.4-42-62-31.8c-5.2,1.9-12.8,1.9-17.3-0.7c-30.3-17.6-59.5-8.3-73.8,23.3
	c-2.3,5.2-8.9,10.5-14.3,11.9c-24,5.9-39.4,27.4-33.1,51.5c2.7,10.6,0.7,16.9-6.7,24.4c-18.5,18.8-20,47.3-5,69.3
	c13.4,19.5,41.3,29.6,63.1,19.1c14-6.7,24.1-7.5,35.7,3c3.5,3.3,10.1,3.1,15.4,4.6c4.6-19.9,4.2-21-9.8-30.4
	c-19-12.8-38.2-25.2-56.7-38.5c-3.1-2.2-3.5-8.2-5.2-12.3c4.9-0.5,10.6-2.9,14.5-1.1c7.6,3.4,14,9.1,21,13.8
	c11.9,7.8,23.7,15.5,37.8,24.7c0.3-7.8,0.7-12.3,0.7-16.8c0-26.6-0.1-53.2,0.1-79.8c0-6-2.5-14.6,7.5-15c10.4-0.5,10,7.8,10,14.7
	c0.1,15.5,0,31.1,0,50c17-10.9,30.7-20.5,45.3-28.5c3.7-2,9.8,0.1,14.9,0.4c-1.9,4.5-2.7,10.6-6,13.1
	c-14.3,10.4-29.6,19.5-44.2,29.6c-3.8,2.7-9.1,7.1-9.3,10.9C520.5,308.4,521.1,328.3,521.1,353.4 M581.2,455.9
	c-7.9-0.8-15-1.6-25.5-2.9c13-2.6,23.3-2.5,30.8-7.1c5-3,6.3-12.7,9-19.1l-2.9-2.6c-4.4-2.2-8.7-4.2-13.1-6.3
	c4.5-1.4,9.1-3.8,13.6-4c19.2-0.4,38.3-0.4,57.5,0c4.4,0.1,8.7,2.9,13.1,4.5c-4.1,1.8-8.2,3.5-12.4,5.5l-2.9,1.4
	c0.1,23.7,15.5,27.8,35,28.4c-7.1,0.7-14,1.4-23.9,2.3c8,13.9,4.2,32.9,25.2,36.8l3.7,4.8l-4.2,4.2c-3.5,0.7-7.5,0.4-11.2,0.4
	c-100.9,0-201.9,0-302.8,0c-8.5,0-17.6,1.6-16.9-13.6c-15.1,10-28.5,9-42.4,1.6c-4-2-11-0.4-15.5,1.8c-11,5.6-21.1,5.5-32-0.3
	c-4.1-2.2-10.6-3.7-14.3-2c-13.8,6.3-27,10.5-41.3-0.5c0.3,2,0.7,4.1,1,6.3c-7.2,2.2-14.3,6.1-21.5,6.3c-36.4,0.7-73,0.4-109.4,0.1
	c-3.8,0-7.6-2.9-11.5-4.4c3.7-1.8,7.2-4.6,11.2-5.2c10.1-1.4,23.3,1.9,29.5-3.4c6-5.2,4.8-18.7,6.7-28.5
	c12.8-65.3,70.4-119.7,137.7-130.4c92.4-14.6,173.7,39.8,195.3,130.8l0.5,1.4c2.6,9.5,2.7,25.5,8.2,27.4c12,4.4,26.6,2.5,40,1.8
	c2.7-0.1,7.6-5.7,7.6-8.9c0.5-35,0.4-70.1,0.3-105c0-2.3-0.3-4.8-1.4-6.7c-2-3.5-40.2-13.2-44.6-11.7c-41.6,15-81.7-5.6-92.4-48
	c-5.3-21.3-0.4-40.9,12.7-58c5.5-7.1,8.2-12.7,6-22.4c-5-23.6,11.9-50.9,36.5-59.5c8.7-3,13.6-7.8,17.9-15.5
	c16.2-29.2,50.2-39.1,80.9-25.5c6,2.7,14.2,3.1,20.7,1.6c31.6-7.1,60.1,8.3,71.6,38.9c2.2,5.9,7.4,11.6,12.7,15.3
	c23,15.7,32.3,41.9,24.3,68.7c-1.8,5.7-1.9,12.8-0.5,18.7c6.8,28.6-1.4,53-22.5,72.1c-21.1,19.2-46.5,24.5-74.2,14.6
	c-16.9-6.1-30,3-30,20.6c0,32.7,0.3,65.3-0.3,98c-0.1,9.7,3,13.9,12.7,13.4c2.3-0.1,4.6,0,7,0C572.2,492.1,574.2,490.4,581.2,455.9"
	/>
<path class="st0" d="M178.3,159.9c15.8-4.2,27.7,2.9,39.3,11.9c11.9-8.5,23.9-16.4,39.8-12.1c-14.3,8.7-35.6,7.9-39,32.6
	C212.9,169.7,194.9,166.3,178.3,159.9"/>
<path class="st0" d="M217.4,243.7c-15.8,3.4-26.5,11.6-30,29.3c-5.7-16.5-14.3-28.2-34.6-27.3c1.5-2.5,3.1-4.9,4.6-7.5
	c10,3.7,20,7.4,31.9,11.7C196,245.4,204.4,236.2,217.4,243.7"/>
<path class="st0" d="M310.4,193c-10,8.9-18,16-25.9,22.9c-6.5-5.9-15.1-13.5-24.8-22.4c9.1-6.1,16.1,3.1,25,7.2
	C292.3,197.8,299.6,187.6,310.4,193"/>
<path class="st0" d="M269.1,538.3c-14.9-9.5-28.9-5.7-43.8-1.6c-6.4,1.8-15-4.5-19.2-6c12.3-1.2,26.6-3.8,40.9-3.8
	c7.6,0,15.1,4.6,22.8,7.2L269.1,538.3"/>
<polygon class="st0" points="298.7,520.5 341.3,520.5 341.1,522 298.1,522 "/>
<path class="st0" d="M344.3,367.7c-20.3,39.5-20.3,39.5-61.8,25.6v-39.8C304.7,351.6,324.3,357.7,344.3,367.7"/>
<path class="st0" d="M403.8,416.8c-15.1,8.9-27,15.7-38.7,22.5c-10.2-9.8-19.9-19-31.1-29.6c6.5-11.3,13.6-23.3,22.5-38.6
	C372.6,386.8,387.3,400.8,403.8,416.8"/>
<path class="st0" d="M271.4,349.8c0,16,0.7,27.5-0.4,39c-0.3,3.3-4.8,7.5-8.3,8.9c-9.4,3.5-19.4,5.6-31.4,9
	c-6.1-10.8-13-22.6-21.8-38C230.5,362.2,249.7,356.5,271.4,349.8"/>
<path class="st0" d="M193.7,442.4c-12-7-23.9-13.9-38.7-22.6c15.3-15.7,28.9-29.6,44.2-45.3c8.6,14.6,15.3,26,22.4,38
	C212.6,422.2,203.8,431.6,193.7,442.4"/>
</svg>
