<?xml version="1.0" encoding="utf-8"?>
<!-- Generator: Adobe Illustrator 27.0.0, SVG Export Plug-In . SVG Version: 6.00 Build 0)  -->
<svg version="1.1" id="Layer_1" xmlns="http://www.w3.org/2000/svg" xmlns:xlink="http://www.w3.org/1999/xlink" x="0px" y="0px"
	 viewBox="0 0 2000 2000" style="enable-background:new 0 0 2000 2000;" xml:space="preserve">
<style type="text/css">
	.st0{fill:#C79B68;}
</style>
<g>
	<path class="st0" d="M1615.6,1459.63c-24.23-2.72-45.57-5.12-77.87-8.75c39.45-7.99,71.02-7.55,93.93-21.39
		c15.58-9.42,19.03-38.85,27.48-58.34c-4.68-4.44-6.34-6.93-8.68-8.08c-13.23-6.54-26.63-12.75-39.96-19.08
		c13.81-4.19,27.54-11.68,41.43-12c58.34-1.36,116.75-1.43,175.09,0.08c13.38,0.35,26.56,8.83,39.83,13.57
		c-12.53,5.47-25.07,10.92-37.6,16.41c-2.54,1.11-5,2.39-8.7,4.17c0.26,72.48,47.51,84.67,106.71,86.26
		c-21.45,2.08-42.91,4.16-72.54,7.04c24.37,42.51,12.83,100.36,77.05,111.98c4.75,0.86,11.43,9.67,11.14,14.42
		c-0.29,4.72-7.67,11.8-12.94,12.84c-10.99,2.19-22.64,1.3-34.02,1.3c-307.53,0.04-615.05-0.01-922.58,0.1
		c-25.64,0.01-53.63,4.82-51.38-41.5c-46,30.35-86.68,27.27-129.3,4.99c-11.9-6.22-33.8-1.34-47.55,5.54
		c-33.59,16.82-64.25,16.61-97.46-0.66c-12.59-6.55-32.28-11.38-43.7-6.12c-41.93,19.34-82.33,32.09-125.85-1.6
		c1,6.34,1.99,12.68,2.99,19.02c-21.93,6.75-43.76,18.94-65.8,19.34c-111.02,1.99-222.09,1.33-333.13,0.29
		c-11.72-0.11-23.36-8.8-35.04-13.51c11.28-5.43,22.12-14.08,33.91-15.66c30.67-4.13,71.12,5.72,90-10.52
		c18.28-15.72,14.57-56.99,20.48-87.05c39.14-198.94,214.2-364.68,419.31-396.98c281.79-44.37,529.16,121.33,595,398.52
		c0.33,1.37,1.06,2.65,1.43,4.02c7.76,29.16,8.42,77.6,24.69,83.56c36.55,13.4,80.92,7.32,121.92,5.33
		c8.52-0.41,23.11-17.31,23.26-26.8c1.68-106.65,1.16-213.34,0.94-320.02c-0.01-6.88-0.8-14.66-4.04-20.44
		c-6.15-10.97-122.45-40.5-135.98-35.63c-126.83,45.7-248.69-16.88-281.61-146.06c-16.46-64.58-1.29-124.49,38.74-176.53
		c16.62-21.6,24.78-38.49,18.38-68.07c-15.55-71.76,36.26-154.93,111.17-181.12c26.67-9.32,41.36-23.78,54.51-47.42
		c49.43-88.81,152.8-119.19,246.26-77.75c18.41,8.16,43.36,9.43,63.3,4.97c96.54-21.59,183.22,25.48,218.32,118.52
		c6.75,17.9,22.39,35.37,38.5,46.34c69.98,47.65,98.29,127.49,73.75,209.18c-5.3,17.63-5.67,38.9-1.42,56.87
		c20.64,87.38-4.37,161.7-68.5,219.9c-64.42,58.46-141.34,74.88-225.79,44.57c-51.68-18.55-91.59,9.19-91.63,62.57
		c-0.06,99.57,0.95,199.15-0.61,298.7c-0.46,29.44,9.11,42.57,38.56,40.51c7.08-0.5,14.23,0.06,21.35,0.1
		C1588.23,1570.09,1594.43,1564.85,1615.6,1459.63z M1432.44,1147.34c42.24-50.76,76.91-27.81,114.93-16.87
		c66.74,19.2,129.97,7.09,180.92-43.97c51.86-51.97,63-114.47,46.18-184.6c-4.2-17.53-5.42-38.87,0.67-55.23
		c27.73-74.5,3.71-141.24-64.6-181.74c-17.11-10.14-34.49-29.42-39.93-47.95c-25.51-86.93-104.42-127.91-189.04-97.04
		c-15.62,5.7-39.17,6.03-52.82-1.89c-92.31-53.54-181.32-25.28-224.76,71.15c-7.13,15.82-26.98,32.13-43.88,36.25
		c-72.86,17.77-119.81,83.41-100.89,156.88c8.38,32.54,2.26,51.58-20.27,74.56c-56.38,57.52-61.08,144.12-15.38,210.82
		c40.8,59.56,126.05,90.13,192.27,58.31c42.66-20.5,73.42-22.9,108.69,9.33c10.82,9.89,30.93,9.64,46.91,14.07
		c14.07-60.44,12.99-63.82-29.76-92.6c-57.76-38.88-116.24-76.74-172.84-117.24c-9.42-6.74-10.79-24.69-15.88-37.46
		c14.82-1.56,32.17-8.76,43.92-3.5c23,10.3,42.72,27.78,64.07,41.87c36.07,23.8,72.37,47.26,115.21,75.2
		c1.06-23.55,2.18-37.27,2.21-50.99c0.17-81.05-0.24-162.1,0.32-243.15c0.13-18.47-7.54-44.27,23.01-45.89
		c31.68-1.68,30.11,23.54,30.23,45.05c0.27,47.45,0.08,94.89,0.08,152.19c51.94-33.33,93.67-62.23,137.74-86.94
		c11.35-6.36,30.09,0.46,45.44,1.22c-5.96,13.58-8.16,32.33-18.52,39.85c-43.64,31.66-90.19,59.28-134.59,89.96
		c-11.86,8.2-27.78,21.59-28.33,33.24C1430.91,1010.51,1432.44,1070.99,1432.44,1147.34z M1087.29,1375.09
		c10.29,23.55,21.61,43.31,27.59,64.57c8.77,31.18,12.43,63.78,21.05,95.02c2.71,9.82,14.35,17.18,21.9,25.67
		c3.07-9.42,8.6-18.83,8.64-28.26c0.07-15.43-2.34-31.1-5.58-46.27c-50.6-236.77-286.51-420.56-559.23-362.95
		c-197.31,41.67-342.84,197.79-372.29,405.12c-1.42,10.02,7.19,21.46,11.14,32.24c6.39-8.68,15.76-16.47,18.66-26.19
		c14.62-48.88,27.55-98.26,42.36-152.16c46.28,27.11,82.37,48.25,116.38,68.17c-8.46,32.64-16.56,59.71-21.86,87.31
		c-1.33,6.93,6.32,15.58,9.85,23.44c6.85-5.8,15.62-10.46,19.98-17.75c4.06-6.8,3.03-16.5,4.9-24.77
		c27.64-121.79,162.83-223.12,280.8-210.57c136.52,14.52,223.96,91.17,259.73,226.51c2.79,10.55,11.28,19.6,17.12,29.35
		c5.74-2.2,11.48-4.39,17.22-6.59c-9.31-38.24-18.62-76.47-28.75-118.07C1011.3,1419.02,1047.57,1398.05,1087.29,1375.09z
		 M478.77,1531.25c32.39,27.14,62.85,30.31,100.96,16.61c23.93-8.6,53.82-1.6,80.95-0.04c17.77,1.02,39.09,12.44,52.37,5.98
		c43.47-21.13,82.16-16.34,126.46-0.98c20.09,6.97,50.67-8.77,72.73-20.98c4.68-2.59-3.38-36.53-11.76-52.86
		c-39.7-77.41-136.17-133.24-211.73-125.08C581.36,1365.5,503.53,1430.71,478.77,1531.25z M1871.34,1564.45
		c-22.92-107.7-40.71-117.15-196.23-108.85c-37.13,1.98-60.54,38.31-68.12,108.85C1695.05,1564.45,1782.67,1564.45,1871.34,1564.45z
		 M1817.18,1438.98c-14.01-76.58-18.52-78.26-98.74-78.71c-55.1-0.31-48.2,42.9-65.6,78.71
		C1711.88,1438.98,1764.16,1438.98,1817.18,1438.98z"/>
	<path class="st0" d="M388.18,558.09c48.25-13.09,84.27,8.89,119.64,36.06c36.16-25.62,72.6-49.66,121.27-36.89
		c-43.43,26.42-108.16,23.97-118.62,99.23C493.64,587.95,438.76,577.28,388.18,558.09z"/>
	<path class="st0" d="M507.46,813.39c-48.38,10.35-80.41,35.26-91.2,89.41c-17.64-50.16-43.79-86.01-105.69-83.25
		c4.75-7.56,9.49-15.12,14.24-22.68c30.44,11.16,60.89,22.32,97.13,35.6C442.3,818.49,468.01,790.75,507.46,813.39z"/>
	<path class="st0" d="M790.68,658.84c-30.33,26.87-54.8,48.55-78.92,69.91c-19.93-17.93-45.95-41.34-75.7-68.1
		c27.78-18.84,48.94,9.55,75.91,21.88C735.57,673.33,757.84,642.13,790.68,658.84z"/>
	<path class="st0" d="M664.83,1710.68c-45.23-28.86-87.89-17.36-133.25-5.13c-19.55,5.27-45.66-13.72-58.77-18.23
		c37.24-3.89,80.88-11.8,124.49-11.66c23.16,0.08,46.28,14.12,69.41,21.85C666.09,1701.9,665.46,1706.29,664.83,1710.68z"/>
	<path class="st0" d="M755.06,1656.63c43.3,0,86.6,0,129.9,0c-0.23,1.54-0.46,3.07-0.69,4.6c-43.7,0-87.41,0-131.11,0
		C753.8,1659.7,754.43,1658.16,755.06,1656.63z"/>
	<path class="st0" d="M894,1190.88c-61.96,120.61-61.96,120.61-188.09,78.04c0-38.44,0-77.63,0-121.41
		C773.17,1141.98,833.18,1160.85,894,1190.88z"/>
	<path class="st0" d="M1075.08,1340.38c-46.29,26.86-82.41,47.82-118.08,68.52c-31.25-29.73-60.54-57.6-94.65-90.06
		c20.02-34.33,41.51-71.19,68.48-117.45C980.28,1249.04,1024.93,1292.06,1075.08,1340.38z"/>
	<path class="st0" d="M671.85,1136.73c0,48.59,1.9,83.88-1.2,118.72c-0.88,9.92-14.66,22.95-25.36,26.92
		c-28.78,10.69-59.09,17.26-95.38,27.29c-18.86-32.8-39.52-68.75-66.62-115.89C547.2,1174.44,605.6,1156.77,671.85,1136.73z"/>
	<path class="st0" d="M435.26,1418.53c-36.56-21.32-72.62-42.34-117.88-68.74c46.58-47.71,88.04-90.18,134.76-138.04
		c26,44.38,46.4,79.22,68.02,116.12C492.59,1357.32,465.87,1385.85,435.26,1418.53z"/>
</g>
</svg>
