<?xml version="1.0" encoding="utf-8"?>
<!-- Generator: Adobe Illustrator 27.0.0, SVG Export Plug-In . SVG Version: 6.00 Build 0)  -->
<svg version="1.1" id="Layer_1" xmlns="http://www.w3.org/2000/svg" xmlns:xlink="http://www.w3.org/1999/xlink" x="0px" y="0px"
	 viewBox="0 0 2000 2000" style="enable-background:new 0 0 2000 2000;" xml:space="preserve">
<style type="text/css">
	.st0{fill:#C89C69;}
	.st1{fill:#FFFFFF;}
	.st2{clip-path:url(#SVGID_00000065766821286059927440000017014258708073979304_);}
</style>
<g>
	<g>
		<g>
			<g>
				<g>
					<path class="st0" d="M1000.04,1971.27l-6.46-2.28c-9.75-3.34-240.99-85.77-475.23-342.32
						c-215.5-236-472.42-670.12-472.42-1398.06v-12.34l11.18-5.38c3.51-1.68,356.59-168.16,922.91-168.16l20.15,0.09l19.86-0.09
						c566.28,0,919.45,166.48,922.87,168.16l11.18,5.38v12.34c0,727.95-256.83,1162.07-472.3,1398.06
						c-234.28,256.55-465.57,338.97-475.31,342.32L1000.04,1971.27z M85.24,241.3c3,707.73,252.53,1129.37,462.08,1358.84
						c206.29,225.88,413.83,314.16,452.72,329.33c38.93-15.29,247.9-104.36,454.23-330.98
						c208.85-229.43,457.53-650.72,460.51-1357.17c-63.6-27.55-393.75-159.29-894.75-159.29l-19.86,0.09l-20.15-0.09
						C478.97,82.03,148.83,213.77,85.24,241.3z"/>
				</g>
			</g>
		</g>
		<g>
			<g>
				<g>
					<path class="st0" d="M1000.04,462.73c540.69-3.7,879.58,128.4,907.88,155.12c16.95-119.5,26.49-248.86,26.49-389.24
						c0,0-354.06-170.12-934.37-166.14C419.73,58.49,65.63,228.61,65.63,228.61c0,140.38,9.56,269.74,26.53,389.24
						C120.46,591.12,459.27,459.03,1000.04,462.73z"/>
				</g>
			</g>
		</g>
		<g>
			<g>
				<g>
					<g>
						<polygon class="st1" points="1801.75,339.67 1799.36,374 1826.26,395.4 1792.91,403.7 1780.84,435.9 1762.61,406.73 
							1728.29,405.2 1750.44,378.89 1741.22,345.75 1773.09,358.64 						"/>
					</g>
				</g>
			</g>
		</g>
		<g>
			<g>
				<g>
					<g>
						<polygon class="st1" points="198.3,339.67 200.68,374 173.79,395.4 207.19,403.7 219.24,435.9 237.43,406.73 271.83,405.2 
							249.68,378.89 258.86,345.75 226.97,358.64 						"/>
					</g>
				</g>
			</g>
		</g>
		<g>
			<g>
				<g>
					<path class="st1" d="M459.11,201.93c3.79,21.18,7.46,42.4,11.18,63.59c-18.03,3.14-36.03,6.49-54.02,9.96
						c-1.63-8.49-3.3-17.02-4.98-25.51c-15.42,2.99-30.89,6.12-46.31,9.37c3.47,16.6,6.95,33.17,10.44,49.75
						c19.11-4.02,38.24-7.83,57.38-11.5c2.43,12.73,4.81,25.44,7.28,38.17c-18.92,3.59-37.81,7.36-56.63,11.34
						c2.55,12.1,5.08,24.24,7.63,36.32c10.03-2.12,19.96-4.15,30-6.17c2.57,12.71,5.06,25.42,7.61,38.11
						c-35.99,7.18-71.9,15.08-107.67,23.66c-3.02-12.6-6.06-25.2-9.07-37.79c6.06-1.45,12.09-2.89,18.15-4.29
						c-9.58-41.15-19.21-82.31-28.81-123.45c-6.34,1.47-12.62,2.96-18.92,4.48c-3.02-12.51-5.99-25.01-9.01-37.5
						C334.96,225.67,396.93,212.83,459.11,201.93z"/>
				</g>
			</g>
			<g>
				<g>
					<path class="st1" d="M575.52,183.79c1.77,12.76,3.49,25.48,5.18,38.21c-6.34,0.88-12.79,1.75-19.15,2.65
						c5.99,41.86,11.91,83.69,17.88,125.52c6.12-0.86,12.28-1.72,18.39-2.57c1.75,12.86,3.47,25.68,5.22,38.52
						c-32.38,4.38-64.7,9.35-96.98,14.89c-2.16-12.79-4.32-25.53-6.53-38.31c6.24-1.06,12.4-2.09,18.6-3.13
						c-6.85-41.67-13.7-83.39-20.56-125.08c-6.46,1.06-12.97,2.13-19.47,3.25c-2.16-12.67-4.3-25.33-6.44-38
						C506.19,193.81,540.86,188.51,575.52,183.79z"/>
				</g>
			</g>
			<g>
				<g>
					<path class="st1" d="M803.87,237.51c-15.11,0.94-30.16,1.98-45.19,3.13c-0.98-12.42-1.94-24.86-2.88-37.29
						c-8.73,0.68-17.41,1.39-26.1,2.13c3.59,42.11,7.24,84.21,10.85,126.32c8.22-0.7,16.44-1.37,24.71-2.01
						c0.98,12.9,2,25.83,3.02,38.72c-36.48,2.84-72.9,6.33-109.26,10.54c-1.47-12.87-2.98-25.73-4.45-38.57
						c8.1-0.97,16.19-1.88,24.35-2.73c-4.51-42.03-9.05-84.03-13.54-126.06c-8.89,0.96-17.78,1.96-26.67,2.98
						c1.43,12.4,2.9,24.78,4.3,37.15c-15.01,1.74-30.02,3.6-44.98,5.58c-3.26-25.08-6.61-50.19-9.93-75.3
						c70.19-9.25,140.58-16.04,211.08-20.41C800.71,186.96,802.28,212.24,803.87,237.51z"/>
				</g>
			</g>
			<g>
				<g>
					<path class="st1" d="M1032.16,193.87c-0.77,55.49-1.61,110.98-2.39,166.49c-21.17-0.32-42.23-0.39-63.38-0.23
						c-25.31-36.9-51.59-73.46-78.84-109.67c0.82,24.53,1.63,49.05,2.45,73.56c7.67-0.25,15.37-0.49,23-0.67
						c0.35,12.55,0.65,25.1,0.98,37.66c-30.16,0.79-60.3,2.06-90.36,3.8c-0.8-12.55-1.49-25.09-2.2-37.64
						c5.83-0.31,11.7-0.66,17.58-0.96c-2.22-42.88-4.45-85.76-6.65-128.64c-6.03,0.31-12.03,0.63-18.05,1
						c-0.76-12.56-1.43-25.09-2.16-37.63c30.16-1.74,60.36-3.03,90.5-3.87c26.81,35.02,52.71,70.35,77.65,106.03
						c-0.04-23.17-0.12-46.37-0.16-69.52c-7.06,0.02-14.13,0.06-21.23,0.11c-0.12-12.55-0.24-25.1-0.37-37.66
						c31.67-0.32,63.36-0.13,94.98,0.53c-0.24,12.58-0.53,25.12-0.77,37.67C1045.86,194.1,1039.01,193.97,1032.16,193.87z"/>
				</g>
			</g>
			<g>
				<g>
					<path class="st1" d="M1259.49,167.9c-1.92,21.42-3.83,42.85-5.75,64.3c-17.74-1.59-35.52-3-53.28-4.26
						c0.61-8.65,1.18-17.3,1.85-25.93c-16.62-1.18-33.26-2.24-49.88-3.12c-0.69,13.41-1.39,26.83-2.12,40.24
						c19.45,1.06,38.89,2.32,58.34,3.74c-0.98,12.93-1.91,25.85-2.89,38.76c-19.21-1.41-38.38-2.64-57.57-3.7
						c-0.86,15.84-1.75,31.71-2.61,47.53c15.95,0.89,31.81,1.89,47.74,3c0.65-9.02,1.26-18.06,1.92-27.08
						c17.33,1.2,34.69,2.6,52.02,4.15c-1.96,21.93-3.94,43.85-5.87,65.76c-59.03-5.27-118.19-8.68-177.41-10.25
						c0.35-12.95,0.69-25.89,1.06-38.83c6.26,0.16,12.52,0.35,18.78,0.57c1.43-42.24,2.79-84.49,4.2-126.71
						c-6.57-0.24-13.11-0.43-19.66-0.59c0.35-12.85,0.69-25.7,1.02-38.54C1132.81,158.62,1196.21,162.26,1259.49,167.9z"/>
				</g>
			</g>
			<g>
				<g>
					<path class="st1" d="M1263.01,299.34c18.68,1.75,37.36,3.7,56.02,5.81c-2.71,24.37,21.82,31.34,34.2,33.52
						c10.42,1.33,25.57,1,27.2-11.14c3.14-23.26-113.17-27.02-106.53-100.52c3.92-43.11,49.98-58.27,80.9-54.42
						c26.43,3.14,52.16,14.64,61.48,38.12c2.16-7.97,4.39-15.93,6.59-23.86c17.95,2.57,35.89,5.31,53.81,8.22
						c-3.91,24.11-7.79,48.25-11.71,72.38c-18.37-2.98-36.83-5.8-55.26-8.42c3.08-21.37-13.13-36.11-34.83-38.92
						c-9.01-1.17-22,2.52-23.27,12.69c-3.49,29.14,118.56,39.46,107.06,107.88c-7.53,44.91-52.65,54.16-87.32,49.57
						c-29.44-4-48.33-19.95-58.1-34.31c-1.96,7.32-3.87,14.64-5.75,21.99c-17.13-1.93-34.22-3.7-51.39-5.31
						C1258.42,348.2,1260.75,323.78,1263.01,299.34z"/>
				</g>
			</g>
			<g>
				<g>
					<path class="st1" d="M1476.25,327.34c18.58,3.13,37.05,6.43,55.51,9.92c-4.47,24.09,19.58,32.86,31.79,35.96
						c10.32,2.06,25.49,2.9,28.06-9.11c4.81-22.97-111.26-35.3-99.23-108.12c7.06-42.7,54.22-54.43,84.85-48.32
						c26.25,5.12,51.06,18.47,58.75,42.56c2.75-7.75,5.53-15.51,8.34-23.26c17.74,3.89,35.5,7.94,53.24,12.15
						c-5.69,23.78-11.34,47.55-16.97,71.35c-18.21-4.35-36.48-8.52-54.71-12.49c4.61-21.1-10.5-37.02-32.04-41.41
						c-8.89-1.85-22.23,0.88-24.18,10.93c-5.61,28.78,115.74,48.15,99.23,115.54c-10.83,44.24-56.65,50.11-90.99,42.97
						c-29.18-6.16-46.84-23.5-55.59-38.52c-2.47,7.17-4.93,14.32-7.36,21.5c-16.97-3.17-33.91-6.21-51-9.09
						C1468.07,375.74,1472.13,351.54,1476.25,327.34z"/>
				</g>
			</g>
		</g>
	</g>
	<g>
		<defs>
			<path id="SVGID_1_" d="M1000.16,82.12l-20.15-0.09c-501.05,0-831.19,131.74-894.77,159.27
				c3,707.73,252.53,1129.37,462.08,1358.84c206.29,225.88,413.83,314.16,452.72,329.33c38.93-15.29,247.9-104.36,454.23-330.98
				c208.85-229.43,457.53-650.72,460.51-1357.17c-63.6-27.55-393.75-159.29-894.75-159.29L1000.16,82.12z"/>
		</defs>
		<clipPath id="SVGID_00000156560522613996545250000006165926247558858626_">
			<use xlink:href="#SVGID_1_"  style="overflow:visible;"/>
		</clipPath>
		<g style="clip-path:url(#SVGID_00000156560522613996545250000006165926247558858626_);">
			<g>
				<g>
					<path class="st0" d="M312.84,775.68V652.46c0-6.49,5.22-11.48,11.46-11.48c0.24,0,0.24,0,0.67,0c0,0,0,0,0.18,0h28.85
						c21.88,0,39.62,17.75,39.62,39.66c0,9.01-2.9,17.13-7.91,23.81c12.54,7.95,21.13,21.93,21.13,37.8
						c0,24.86-20.06,44.91-44.72,44.91h-36.97c-0.18,0-0.18-0.22-0.18-0.22c-0.43,0-0.43,0.22-0.67,0.22
						C318.06,787.16,312.84,781.95,312.84,775.68z M336.02,697.56h17.98c9.14,0,16.48-7.72,16.48-16.91
						c0-9.19-7.34-16.49-16.48-16.49h-17.98V697.56z M336.02,763.98h26.1c11.91-0.2,21.51-9.61,21.51-21.73
						c0-11.91-9.61-21.28-21.51-21.52h-26.1V763.98z"/>
				</g>
			</g>
			<g>
				<g>
					<path class="st0" d="M436.94,775.68V652.46c0-6.49,5.02-11.48,11.48-11.48h0.24c0,0,0,0,0.39,0h67.7
						c6.02,0,11.46,4.99,11.46,11.48c0,6.45-5.44,11.69-11.46,11.69h-56.63v38.23h48.67c6.24,0,11.46,5.41,11.46,11.49
						c0,6.46-5.22,11.67-11.46,11.67h-48.67v38.43h56.63c6.02,0,11.46,5.22,11.46,11.7c0,6.27-5.44,11.48-11.46,11.48h-67.7
						c-0.39,0-0.39-0.22-0.39-0.22l-0.24,0.22C441.96,787.16,436.94,781.95,436.94,775.68z"/>
				</g>
			</g>
			<g>
				<g>
					<path class="st0" d="M556.25,750.83c3.75-4.63,10.64-5.23,15.29-1.49c9.16,7.54,25.02,16.29,39.87,16.1
						c10.44,0,19.82-3.14,26.08-7.74c6.28-4.58,8.97-9.81,8.97-15.02c0-2.72-0.63-4.58-1.88-6.7c-1.27-2.08-3.1-4.18-6.24-6.25
						c-6.06-3.98-16.29-7.53-28.61-9.81h-0.41c-9.83-1.88-19.01-4.38-26.96-8.18c-7.93-3.75-14.83-8.96-19.43-16.26
						c-3.1-5.02-4.81-10.87-4.81-17.14c0-12.52,7.14-23.37,16.72-30.49c9.85-7.09,22.57-11.06,36.11-11.06
						c20.06,0,34.87,9.81,45.58,16.72c4.77,3.33,6.24,9.99,2.9,14.82c-3.14,5-9.83,6.46-14.84,3.12
						c-10.62-7.1-20.88-13.36-33.63-13.36c-9.38,0-17.74,2.94-23.37,7.11c-5.65,4.17-7.95,8.76-7.95,13.14
						c0,2.52,0.43,4.17,1.49,5.86c1.02,1.65,2.9,3.53,5.65,5.44c5.38,3.73,14.8,7.08,26.1,9.16h0.41c10.6,2.1,20.45,4.8,28.81,8.78
						c8.57,4.16,16.07,9.62,20.88,17.33c3.14,5.01,5.02,11.28,5.02,17.76c0,13.36-7.5,24.83-17.98,32.35
						c-10.22,7.54-23.76,11.91-38.6,11.91c-22.57-0.2-41.6-11.5-53.49-20.88C553.36,762.3,552.75,755.41,556.25,750.83z"/>
				</g>
			</g>
			<g>
				<g>
					<path class="st0" d="M786.46,664.16h-33.18v111.52c0,6.48-5.02,11.48-11.48,11.48c-6.3,0-11.52-5.01-11.52-11.48V664.16h-32.97
						c-6.46,0-11.48-5.42-11.48-11.69c0-6.49,5.02-11.48,11.48-11.48h89.15c6.26,0,11.46,4.99,11.46,11.48
						C797.92,658.73,792.72,664.16,786.46,664.16z"/>
				</g>
			</g>
		</g>
		<g style="clip-path:url(#SVGID_00000156560522613996545250000006165926247558858626_);">
			<g>
				<g>
					<path class="st0" d="M1239.83,711.98c0.2-41.34,34.85-74.97,76.65-75.18c18.33,0,35.05,6.07,48.23,16.29
						c4.99,4.18,5.83,11.5,2.06,16.7c-4.14,5.23-11.85,6.06-16.7,2.29c-9.18-7.49-20.66-11.49-33.59-11.49
						c-14.44,0-27.81,5.87-37.64,15.06c-9.4,9.61-15.23,22.13-15.23,36.33c0,14.2,5.83,27.14,15.23,36.35
						c9.83,9.19,23.21,15.02,37.64,15.02c12.93,0,24.21-3.95,33.59-11.48c4.85-3.54,12.56-2.71,16.7,2.31
						c3.77,5.22,2.94,12.74-2.06,16.7c-13.17,10.23-29.9,16.29-48.23,16.29C1274.68,787.16,1240.03,753.53,1239.83,711.98z"/>
				</g>
			</g>
			<g>
				<g>
					<path class="st0" d="M1407.39,775.68V652.46c0-6.27,5.02-11.48,11.48-11.48c6.51,0,11.71,5.21,11.71,11.48v111.51h56.59
						c6.08,0,11.5,5.22,11.5,11.7c0,6.27-5.42,11.48-11.5,11.48h-67.66c-0.39,0-0.39,0-0.39,0c-0.24,0-0.24,0-0.24,0
						C1412.4,787.16,1407.39,781.95,1407.39,775.68z"/>
				</g>
			</g>
			<g>
				<g>
					<path class="st0" d="M1581.41,787.16c-33.62,0-60.34-27.14-60.34-60.36v-74.34c0-6.49,4.99-11.48,11.46-11.48
						c6.28,0,11.66,4.99,11.66,11.48v74.34c0,20.48,16.74,37.17,37.21,37.17c20.68,0,37.13-16.69,37.13-37.17v-74.34
						c0-6.49,5.26-11.48,11.71-11.48c6.48,0,11.5,4.99,11.5,11.48v74.34C1641.75,760.02,1614.83,787.16,1581.41,787.16z"/>
				</g>
			</g>
			<g>
				<g>
					<path class="st0" d="M1690.94,775.68V652.46c0-6.49,5.2-11.48,11.48-11.48c0.18,0,0.18,0,0.61,0c0,0,0,0,0.2,0h28.81
						c21.94,0,39.7,17.75,39.7,39.66c0,9.01-2.94,17.13-7.95,23.81c12.56,7.95,21.09,21.93,21.09,37.8
						c0,24.86-19.99,44.91-44.68,44.91h-36.97c-0.2,0-0.2-0.22-0.2-0.22c-0.43,0-0.43,0.22-0.61,0.22
						C1696.14,787.16,1690.94,781.95,1690.94,775.68z M1714.12,697.56h17.92c9.18,0,16.52-7.72,16.52-16.91
						c0-9.19-7.34-16.49-16.52-16.49h-17.92V697.56z M1714.12,763.98h26.08c11.91-0.2,21.55-9.61,21.55-21.73
						c0-11.91-9.65-21.28-21.55-21.52h-26.08V763.98z"/>
				</g>
			</g>
		</g>
		<g style="clip-path:url(#SVGID_00000156560522613996545250000006165926247558858626_);">
			<g>
				<g>
					<g>
						<path class="st0" d="M1056.75,961.95c4.89,66.32,7.18,132.68,9.1,199.03c2.16,66.34,2.47,132.71,2.73,199.02
							c-0.22,66.36-0.57,132.73-2.69,199.06l-3.34,99.51c-1.96,33.16-3.12,66.35-5.79,99.51c-2.65-33.16-3.83-66.35-5.79-99.51
							l-3.35-99.51c-2.1-66.33-2.45-132.71-2.69-199.06c0.29-66.31,0.59-132.69,2.73-199.02
							C1049.57,1094.63,1051.86,1028.27,1056.75,961.95z"/>
					</g>
				</g>
				<g>
					<g>
						<path class="st0" d="M850.67,989.05c21.88,62.82,41.25,126.32,60.3,189.92c19.27,63.54,36.73,127.51,54.18,191.52
							c16.95,64.19,33.79,128.35,48.92,192.97l22.55,97.02c6.67,32.55,14.13,64.89,20.13,97.62
							c-11.17-31.34-20.88-63.09-31.36-94.62l-28.94-95.27c-19.29-63.54-36.77-127.53-54.14-191.56
							c-16.93-64.17-33.81-128.37-48.88-192.99C878.1,1119.1,863.11,1054.42,850.67,989.05z"/>
					</g>
				</g>
				<g>
					<g>
						<path class="st0" d="M658.7,1068.57c37.38,55.04,72.55,111.36,107.34,167.82c35.05,56.43,68.52,113.7,101.96,171.05
							c32.89,57.57,65.8,115.19,97.15,173.7l46.88,87.85c14.89,29.73,30.47,59.05,44.72,89.11c-18.92-27.39-36.5-55.53-54.79-83.28
							l-52.59-84.52c-35.06-56.4-68.52-113.7-101.92-171.01c-32.91-57.61-65.8-115.25-97.11-173.78
							C718.8,1187.08,687.6,1128.5,658.7,1068.57z"/>
					</g>
				</g>
				<g>
					<g>
						<path class="st0" d="M493.79,1195.12c50.37,43.47,98.9,88.76,147.15,134.32c48.45,45.39,95.58,92.09,142.7,138.79
							c46.72,47.12,93.46,94.23,138.85,142.66l68.01,72.74c22.02,24.84,44.72,49.12,66.25,74.47
							c-25.37-21.53-49.61-44.21-74.49-66.25l-72.7-68.05c-48.45-45.39-95.58-92.07-142.7-138.81
							c-46.68-47.11-93.37-94.23-138.77-142.72C582.54,1294.02,537.23,1245.51,493.79,1195.12z"/>
					</g>
				</g>
				<g>
					<g>
						<path class="st0" d="M367.26,1359.97c59.85,28.98,118.5,60.16,176.9,91.7c58.57,31.28,116.17,64.19,173.74,97.13
							c57.36,33.4,114.66,66.84,171.05,101.88l84.54,52.65c27.73,18.29,55.89,35.87,83.26,54.77
							c-30.08-14.25-59.36-29.83-89.11-44.74l-87.81-46.9c-58.54-31.3-116.17-64.17-173.76-97.17
							c-57.3-33.4-114.64-66.84-171.01-101.9C478.58,1432.56,422.26,1397.41,367.26,1359.97z"/>
					</g>
				</g>
				<g>
					<g>
						<path class="st0" d="M287.71,1552c65.38,12.46,130.06,27.41,194.64,42.76c64.62,15.09,128.77,31.98,192.99,48.86
							c63.99,17.43,128,34.91,191.52,54.14l95.31,28.97c31.51,10.48,63.26,20.19,94.58,31.36c-32.75-5.97-65.09-13.48-97.63-20.15
							l-96.94-22.55c-64.66-15.09-128.83-31.98-192.99-48.88c-64.01-17.48-128-34.93-191.54-54.2
							C414.02,1593.31,350.54,1573.92,287.71,1552z"/>
					</g>
				</g>
				<g>
					<g>
						<path class="st0" d="M260.61,1758.1c66.31-4.87,132.71-7.18,199.02-9.07c66.34-2.18,132.69-2.47,199.06-2.77
							c66.34,0.27,132.69,0.57,198.98,2.73l99.55,3.32c33.18,1.96,66.34,3.1,99.51,5.79c-33.18,2.69-66.33,3.85-99.51,5.83
							l-99.55,3.3c-66.29,2.14-132.65,2.45-198.98,2.71c-66.38-0.27-132.73-0.59-199.06-2.75
							C393.32,1765.27,326.93,1762.99,260.61,1758.1z"/>
					</g>
				</g>
				<g>
					<g>
						<path class="st0" d="M287.71,1964.17c62.83-21.9,126.31-41.31,189.93-60.28c63.54-19.31,127.53-36.77,191.54-54.24
							c64.15-16.88,128.33-33.73,192.99-48.86l96.94-22.53c32.54-6.71,64.89-14.15,97.63-20.17
							c-31.32,11.18-63.07,20.88-94.58,31.38l-95.31,28.98c-63.52,19.21-127.53,36.7-191.52,54.12
							c-64.21,16.91-128.37,33.79-192.99,48.88C417.77,1936.77,353.09,1951.72,287.71,1964.17z"/>
					</g>
				</g>
				<g>
					<g>
						<path class="st0" d="M367.26,2156.23c55-37.42,111.32-72.6,167.8-107.4c56.36-35.06,113.7-68.48,171.01-101.94
							c57.59-32.93,115.21-65.82,173.76-97.15l87.81-46.9c29.75-14.89,59.03-30.49,89.11-44.74
							c-27.36,18.92-55.53,36.52-83.26,54.81l-84.54,52.63c-56.38,35.03-113.68,68.5-171.05,101.9
							c-57.57,32.89-115.17,65.8-173.74,97.11C485.76,2096.09,427.11,2127.29,367.26,2156.23z"/>
					</g>
				</g>
				<g>
					<g>
						<path class="st0" d="M493.79,2321.09c43.44-50.39,88.75-98.92,134.3-147.19c45.39-48.45,92.09-95.56,138.77-142.68
							c47.13-46.76,94.25-93.46,142.7-138.81l72.7-68.05c24.88-22.08,49.12-44.72,74.49-66.27c-21.53,25.37-44.23,49.63-66.25,74.49
							l-68.01,72.7c-45.39,48.43-92.13,95.6-138.85,142.68c-47.12,46.72-94.25,93.4-142.7,138.79
							C592.69,2232.31,544.16,2277.62,493.79,2321.09z"/>
					</g>
				</g>
				<g>
					<g>
						<path class="st0" d="M658.7,2447.6c28.9-59.87,60.1-118.5,91.64-176.9c31.3-58.54,64.19-116.13,97.11-173.74
							c33.4-57.38,66.86-114.64,101.92-171.05l52.59-84.5c18.29-27.79,35.87-55.91,54.79-83.32c-14.25,30.1-29.83,59.4-44.72,89.11
							l-46.88,87.83c-31.34,58.53-64.25,116.17-97.15,173.76c-33.44,57.32-66.91,114.6-101.96,170.99
							C731.26,2336.29,696.08,2392.61,658.7,2447.6z"/>
					</g>
				</g>
				<g>
					<g>
						<path class="st0" d="M850.67,2527.11c12.48-65.31,27.43-130.02,42.8-194.58c15.03-64.64,31.91-128.82,48.84-193.01
							c17.37-64.01,34.89-128,54.14-191.5l28.94-95.31c10.48-31.52,20.19-63.25,31.36-94.62c-5.99,32.73-13.46,65.09-20.13,97.64
							l-22.55,96.98c-15.13,64.66-31.98,128.8-48.88,192.97c-17.46,64.01-34.91,128-54.22,191.52
							C891.96,2400.8,872.61,2464.3,850.67,2527.11z"/>
					</g>
				</g>
				<g>
					<g>
						<path class="st0" d="M1056.75,2554.27c-4.89-66.38-7.18-132.71-9.09-199.09c-2.14-66.31-2.45-132.67-2.73-199
							c0.24-66.36,0.59-132.71,2.69-199.03l3.35-99.55c1.96-33.14,3.14-66.33,5.79-99.51c2.67,33.18,3.83,66.38,5.79,99.51
							l3.34,99.55c2.12,66.31,2.47,132.67,2.69,199.03c-0.27,66.33-0.57,132.69-2.73,199
							C1063.93,2421.56,1061.64,2487.9,1056.75,2554.27z"/>
					</g>
				</g>
				<g>
					<g>
						<path class="st0" d="M1262.83,2527.11c-21.86-62.81-41.29-126.31-60.3-189.91c-19.25-63.52-36.69-127.51-54.16-191.52
							c-16.97-64.17-33.81-128.3-48.94-192.97l-22.55-96.98c-6.65-32.55-14.13-64.91-20.13-97.64
							c11.18,31.36,20.88,63.09,31.38,94.62l28.94,95.31c19.29,63.5,36.75,127.49,54.18,191.5
							c16.88,64.19,33.77,128.37,48.84,193.01C1235.44,2397.09,1250.35,2461.8,1262.83,2527.11z"/>
					</g>
				</g>
				<g>
					<g>
						<path class="st0" d="M1454.8,2447.58c-37.42-55.02-72.59-111.34-107.38-167.82c-35.06-56.38-68.5-113.68-101.92-171
							c-32.93-57.59-65.82-115.19-97.13-173.72l-46.9-87.83c-14.87-29.71-30.46-59.01-44.72-89.11
							c18.92,27.41,36.52,55.53,54.79,83.3l52.61,84.5c35.03,56.4,68.46,113.69,101.88,171.01
							c32.91,57.61,65.84,115.23,97.11,173.76C1394.66,2329.09,1425.84,2387.69,1454.8,2447.58z"/>
					</g>
				</g>
				<g>
					<g>
						<path class="st0" d="M1619.69,2321.01c-50.37-43.44-98.9-88.72-147.17-134.3c-48.43-45.39-95.56-92.07-142.68-138.75
							c-46.72-47.12-93.42-94.25-138.81-142.68l-68.01-72.7c-22.09-24.86-44.72-49.13-66.28-74.49
							c25.39,21.55,49.63,44.19,74.51,66.25l72.7,68.07c48.39,45.35,95.52,92.05,142.64,138.79
							c46.68,47.12,93.39,94.21,138.77,142.68C1530.94,2222.15,1576.25,2270.66,1619.69,2321.01z"/>
					</g>
				</g>
				<g>
					<g>
						<path class="st0" d="M1746.2,2156.14c-59.89-28.94-118.48-60.11-176.88-91.66c-58.57-31.28-116.15-64.2-173.76-97.09
							c-57.34-33.4-114.6-66.86-171-101.88l-84.53-52.65c-27.73-18.25-55.89-35.87-83.28-54.77c30.08,14.25,59.38,29.83,89.11,44.72
							l87.81,46.9c58.54,31.28,116.15,64.19,173.72,97.11c57.34,33.46,114.62,66.91,171.01,101.92
							C1634.94,2083.55,1691.2,2118.7,1746.2,2156.14z"/>
					</g>
				</g>
				<g>
					<g>
						<path class="st0" d="M1825.81,1964.11c-65.4-12.46-130.06-27.39-194.66-42.7c-64.62-15.09-128.81-31.95-192.95-48.86
							c-64.01-17.43-128.02-34.91-191.56-54.14l-95.25-28.94c-31.53-10.5-63.3-20.21-94.64-31.38
							c32.75,6.02,65.11,13.46,97.62,20.17l97,22.53c64.64,15.09,128.82,31.95,192.95,48.86c64.01,17.45,128.04,34.91,191.56,54.2
							C1699.48,1922.82,1762.96,1942.23,1825.81,1964.11z"/>
					</g>
				</g>
				<g>
					<g>
						<path class="st0" d="M1852.93,1758.1c-66.38,4.89-132.71,7.18-199.04,9.09c-66.35,2.16-132.71,2.49-199.04,2.75
							c-66.38-0.27-132.67-0.57-199.03-2.71l-99.53-3.3c-33.18-1.98-66.35-3.14-99.53-5.83c33.18-2.69,66.36-3.83,99.53-5.79
							l99.53-3.32c66.36-2.16,132.65-2.47,199.03-2.73c66.33,0.31,132.69,0.59,199.04,2.77
							C1720.22,1750.92,1786.55,1753.22,1852.93,1758.1z"/>
					</g>
				</g>
				<g>
					<g>
						<path class="st0" d="M1825.81,1552.06c-62.85,21.88-126.33,41.29-189.93,60.28c-63.52,19.27-127.55,36.73-191.56,54.2
							c-64.13,16.93-128.31,33.77-192.95,48.86l-97,22.57c-32.5,6.65-64.87,14.15-97.62,20.13c31.34-11.18,63.11-20.86,94.64-31.36
							l95.25-28.97c63.54-19.23,127.55-36.69,191.56-54.12c64.13-16.88,128.33-33.79,192.95-48.86
							C1695.75,1579.44,1760.41,1564.5,1825.81,1552.06z"/>
					</g>
				</g>
				<g>
					<g>
						<path class="st0" d="M1746.2,1360.03c-55,37.42-111.26,72.57-167.8,107.4c-56.38,35.03-113.66,68.48-171.01,101.92
							c-57.57,32.93-115.17,65.85-173.72,97.13l-87.81,46.88c-29.73,14.91-59.03,30.49-89.11,44.74
							c27.39-18.9,55.55-36.48,83.28-54.77l84.53-52.63c56.4-35.05,113.66-68.49,171-101.9c57.61-32.91,115.19-65.8,173.76-97.11
							C1627.72,1420.14,1686.31,1388.96,1746.2,1360.03z"/>
					</g>
				</g>
				<g>
					<g>
						<path class="st0" d="M1619.69,1195.12c-43.43,50.39-88.75,98.9-134.32,147.15c-45.37,48.49-92.09,95.62-138.77,142.72
							c-47.12,46.74-94.25,93.41-142.64,138.81l-72.7,68.05c-24.88,22.04-49.12,44.72-74.51,66.25
							c21.56-25.35,44.19-49.63,66.28-74.47l68.01-72.74c45.39-48.43,92.09-95.54,138.81-142.66
							c47.12-46.7,94.25-93.4,142.68-138.79C1520.79,1283.88,1569.32,1238.59,1619.69,1195.12z"/>
					</g>
				</g>
				<g>
					<g>
						<path class="st0" d="M1454.8,1068.63c-28.96,59.89-60.13,118.48-91.66,176.88c-31.26,58.55-64.19,116.17-97.11,173.78
							c-33.42,57.32-66.84,114.6-101.88,171.01l-52.61,84.52c-18.27,27.75-35.87,55.89-54.79,83.28
							c14.26-30.06,29.85-59.38,44.72-89.09l46.9-87.85c31.3-58.5,64.19-116.11,97.13-173.72
							c33.42-57.34,66.86-114.62,101.92-170.98C1382.2,1179.93,1417.38,1123.62,1454.8,1068.63z"/>
					</g>
				</g>
				<g>
					<g>
						<path class="st0" d="M1262.83,989.05c-12.48,65.37-27.39,130.05-42.74,194.61c-15.07,64.62-31.95,128.82-48.84,192.99
							c-17.43,64.03-34.89,128.02-54.18,191.56l-28.94,95.27c-10.5,31.53-20.21,63.28-31.38,94.62
							c5.99-32.73,13.48-65.07,20.13-97.62l22.55-97.02c15.13-64.62,31.97-128.77,48.94-192.97
							c17.48-64.01,34.91-127.98,54.16-191.52C1221.54,1115.37,1240.97,1051.87,1262.83,989.05z"/>
					</g>
				</g>
				<g>
					<g>
						<path class="st0" d="M966.86,1075.68c12.34,56.22,22.09,112.77,31.47,169.39c9.67,56.63,17.45,113.44,25.25,170.29
							c7.22,56.87,14.37,113.77,19.76,170.93l7.95,85.75c1.8,28.67,4.41,57.26,5.46,86.05c-6.4-28.08-11.3-56.36-17.01-84.53
							l-14.48-84.87c-9.65-56.63-17.43-113.44-25.22-170.25c-7.18-56.91-14.38-113.83-19.7-170.99
							C974.73,1190.33,969.49,1133.17,966.86,1075.68z"/>
					</g>
				</g>
				<g>
					<g>
						<path class="st0" d="M793.31,1122.16c26.47,51.12,50.55,103.24,74.27,155.51c23.98,52.18,46.17,105.06,68.37,157.95
							c21.74,53.08,43.41,106.18,63.4,160.04l29.87,80.73c9.14,27.26,19.05,54.2,27.53,81.71c-13.46-25.47-25.49-51.53-38.3-77.26
							l-35.95-78.22c-23.98-52.16-46.23-105.04-68.39-157.93c-21.7-53.12-43.37-106.22-63.32-160.05
							C830.61,1230.91,810.77,1177.03,793.31,1122.16z"/>
					</g>
				</g>
				<g>
					<g>
						<path class="st0" d="M637.7,1212.02c38.81,42.54,75.55,86.63,111.99,131c36.64,44.17,71.78,89.5,106.93,134.83
							c34.73,45.66,69.39,91.38,102.61,138.18l49.74,70.29c15.95,23.92,32.48,47.39,47.78,71.78c-19.58-21.13-37.99-43.17-57-64.7
							l-54.99-66.27c-36.6-44.19-71.82-89.52-106.92-134.85c-34.71-45.68-69.37-91.37-102.59-138.19
							C701.83,1307.4,668.76,1260.49,637.7,1212.02z"/>
					</g>
				</g>
				<g>
					<g>
						<path class="st0" d="M510.68,1339.06c48.51,31.04,95.39,64.13,142.07,97.55c46.8,33.2,92.5,67.88,138.18,102.53
							c45.35,35.16,90.68,70.33,134.85,106.98l66.23,55c21.58,18.99,43.64,37.38,64.74,56.97c-24.39-15.36-47.82-31.87-71.8-47.76
							l-70.27-49.76c-46.84-33.22-92.5-67.88-138.18-102.61c-45.31-35.13-90.64-70.29-134.85-106.96
							C597.34,1414.6,553.2,1377.87,510.68,1339.06z"/>
					</g>
				</g>
				<g>
					<g>
						<path class="st0" d="M420.81,1494.71c54.87,17.41,108.77,37.28,162.44,57.44c53.85,19.96,106.95,41.6,160.08,63.3
							c52.88,22.21,105.75,44.44,157.93,68.38l78.22,35.97c25.78,12.83,51.82,24.82,77.26,38.3c-27.53-8.5-54.42-18.39-81.71-27.51
							l-80.75-29.94c-53.82-19.92-106.93-41.6-160.06-63.28c-52.88-22.25-105.71-44.47-157.87-68.41
							C524.06,1545.25,471.96,1521.18,420.81,1494.71z"/>
					</g>
				</g>
				<g>
					<g>
						<path class="st0" d="M374.32,1668.19c57.55,2.67,114.68,7.89,171.8,13.5c57.14,5.32,114.05,12.52,170.96,19.72
							c56.83,7.77,113.66,15.58,170.23,25.2l84.87,14.5c28.22,5.69,56.49,10.56,84.56,16.99c-28.79-1.06-57.36-3.67-86.09-5.49
							l-85.71-7.95c-57.14-5.32-114.05-12.52-170.96-19.74c-56.83-7.81-113.66-15.62-170.21-25.25
							C487.17,1690.33,430.58,1680.59,374.32,1668.19z"/>
					</g>
				</g>
				<g>
					<g>
						<path class="st0" d="M374.32,1847.9c56.26-12.34,112.85-22.08,169.46-31.44c56.55-9.65,113.38-17.43,170.21-25.2
							c56.91-7.22,113.83-14.4,170.96-19.74l85.71-7.93c28.73-1.81,57.3-4.39,86.09-5.49c-28.08,6.4-56.34,11.3-84.56,16.97
							l-84.87,14.54c-56.57,9.6-113.4,17.39-170.23,25.14c-56.91,7.18-113.83,14.38-170.96,19.74
							C489,1840.05,431.87,1845.29,374.32,1847.9z"/>
					</g>
				</g>
				<g>
					<g>
						<path class="st0" d="M420.81,2021.52c51.14-26.47,103.24-50.53,155.55-74.25c52.16-23.94,105-46.17,157.87-68.44
							c53.12-21.68,106.24-43.33,160.06-63.3l80.75-29.9c27.29-9.11,54.18-19.05,81.71-27.55c-25.45,13.46-51.49,25.51-77.26,38.32
							l-78.22,35.99c-52.18,23.94-105.06,46.15-157.93,68.35c-53.12,21.7-106.22,43.33-160.08,63.3
							C529.58,1984.26,475.69,2004.1,420.81,2021.52z"/>
					</g>
				</g>
				<g>
					<g>
						<path class="st0" d="M510.68,2177.13c42.52-38.83,86.67-75.57,130.98-111.97c44.21-36.67,89.54-71.82,134.85-106.96
							c45.68-34.71,91.34-69.37,138.18-102.59l70.27-49.76c23.98-15.88,47.41-32.42,71.8-47.76c-21.1,19.6-43.17,37.97-64.74,57
							l-66.23,55c-44.17,36.62-89.5,71.78-134.85,106.93c-45.68,34.66-91.38,69.35-138.18,102.51
							C606.07,2112.97,559.19,2146.07,510.68,2177.13z"/>
					</g>
				</g>
				<g>
					<g>
						<path class="st0" d="M637.7,2304.17c31.06-48.49,64.13-95.39,97.55-142.05c33.22-46.82,67.88-92.52,102.59-138.21
							c35.1-45.33,70.31-90.62,106.92-134.83l54.99-66.23c19.01-21.55,37.42-43.62,57-64.74c-15.29,24.39-31.83,47.86-47.78,71.8
							l-49.74,70.29c-33.22,46.8-67.88,92.5-102.61,138.18c-35.15,45.29-70.29,90.64-106.93,134.83
							C713.25,2217.52,676.51,2261.65,637.7,2304.17z"/>
					</g>
				</g>
				<g>
					<g>
						<path class="st0" d="M793.35,2393.99c17.41-54.85,37.28-108.75,57.44-162.44c19.98-53.81,41.62-106.93,63.32-160.03
							c22.21-52.88,44.41-105.75,68.39-157.93l35.95-78.2c12.81-25.78,24.84-51.8,38.3-77.29c-8.48,27.51-18.39,54.47-27.53,81.71
							l-29.87,80.77c-19.98,53.84-41.66,106.92-63.36,159.98c-22.25,52.9-44.43,105.77-68.37,157.95
							C843.86,2290.77,819.82,2342.89,793.35,2393.99z"/>
					</g>
				</g>
				<g>
					<g>
						<path class="st0" d="M966.86,2440.51c2.63-57.5,7.87-114.66,13.48-171.8c5.32-57.14,12.52-114.05,19.7-170.92
							c7.79-56.85,15.58-113.66,25.22-170.29l14.48-84.85c5.71-28.16,10.6-56.46,17.01-84.54c-1.06,28.77-3.67,57.38-5.46,86.07
							l-7.95,85.73c-5.39,57.14-12.54,114.05-19.76,170.99c-7.79,56.83-15.58,113.62-25.25,170.23
							C988.95,2327.72,979.2,2384.29,966.86,2440.51z"/>
					</g>
				</g>
				<g>
					<g>
						<path class="st0" d="M1146.6,2440.51c-12.32-56.22-22.13-112.79-31.48-169.39c-9.65-56.61-17.44-113.42-25.18-170.23
							c-7.24-56.93-14.42-113.85-19.74-170.99l-7.95-85.73c-1.79-28.69-4.42-57.3-5.49-86.07c6.4,28.08,11.32,56.38,17.01,84.54
							l14.5,84.85c9.63,56.63,17.41,113.44,25.16,170.29c7.18,56.87,14.38,113.79,19.72,170.92
							C1138.73,2325.85,1143.95,2383,1146.6,2440.51z"/>
					</g>
				</g>
				<g>
					<g>
						<path class="st0" d="M1320.17,2393.99c-26.49-51.1-50.53-103.22-74.23-155.49c-23.98-52.18-46.23-105.06-68.44-157.95
							c-21.7-53.06-43.35-106.14-63.34-159.98l-29.83-80.77c-9.18-27.24-19.09-54.2-27.59-81.71
							c13.48,25.49,25.51,51.51,38.32,77.29l35.95,78.2c23.98,52.18,46.19,105.06,68.37,157.93
							c21.68,53.1,43.37,106.22,63.32,160.03C1282.87,2285.24,1302.74,2339.14,1320.17,2393.99z"/>
					</g>
				</g>
				<g>
					<g>
						<path class="st0" d="M1475.78,2304.17c-38.76-42.58-75.53-86.67-111.95-131c-36.64-44.19-71.82-89.52-106.96-134.85
							c-34.71-45.66-69.37-91.36-102.59-138.13l-49.8-70.29c-15.87-23.94-32.42-47.41-47.74-71.8c19.6,21.13,37.95,43.17,57,64.74
							l55,66.23c36.6,44.19,71.78,89.5,106.91,134.83c34.67,45.7,69.39,91.39,102.55,138.2
							C1411.63,2208.77,1444.72,2255.66,1475.78,2304.17z"/>
					</g>
				</g>
				<g>
					<g>
						<path class="st0" d="M1602.8,2177.13c-48.49-31.06-95.37-64.15-142.03-97.59c-46.84-33.16-92.52-67.85-138.22-102.51
							c-45.31-35.16-90.64-70.31-134.87-106.93l-66.23-55c-21.53-19.02-43.6-37.4-64.7-57c24.41,15.34,47.82,31.87,71.8,47.76
							l70.27,49.76c46.8,33.22,92.48,67.88,138.2,102.59c45.31,35.13,90.62,70.29,134.77,106.96
							C1516.16,2101.55,1560.26,2138.3,1602.8,2177.13z"/>
					</g>
				</g>
				<g>
					<g>
						<path class="st0" d="M1692.67,2021.52c-54.87-17.41-108.77-37.25-162.48-57.46c-53.82-19.96-106.93-41.6-160.04-63.3
							c-52.85-22.21-105.73-44.41-157.94-68.35l-78.22-35.99c-25.74-12.81-51.77-24.86-77.25-38.32
							c27.55,8.5,54.49,18.43,81.71,27.55l80.77,29.9c53.77,19.96,106.89,41.62,159.99,63.3c52.9,22.27,105.77,44.5,157.91,68.44
							C1589.45,1970.99,1641.55,1995.05,1692.67,2021.52z"/>
					</g>
				</g>
				<g>
					<g>
						<path class="st0" d="M1739.18,1847.9c-57.53-2.61-114.68-7.85-171.78-13.42c-57.16-5.36-114.07-12.56-170.99-19.74
							c-56.83-7.75-113.66-15.54-170.25-25.14l-84.87-14.54c-28.18-5.67-56.47-10.56-84.55-16.97c28.79,1.1,57.38,3.67,86.05,5.49
							l85.75,7.93c57.14,5.34,114.05,12.52,170.96,19.74c56.83,7.77,113.66,15.56,170.27,25.2
							C1626.37,1825.82,1682.96,1835.57,1739.18,1847.9z"/>
					</g>
				</g>
				<g>
					<g>
						<path class="st0" d="M1739.18,1668.19c-56.22,12.4-112.81,22.15-169.39,31.48c-56.61,9.63-113.44,17.44-170.27,25.25
							c-56.91,7.22-113.83,14.42-170.96,19.74l-85.75,7.95c-28.67,1.81-57.26,4.42-86.05,5.49c28.08-6.42,56.36-11.3,84.55-16.99
							l84.87-14.5c56.59-9.63,113.42-17.44,170.25-25.2c56.91-7.2,113.83-14.4,170.99-19.72
							C1624.5,1676.08,1681.66,1670.86,1739.18,1668.19z"/>
					</g>
				</g>
				<g>
					<g>
						<path class="st0" d="M1692.67,1494.71c-51.12,26.47-103.22,50.53-155.53,74.25c-52.14,23.94-105.02,46.17-157.91,68.41
							c-53.1,21.68-106.22,43.35-159.99,63.28l-80.77,29.94c-27.22,9.11-54.16,19.01-81.71,27.51
							c25.47-13.48,51.51-25.47,77.25-38.3l78.22-35.97c52.2-23.94,105.08-46.17,157.94-68.38c53.1-21.7,106.22-43.33,160.04-63.3
							C1583.9,1531.99,1637.79,1512.13,1692.67,1494.71z"/>
					</g>
				</g>
				<g>
					<g>
						<path class="st0" d="M1602.8,1339.11c-42.54,38.81-86.64,75.53-131.02,111.95c-44.15,36.64-89.46,71.78-134.77,106.91
							c-45.72,34.73-91.4,69.41-138.2,102.61l-70.27,49.76c-23.98,15.88-47.39,32.42-71.8,47.76c21.11-19.6,43.17-37.99,64.7-56.97
							l66.23-55c44.23-36.62,89.56-71.82,134.87-106.91c45.7-34.67,91.38-69.37,138.22-102.55
							C1507.43,1403.22,1554.31,1370.12,1602.8,1339.11z"/>
					</g>
				</g>
				<g>
					<g>
						<path class="st0" d="M1475.78,1212.02c-31.06,48.47-64.15,95.37-97.57,142.05c-33.16,46.82-67.88,92.52-102.55,138.19
							c-35.13,45.33-70.31,90.66-106.91,134.85l-55,66.27c-19.05,21.53-37.4,43.58-57,64.7c15.31-24.39,31.87-47.86,47.74-71.78
							l49.8-70.29c33.22-46.8,67.84-92.52,102.59-138.18c35.13-45.33,70.31-90.66,106.96-134.83
							C1400.25,1298.65,1437.02,1254.56,1475.78,1212.02z"/>
					</g>
				</g>
				<g>
					<g>
						<path class="st0" d="M1320.17,1122.16c-17.44,54.88-37.3,108.75-57.46,162.46c-19.94,53.83-41.64,106.93-63.32,160.05
							c-22.19,52.9-44.39,105.77-68.37,157.93l-35.95,78.22c-12.81,25.73-24.84,51.8-38.32,77.26c8.5-27.51,18.42-54.45,27.59-81.71
							l29.83-80.73c19.99-53.85,41.64-106.96,63.34-160.04c22.21-52.9,44.45-105.77,68.44-157.95
							C1269.64,1225.4,1293.68,1173.28,1320.17,1122.16z"/>
					</g>
				</g>
				<g>
					<g>
						<path class="st0" d="M1146.6,1075.68c-2.65,57.47-7.87,114.64-13.46,171.76c-5.34,57.18-12.54,114.09-19.72,171.01
							c-7.75,56.81-15.54,113.62-25.16,170.25l-14.5,84.87c-5.69,28.16-10.6,56.45-17.01,84.53c1.06-28.79,3.69-57.38,5.49-86.05
							l7.95-85.75c5.32-57.16,12.5-114.05,19.74-170.99c7.75-56.79,15.54-113.62,25.18-170.23
							C1124.47,1188.45,1134.28,1131.9,1146.6,1075.68z"/>
					</g>
				</g>
			</g>
			<g>
				<path class="st0" d="M1500.66,883.6c-19.7-13.05-43.17-20.77-68.33-20.77c-2.69,0-5.43,0.08-8.18,0.25
					c-33.04,2.19-63.32,17.13-85.22,42.1c-21.86,24.97-32.71,56.95-30.57,89.98c2.12,32.51,16.78,61.51,38.97,82.39
					c-9.42,11.85-20.51,23.23-32.1,29.55c-9.4,5.18-18.02,10.73-25.71,16.17c-4.08-54.69-53.57-101.86-69.94-116.03
					c-6.34-31.98-24.55-56.61-52.28-73.07l-0.43-0.63l-3.49-1.9c-1.53-0.84-3.22-1.28-4.79-2.06c-3.38-1.67-6.69-3.46-10.28-4.9
					c-15.46-13.52-33.87-20.17-51.81-26.58c-5.83-2.07-11.5-4.19-17.09-6.42c1.75-5.24,2.94-10.05,3.55-13.8
					c1.35,0.06,2.73,0.12,4.24,0.21c1.55,0.07,2.98,0.15,4.65,0.28c1.51,0.1,3.18,0.1,4.69,0.2c3.3,0.18,6.53,0.43,9.87,0.52V879
					c2.04,0.06,4,0.24,5.99,0.24c11.72,0,20.53-1.28,27.75-4.05c10.52-4.02,17.98-11.34,21.57-21.19
					c4.89-13.48,0.94-27.09-2.04-34.34c0.12-0.09,0.2-0.19,0.33-0.31c7.28-6.91,9.16-15.78,7.55-23.86
					c1.96-3.85,2.98-8.41,2.32-13.67c12.05-4.58,16.6-12.3,18.25-18.08c4.22-14.55-5.34-28.01-16.41-41.67
					c-9.56-11.84-11.87-22.46-9.1-26.5c9.87-14.51,5.22-28.3,1.8-38.36c-1.67-4.86-3.2-9.43-3.59-14.39
					c-1.1-13.49-5.79-28.01-11.95-40.03c16.6-35.21-7.26-82.56-10.34-88.47l-21.23-40.08l-9.89,44.24c-2,8.87-36.81,8.87-49.94,8.87
					l-32.26-0.17c-22.21,0-48.45,0.63-74.47,5.32c-31.49,5.69-56.47,23.43-72.37,51.3c-21.55,37.88-21.96,88.43-11.4,116.76
					c2.65,7.12,5.71,14.56,8.89,22.21c8.71,21.01,17.97,43.93,20.49,65.22l-8.97-2.73l8.26,26.13c-0.14,0.67-0.23,1.33-0.39,2
					c-7.57,10.28-16.72,16.3-29.63,19.97l-2.85,0.72c-5.42,1.42-11.66,2.33-17.99,3.07c-1.26,0.16-2.53,0.33-3.87,0.45
					c-6.18,0.63-12.48,1.1-18.35,1.44l-1.96,0.15c-5.89,0.34-12.13,0.63-18.92,0.94l-6.93,0.33c-6.1,0.27-11.83,1.16-17.52,2.03
					l-5.36,0.41l-0.12-1.48l-3.2,1.73l-1.45,0.12l0.61,0.35l-1.79,0.97c-48.55,10.95-80.79,40.75-92.58,51.77l-18.11,16.93
					l3.51,1.62c-15.99,20.08-32.36,48.57-48.84,91c-12.99,6.54-42.56,22.82-59.28,43.58c-12.93,15.93-21.64,44.45-29.34,69.58
					c-4.08,13.27-9.67,31.44-12.85,35.6c-1.47,1.82-3.63,4.06-6.2,6.73c-18.17,19.19-60.75,64.11-27.71,128.83
					c15.78,30.95,60.32,79.79,107.51,131.51c24.57,26.96,50.69,55.59,71.9,81.08c-24.74,24.43-39.23,59.01-36.81,96.41
					c4.32,65.03,58.71,116.01,123.92,116.01c0.37,0,0.71-0.04,1.06-0.04c10.2,2.92,20.72,4.93,31.77,4.93
					c2.59,0,5.14-0.08,7.73-0.24c27.86-1.79,52.47-13.66,71.47-31.3c0.2,0.22,0.37,0.51,0.53,0.77
					c-10.68,53.38-18.43,125.92-7.99,204.88c2.16,16.86,4.28,31.51,6.16,44.29c8.07,55.57,8.75,67.17-1.88,75.33
					c-28.81,22.31-86.67,119.8-94.58,212.3c-7.1,83.38-38.28,90.91-38.6,90.99c-8,0.96-43.07,10.71-56.3,37.48
					c-5.47,11.03-9.14,28.98,4.34,51.88c23.49,39.87,31.57,59.2,42.78,85.93l3.18,7.71c9.54,22.61,26.82,33.61,52.8,33.61
					c10.24,0,21.1-1.49,33.67-3.18l12.56-1.67c52.55-6.46,64.68-15.13,67.93-27.96c0.79-3.22,2.51-14.32-9.42-22.86
					c-9.87-7.06-25.69-8.85-46.96-10.58c-2.57-0.22-4.94-0.39-7.02-0.55c-6.08-15.82-18.11-52.18-19.25-63.32
					c7.22-14.37,42.96-77.65,65.07-100.1c26.63-27.16,82.02-113.58,85.24-118.84c17.62-35.44,49.33-96.23,59.61-108.28
					c29.43-34.77,45.45-59.81,56.55-91.13c0.33,0.22,0.57,0.53,0.88,0.8c7.06,5.77,13.7,15.48,19.45,28.28
					c-10.48,35.95-27.67,164.95,21.45,249.47c47.45,81.57,39.34,134.44,37.3,143.87l-1.18,5.16c-5.14,21.8-14.7,62.32,5.79,90.62
					c9.87,13.85,25.29,22.06,44.47,23.78c9.65,0.86,19.21,1.32,28.92,1.32c7.01,0,14.05-0.22,21.35-0.69c14.89-1,28-2.79,43.47-4.93
					c10.54-1.47,20.66-2.9,30.71-3.55c43.51-2.85,72.25-4.73,78.69-29.12c2.04-7.71,2.45-22.55-16.92-35.16
					c-13.44-8.75-29.18-13.38-45.66-13.38c-2.08,0-4.04,0.06-5.81,0.18c-1.73,0.1-3.36,0.24-4.81,0.45
					c-12.8-6.22-40.19-19.39-58.1-28.32c-9.01-19.49-7.42-117.74-6.89-151.19l0.41-31.59c0.22-24.12,3.34-49.45,6.44-74.16
					c6-48.45,12.23-98.59-2.65-146.37c-7.57-24.33-14.8-59.81-23.98-104.69l-0.57-2.89c-10.44-51.08-23.68-115.58-43.21-194.88
					l2.65,2.08l-20.56-72.07c-0.04-0.06-0.24-0.77-0.35-1.24c-0.16-0.59-0.33-1.24-0.51-1.84c-2.9-10.75-12.79-49.45-13.48-80.24
					l-2.28-94.33l5.22-17.39l-0.2,0.08c2.98-10.22,6.28-21.62,9.77-33.69l8.61-18.43l-2.85-1.77c2.2-7.63,4.34-15.37,6.5-23.06
					c1.04-1.75,2.1-4.02,2.63-6.81c0.98-5.1,3.18-12.5,5.79-21.53c1.18-4.08,2.49-8.63,3.83-13.34l6.61,7.81l0.2-0.82
					c28.65,30.77,55.69,53.38,70.15,53.38c7.73,0,14.48-3.95,18.11-10.66c4.77-8.91,17.7-27.51,32.67-49.08
					c16.09-23.18,36.11-52.02,54.04-80.38c27.51-43.52,69.03-108.24,85.2-133.44c0.51,0.02,0.98,0.14,1.49,0.14
					c2.55,0,5.14-0.08,7.73-0.27c64.42-4.26,113.38-60.14,109.16-124.54C1577.98,938.11,1544.85,898.2,1500.66,883.6z
					 M740.47,1198.52c0.47,0.31,0.86,0.8,1.37,1.06c15.8,51.37,44.92,118.72,101.45,167.97c0.51,0.51,41.25,46.35,35.6,95.13
					l-4.63-1.04l-7.97,18.78c-5.06,12.01-9.34,24.15-13.25,36.46c-9.99-9.15-21.49-16.56-34.16-21.86
					c-10.81-8.77-22.92-15.81-36.2-20.58c-12.48-33.12-27.12-73.84-32.55-97.23c-14.33-61.95-41.01-92.42-62.46-116.93
					c-3.06-3.47-6.03-6.87-8.87-10.26C694.76,1239.61,719.29,1221.49,740.47,1198.52z"/>
			</g>
			<g>
				<g>
					<path class="st0" d="M894.29,1605.28c0,0-52.57,131.63-32.12,286.81c11.87,90.8,21.57,116.8-2.04,135.03
						c-23.65,18.27-80.53,111.4-88.17,200.45c-7.55,89.01-42.97,104.96-53.2,106.16c-10.15,1.24-65.84,19.7-39.58,64.3
						c26.24,44.6,33.79,64.23,47,95.62c13.19,31.42,40.27,23.78,81.53,18.66c41.33-5.08,62.17-12.5,50.75-20.62
						c-11.42-8.22-53.65-6.81-56.18-10.28c-2.53-3.53-27.69-73.23-23.61-82.3c4-9.14,43.74-81.12,69.47-107.28
						c25.73-26.22,82.22-114.54,82.22-114.54s46.41-93.58,61.81-111.67c37.4-44.21,52.47-71.17,64.13-123.57
						c20.35-91.64-4.44-152.02-4.44-152.02l-36.81-92.48L894.29,1605.28z"/>
				</g>
				<g>
					<path class="st0" d="M1125.23,597.1c8.42,8.09,17.46,28.7,18.92,47.07c1.47,18.45,13.03,29.69,4.65,42.02
						c-8.42,12.3-2.94,30.54,9.95,46.43c14.25,17.6,19.96,28.56,4.24,33.91c-15.7,5.25-13.38,4.17-12.66,8.4
						c0.8,4.12,7.57,10.44-2.02,17.88c0,0,6.89,8.07,0.2,14.39c-6.65,6.37-9.54,9.01-5.67,15.86c3.75,6.81,10.97,28.99-8.65,36.5
						c-19.64,7.54-59.24-2.4-64.44,3.33c-5.26,5.75,0.69,23.99-20.11,46.6c-20.9,22.62-20.9,32.66-20.9,32.66
						s-121.78,3.68-165.07-59.67c0,0,53.45-58.61,49.25-71.91c0,0,22.25,6.81,20.72-4.49c0,0,11.89-13.28,9.32-21.52
						c0,0,7.06-19.73-0.43-29.32c0,0,3.53-8.66-1.33-15.46c-4.85-6.77-8.67-13.06-9.28-24.56c-0.55-11.49,54.2-49.08,56.49-53.75
						c2.22-4.61,12.72-13.67,9.42-20.01c-3.24-6.32-1.63-10.42,2.33-13.14C1004.12,625.63,1125.23,597.1,1125.23,597.1z"/>
				</g>
				<g>
					<path class="st0" d="M910.81,820.64c11.99-40.95-14.11-88.31-28.16-125.92c-14.03-37.54-6.73-131.69,71.09-145.73
						c77.88-14.1,161.77,9.87,170.01-26.85c0,0,29.06,54.9,4.22,82.4c0,0-96.19,30.15-102.35,126.19l-18.68,2.98
						c0,0,3.75-45.93-21.74-44.57c-24.12,1.24-10.67,28.7-13.01,40.99c-2.47,12.17-19.51,32.6,6.75,33.21
						c0,0,5.67,19.93-36.18,43.32C923.55,817.49,910.81,820.64,910.81,820.64z"/>
				</g>
				<g>
					<path class="st0" d="M1106.94,862.39c-0.59-0.02-41.64-5.08-70.62-24.6c-32.52-21.97-41.58-54.22-41.58-54.22
						s15.05,57.36,75.02,79.33c0.94-5.78-2.12,2.28,0,0C1073.04,859.2,1089.93,861.86,1106.94,862.39z"/>
				</g>
				<g>
					<path class="st0" d="M1069.92,927.56c54.16,0.34,123.84,17.35,134.24,88.58c0,0,99.8,78.9,58.97,151.61
						c0,0,23.98-26.06,60.16-45.98c36.15-19.8,63.74-74.41,63.74-74.41l68.54,44.39c0,0-57.4,89.23-92.13,144.25
						c-34.79,55.04-76.65,110.58-87.3,130.53c-10.75,19.82-140.75-126.16-160.16-189.11
						C1096.43,1114.45,1069.92,927.56,1069.92,927.56z"/>
				</g>
				<g>
					<path class="st0" d="M1155.41,946.36c-25.84-13.98-57.65-18.63-85.48-18.8c0,0,26.51,186.89,46.06,249.86
						c9.2,29.89,43.35,78.39,77.78,119.03c2.28-9.54,4.49-19.6,6.24-30.34c2.45-15.93,3.55-30.22,3.38-43.76
						c-0.37-27.75-4.24-57.28-7.71-83.34c-3.51-26.51-6.49-49.41-4.85-62.26C1194.42,1048.99,1179.94,981.54,1155.41,946.36z"/>
				</g>
				<g>
					<path class="st0" d="M1183.16,1075.73c3.51-27.2-11.6-96.34-36.4-128.52c-24.71-32.18-67.48-30.16-103.31-55.66l-101.63-5.82
						c-2.28-21.48-11.66-93.97-31.01-65.08c-22.68,33.65-56.87,33.83-115.3,36.52c-58.38,2.65-97.23,38.72-110.75,51.41l7.69,3.59
						c-6.67,9.21-12.76,20.5-18.02,35.11c0,0,5.44,255.51,62.22,176.39c6.53-30.2,8.18,135.89,119.05,232.63
						c0,0,61.15,67.13,33.18,133.63c0,0,150.1,32.44,243.72-7.46c0,0,18.9-63.56,35.69-123.51c0.65-0.77,1.28-1.51,1.49-2.53
						c2.98-15.46,15.89-50.47,22.25-89.99c0.12-0.43,0.24-1.04,0.33-1.41c0-0.02,0-0.1,0-0.12c2.16-13.89,3.51-28.18,3.3-42.46
						C1194.86,1166.73,1179.67,1102.97,1183.16,1075.73z"/>
				</g>
				<g>
					<path class="st0" d="M881.01,859c-4.87-2.67-9.34-5.79-14.03-8.71c-12.27,3.16-26.79,4.55-43.51,5.46
						c1.65,0.85,3.2,1.84,4.81,2.57c14.93,7.1,30.14,12.83,45.43,17.71c30.77,9.71,61.93,15.82,93.15,19.83
						C937.09,885.93,908.07,873.77,881.01,859z"/>
				</g>
				<g>
					<path class="st0" d="M1186.02,1124.97c-9.79-1.94-20.09-1.31-29.34,1.16c-7.99,2.18-15.54,5.24-22.76,8.97
						c-5.59-22.96-13.52-45.21-22.9-66.62c-11.5-25.86-24.76-50.71-39.89-74.34c-17.35-22.23-35.26-43.93-55.73-63.01
						c15.07,23.48,29.14,47.27,41.39,71.97c14.3,23.31,27.55,47.31,38.48,72.23c8.32,18.92,15.46,38.38,20.68,58.2
						c-13.91,2.51-31.08-0.02-48.15,0.94c-9.26,0.59-19.17,1.81-28.34,6.42c-4.61,2.26-8.91,5.49-12.23,9.38
						c-2.94,3.38-5.87,7.18-8.54,10.83c-10.65,14.74-19.9,29.83-30.38,44.21c-10.54,14.09-21.6,28.53-37.3,37.44
						c16.46-7.5,29.14-21.29,40.93-34.63c11.79-13.46,22.55-28,34.03-41.25c2.94-3.34,5.73-6.34,8.85-9.42
						c2.75-2.84,5.87-4.83,9.46-6.24c7.01-2.92,15.29-3.51,23.84-3.32c16.15-0.08,32.34,4.3,51.63,2.16
						c0.23,0.84,0.51,1.65,0.63,2.49c5.83,26.51,5.71,53.08,4.26,80.73c-0.67,14.84-1.65,29.61-2.9,44.35
						c-13.95,5.16-28.06,10.05-42.19,14.19c-4.08,1.18-8.22,2.22-12.17,2.88c-3.85,0.18-9.52,1.39-13.23,3.55
						c-7.95,4.14-14.76,9.67-21.04,15.54c7.14-4.73,14.77-8.97,22.64-11.5c4.28-1.35,7.3-1.65,11.99-1.14
						c4.73,0.02,9.01-0.39,13.48-0.84c13.13-1.59,26.04-3.85,38.93-6.16c-2.73,29.37-6.38,58.65-10.54,87.87l-1.79-5.18
						c-12.52,5.69-25.35,11.34-38.15,15.97c-3.2,1.12-6.48,2.2-9.4,2.77c-1.69,0.1-3.57,0.35-5.79,1.22
						c-1.86,0.67-3.57,1.55-5.04,2.61c-6.16,4.1-11.18,9.11-15.72,14.33c5.49-4.2,11.48-8.06,17.68-10.52
						c1.43-0.59,3-1.04,4.49-1.27c1.14-0.16,2.77-0.14,4.65,0.02c3.96,0.08,7.42-0.35,11.09-0.82c12.29-1.73,24.21-4.24,36.24-6.93
						c-0.16,1.16-0.37,2.37-0.43,3.55c-4.18,27.37-8.58,54.69-13.91,81.75c-0.43,5.49-1.16,10.93-1.69,16.44
						c5.55-1.22,10.93-2.63,16.19-4.18c0.86-3,1.75-6.04,2.73-9.05c4.77-27.49,9.61-54.83,13.7-82.38c0.25-1.51,0.37-3.16,0.59-4.67
						c9.95,3.16,19.86,6.3,29.73,9.83l3.67-7.85c-10.2-6.32-20.6-12.46-31.04-18.58c3.92-27.77,7.3-55.69,9.95-83.69
						c8.36,3.1,16.88,5.99,25.72,8.36c3.32,0.86,6.34,1.75,10.54,1.84c2.59-0.1,4.59,0.84,7.48,2.45c2.94,1.9,5.02-1.04,2.57-3.32
						c-2.1-2.22-5.75-4.93-9.63-5.55c-2.22-0.63-5.28-2.04-7.99-3.36c-9.24-4.94-18.29-10.71-27.18-16.52
						c1.31-15.09,2.32-30.16,2.94-45.17c0.59-14.13,1.14-27.81,0.69-42.37c-0.61-13.54-2.28-26.96-4.85-40.23
						c14.74-10.5,32.83-18.39,49.88-15.25C1186.95,1132.37,1186.48,1128.6,1186.02,1124.97z"/>
				</g>
				<g>
					<path class="st0" d="M834.28,1301.99c-0.08,0-0.16-0.06-0.24-0.1c4.36,3.16,8.81,6.28,13.5,9.54
						C844.51,1308.76,840.19,1305.58,834.28,1301.99z"/>
				</g>
				<g>
					<path class="st0" d="M757.77,868.16c-42.21,23.13-86.2,21.2-134.61,149.96c0,0-40.34,18.09-59.52,41.93
						c-19.25,23.74-30.28,89.87-41.99,104.88c-11.79,15.15-64.54,54.45-32.26,117.74c32.26,63.24,207.06,221.78,223.45,278.94
						l74.76-28.45c0,0-43.17-106.61-53.75-152.18c-18.21-78.59-56.45-101.55-79.63-135.46c0,0,90.7-50.33,107.75-113.91
						C778.97,1068,757.77,868.16,757.77,868.16z"/>
				</g>
				<g>
					<g>
						<path class="st0" d="M1470.89,1094.69c-55.3,3.59-103.2-38.4-106.81-93.62c-3.65-55.24,38.38-103.16,93.66-106.78
							c55.22-3.65,103.12,38.38,106.73,93.63C1568.1,1043.2,1526.07,1091.06,1470.89,1094.69z"/>
					</g>
					<g>
						<path class="st0" d="M1558.18,988.34c3.41,51.87-35.79,96.71-87.77,100.09c-51.86,3.38-96.72-35.93-100.12-87.79
							c-3.41-51.88,35.91-96.7,87.83-100.1C1510.08,897.12,1554.78,936.44,1558.18,988.34z"/>
					</g>
					<g>
						<path class="st0" d="M1439.34,1094.32c-59.16,3.92-110.4-41.09-114.28-100.24c-3.87-59.13,41.05-110.42,100.19-114.3
							c59.14-3.88,110.42,41.09,114.3,100.23C1543.42,1039.18,1498.46,1090.45,1439.34,1094.32z"/>
					</g>
					<g>
						<path class="st0" d="M1533.27,980.44c3.71,55.76-38.56,103.99-94.33,107.62c-55.81,3.69-104-38.6-107.65-94.38
							c-3.65-55.78,38.58-103.98,94.35-107.64C1481.45,882.38,1529.68,924.66,1533.27,980.44z"/>
					</g>
				</g>
				<g>
					<path class="st0" d="M1238.77,2511.18c-16.25,1.04-31.79,0.86-47.57-0.59c-14.46-1.28-25.35-6.93-32.48-16.84
						c-15.99-22.13-7.58-57.81-3.1-77.06l1.27-5.1c2.3-10.83,11.48-69.11-39.13-156.16c-47.68-82-28.14-213.42-18.84-239.65
						c0.33-0.77,0.51-1.57,0.69-2.38c-7.38-18.31-16.35-31.87-26.63-40.25c-51.65-42.58-67.95-88.99-82.36-129.98
						c-11.83-33.62-21.98-62.64-49.04-84.5c-76.06-61.24-105.91-115.56-88.81-161.44l1.86-5c0,0,253.18-2.24,253.47-2.28
						c6.14-0.39,10.44-0.29,14.21-0.06l19.66-0.14l0.77,5.14l2.16,3.45c37.48,134.24,58.02,235.04,73.04,308.63
						c9.48,46.45,16.92,83.16,24.88,108.75c13.83,44.41,7.79,92.76,2.04,139.56c-3.14,24.96-6.36,50.77-6.57,75.9l-0.41,31.48
						c-0.9,54.83-2.55,156.91,13.58,165.07c20.29,10.19,55.93,27.34,65.54,31.97c2-0.39,4.89-0.86,8.46-1.08
						c10.42-0.67,26,0.57,41.21,10.52c3.04,1.96,12.26,7.97,9.93,16.92c-3.04,11.58-20.74,13.85-63.56,16.66
						c-10.89,0.71-21.74,2.24-33.1,3.79C1267.09,2508.33,1253.61,2510.19,1238.77,2511.18L1238.77,2511.18z"/>
				</g>
				<g>
					<path class="st0" d="M1362.42,2475.62c-22.51-14.76-46.29-7.75-46.29-7.75s-44.5-21.35-68.15-33.24
						c-23.69-11.91-18.07-130.85-17.43-203.51c0.59-72.84,25.43-147.15,4.89-213.13c-20.49-66.01-36.34-196.8-97.96-417.58
						c0,0-0.79-0.2-1.81-0.49l-0.33-2.39l-13.64,0.1c-4.28-0.33-9.26-0.3-14.56,0.12l-247.13,2.18
						c-17.66,47.33,23.1,101.71,86.38,152.73c63.32,51.04,39.82,138.89,131.51,214.46c12.58,10.34,22.23,26.31,29.77,45.56
						c-0.39,1.85-0.77,3.75-1.43,5.71c-6.85,19.25-30.14,150.06,18.19,233.1c48.31,83.05,44.11,142.58,39.95,161.71
						c-4.1,19.09-24.02,85.03,27.51,89.72c51.43,4.67,85.73-5.65,120.64-7.93C1347.33,2492.69,1384.88,2490.24,1362.42,2475.62z"/>
				</g>
				<g>
					<path class="st0" d="M1144.88,1651.28c-51.69-40.13-168.42-38.95-233.4-34.67c-32.55,2.12-55.02,5.2-55.22,5.22l-9.99,1.39
						l1.22-9.99c4.73-37.74,17.54-78.98,18.05-80.65c4.63-15.88,9.95-30.87,16.17-45.7l2.51-5.89l6.28,1.39
						c0.73,0.12,76.61,16.33,152.47,11.28c34.2-2.26,63.34-8.4,86.56-18.31l10.5-4.47l2.04,84.5c0.86,38.05,14.84,87.15,15.01,87.62
						l6.49,22.8L1144.88,1651.28z"/>
				</g>
				<g>
					<path class="st0" d="M1129.53,1475.34c-23.23,9.91-52.37,16.05-86.56,18.31c-71.72,4.73-143.29-9.42-151.61-11.11
						c-0.77,2.47-1.47,4.92-2.49,7.38c0,0,150.1,32.44,243.72-7.46c0,0,1.08-3.67,2.85-9.65L1129.53,1475.34z"/>
				</g>
				<g>
					<path class="st0" d="M1134.36,1555.75c0-0.08-0.04-0.12-0.04-0.18l-1.73-73.11c-93.62,39.91-243.72,7.46-243.72,7.46
						c-6.81,16.07-11.89,31.22-15.93,44.98l0,0c0,0-13.09,41.78-17.74,79.28c0,0,215.89-29.94,294.42,30.98
						C1149.61,1645.17,1135.26,1595.08,1134.36,1555.75z"/>
				</g>
				<g>
					<path class="st0" d="M746.77,1166.41c0,0,94.23-52.47,83.71-127.53c0,0,29.69,66.34-74.68,143.9
						C742.43,1192.73,746.77,1166.41,746.77,1166.41z"/>
				</g>
				<g>
					<g>
						<path class="st0" d="M780.54,1703.22c-55.3,3.61-103.24-38.38-106.85-93.64c-3.65-55.26,38.38-103.12,93.66-106.73
							c55.26-3.65,103.16,38.36,106.81,93.6C877.75,1651.71,835.76,1699.61,780.54,1703.22z"/>
					</g>
					<g>
						<path class="st0" d="M867.88,1596.84c3.41,51.9-35.91,96.74-87.77,100.1c-51.9,3.45-96.8-35.85-100.17-87.77
							c-3.45-51.8,35.87-96.7,87.81-100.08C819.64,1505.67,864.48,1544.98,867.88,1596.84z"/>
					</g>
					<g>
						<path class="st0" d="M748.14,1698.31c-59.14,3.88-110.4-41.05-114.34-100.18c-3.88-59.14,41.09-110.38,100.29-114.28
							c59.1-3.89,110.38,41.07,114.26,100.19C852.22,1643.19,807.26,1694.43,748.14,1698.31z"/>
					</g>
					<g>
						<g>
							<path class="st0" d="M842.07,1584.48c3.69,55.77-38.56,103.94-94.35,107.57c-55.77,3.67-103.94-38.56-107.63-94.33
								c-3.65-55.81,38.58-103.96,94.39-107.65C790.25,1486.44,838.4,1528.69,842.07,1584.48z"/>
						</g>
					</g>
				</g>
			</g>
		</g>
	</g>
</g>
</svg>
