<?xml version="1.0" encoding="utf-8"?>
<!-- Generator: Adobe Illustrator 27.0.0, SVG Export Plug-In . SVG Version: 6.00 Build 0)  -->
<svg version="1.1" id="Layer_1" xmlns="http://www.w3.org/2000/svg" xmlns:xlink="http://www.w3.org/1999/xlink" x="0px" y="0px"
	 viewBox="0 0 2000 2000" style="enable-background:new 0 0 2000 2000;" xml:space="preserve">
<style type="text/css">
	.st0{fill:#C89C69;}
</style>
<g>
	<g>
		<path class="st0" d="M1959.13,1805H51.42c-11.53,0-20.87-9.35-20.87-20.87s9.34-20.87,20.87-20.87h1907.71
			c11.53,0,20.87,9.35,20.87,20.87S1970.66,1805,1959.13,1805z"/>
	</g>
	<g>
		<path class="st0" d="M1790.51,1804.92H220.02c-11.53,0-20.87-9.35-20.87-20.87V604.93c0-11.52,9.34-20.87,20.87-20.87h476.02
			c9.55,0,17.89,6.48,20.23,15.75c33.51,132.28,152.4,224.66,289.09,224.66c136.59,0,255.39-92.39,288.9-224.66
			c2.34-9.27,10.68-15.75,20.23-15.75h476.02c11.53,0,20.87,9.35,20.87,20.87v1179.12
			C1811.38,1795.57,1802.04,1804.92,1790.51,1804.92z M240.89,1763.18h1528.75V625.8h-439.31
			c-43.37,142.36-174.74,240.41-324.98,240.41c-150.34,0-281.79-98.05-325.17-240.41h-439.3V1763.18z"/>
	</g>
	<g>
		<path class="st0" d="M1328.38,1805h-646.2c-11.53,0-20.87-9.35-20.87-20.87v-609.15c0-11.52,9.34-20.87,20.87-20.87h646.2
			c11.53,0,20.87,9.35,20.87,20.87v609.15C1349.25,1795.65,1339.91,1805,1328.38,1805z M703.05,1763.26h604.46v-567.41H703.05
			V1763.26z"/>
	</g>
	<g>
		<path class="st0" d="M696.03,625.8H147.97c-11.53,0-20.87-9.35-20.87-20.87V448.04c0-11.52,9.34-20.87,20.87-20.87h548.25
			c6.45,0,12.54,2.99,16.5,8.08c3.95,5.1,5.33,11.74,3.72,17.99c-6.07,23.6-9.15,48.28-9.15,73.33c0,24.91,3.02,49.55,9,73.25
			c1.57,6.24,0.18,12.86-3.78,17.92C708.54,622.84,702.47,625.8,696.03,625.8z M168.84,584.06h501.5
			c-3.19-18.87-4.8-38.11-4.8-57.48c0-19.49,1.64-38.79,4.89-57.67H168.84V584.06z"/>
	</g>
	<g>
		<path class="st0" d="M1862.56,625.8h-548.07c-6.43,0-12.51-2.96-16.46-8.05c-3.95-5.07-5.35-11.69-3.78-17.92
			c5.97-23.71,9-48.36,9-73.25c0-25.04-3.08-49.72-9.16-73.33c-1.61-6.25-0.24-12.9,3.72-17.99c3.95-5.1,10.04-8.08,16.5-8.08
			h548.25c11.53,0,20.87,9.35,20.87,20.87v156.89C1883.43,616.45,1874.09,625.8,1862.56,625.8z M1340.18,584.06h501.5V468.91H1340.1
			c3.25,18.89,4.89,38.18,4.89,57.67C1344.99,545.94,1343.38,565.18,1340.18,584.06z"/>
	</g>
	<g>
		<path class="st0" d="M696.22,468.91H214.65c-9.08,0-17.13-5.88-19.89-14.54c-2.76-8.65,0.4-18.1,7.81-23.36L387.79,299.7
			c3.53-2.5,7.74-3.84,12.07-3.84h365.26c8.18,0,15.6,4.78,19,12.23c3.39,7.45,2.11,16.18-3.25,22.35
			c-30.89,35.46-53.16,77.89-64.4,122.69C714.13,462.4,705.79,468.91,696.22,468.91z M280.18,427.17h400.19
			c9.63-31.57,24.04-61.85,42.58-89.57H406.52L280.18,427.17z"/>
	</g>
	<g>
		<path class="st0" d="M1795.88,468.91h-481.57c-9.57,0-17.92-6.51-20.25-15.79c-11.24-44.8-33.51-87.22-64.4-122.69
			c-5.37-6.17-6.65-14.91-3.25-22.35c3.39-7.45,10.82-12.23,19-12.23h365.26c4.33,0,8.54,1.34,12.07,3.84l185.22,131.31
			c7.41,5.26,10.57,14.7,7.81,23.36C1813.01,463.03,1804.96,468.91,1795.88,468.91z M1330.16,427.17h400.19l-126.34-89.57h-316.42
			C1306.12,365.32,1320.54,395.61,1330.16,427.17z"/>
	</g>
	<g>
		<path class="st0" d="M1005.36,866.21c-155.83,0-291.34-105.33-329.56-256.16c-6.81-27.05-10.27-55.13-10.27-83.47
			c0-28.56,3.52-56.74,10.47-83.74c12.81-51.02,38.2-99.42,73.37-139.82c64.69-73.89,157.97-116.26,255.98-116.26
			c97.88,0,191.09,42.37,255.75,116.22c35.21,40.44,60.6,88.84,73.44,139.98c6.92,26.9,10.44,55.07,10.44,83.62
			c0,28.33-3.45,56.4-10.26,83.44C1296.51,760.88,1161.07,866.21,1005.36,866.21z M1005.36,228.5
			c-85.96,0-167.8,37.16-224.53,101.98c-30.85,35.42-53.12,77.85-64.37,122.65c-6.11,23.72-9.19,48.4-9.19,73.46
			c0,24.91,3.02,49.55,9,73.25c33.51,132.25,152.39,224.64,289.08,224.64c136.59,0,255.39-92.39,288.9-224.66
			c5.96-23.68,8.99-48.33,8.99-73.23c0-25.04-3.08-49.72-9.16-73.33c-11.28-44.92-33.55-87.34-64.43-122.81
			C1172.97,265.66,1091.2,228.5,1005.36,228.5z"/>
	</g>
	<g>
		<g>
			<path class="st0" d="M910.79,753.35c-33.92,0-67.82-12.91-93.64-38.73c-51.63-51.63-51.63-135.65,0-187.28l94.49-94.49
				c8.15-8.15,21.36-8.15,29.51,0l157.77,157.77c8.15,8.15,8.15,21.36,0,29.51l-94.49,94.49
				C978.61,740.44,944.7,753.35,910.79,753.35z M926.39,477.12l-79.73,79.73c-35.36,35.36-35.36,92.9,0,128.26
				c35.37,35.36,92.89,35.36,128.26,0l79.73-79.73L926.39,477.12z"/>
		</g>
		<g>
			<path class="st0" d="M1084.16,626.25c-5.34,0-10.68-2.04-14.76-6.12L911.63,462.36c-8.15-8.15-8.15-21.36,0-29.51l94.49-94.49
				c51.63-51.64,135.65-51.64,187.28,0c51.64,51.63,51.64,135.65,0,187.28l-94.49,94.49
				C1094.84,624.21,1089.5,626.25,1084.16,626.25z M955.9,447.61l128.26,128.26l79.73-79.73c35.36-35.36,35.36-92.9,0-128.26
				c-35.37-35.36-92.89-35.36-128.26,0L955.9,447.61z"/>
		</g>
	</g>
	<g>
		<path class="st0" d="M1005.28,1805c-11.53,0-20.87-9.35-20.87-20.87v-609.15c0-11.52,9.34-20.87,20.87-20.87
			s20.87,9.35,20.87,20.87v609.15C1026.15,1795.65,1016.8,1805,1005.28,1805z"/>
	</g>
	<g>
		<path class="st0" d="M894.56,1094.45H335.89c-11.53,0-20.87-9.35-20.87-20.87V913.95c0-11.52,9.34-20.87,20.87-20.87h558.67
			c11.53,0,20.87,9.35,20.87,20.87v159.63C915.43,1085.1,906.09,1094.45,894.56,1094.45z M356.76,1052.71h516.93V934.82H356.76
			V1052.71z"/>
	</g>
	<g>
		<path class="st0" d="M1674.63,1094.45h-558.67c-11.53,0-20.87-9.35-20.87-20.87V913.95c0-11.52,9.34-20.87,20.87-20.87h558.67
			c11.53,0,20.87,9.35,20.87,20.87v159.63C1695.5,1085.1,1686.16,1094.45,1674.63,1094.45z M1136.83,1052.71h516.93V934.82h-516.93
			V1052.71z"/>
	</g>
</g>
</svg>
