<?xml version="1.0" encoding="utf-8"?>
<!-- Generator: Adobe Illustrator 27.0.0, SVG Export Plug-In . SVG Version: 6.00 Build 0)  -->
<svg version="1.1" id="Layer_1" xmlns="http://www.w3.org/2000/svg" xmlns:xlink="http://www.w3.org/1999/xlink" x="0px" y="0px"
	 viewBox="0 0 2000 2000" style="enable-background:new 0 0 2000 2000;" xml:space="preserve">
<style type="text/css">
	.st0{fill:#C79B68;}
</style>
<g>
	<path class="st0" d="M1562,1775.71c19.17,0.06,33.06,3.69,34.58,23.9c1.89,25.15-5.94,33.6-31.86,33.6
		c-386.89,0.01-773.77,0.01-1160.66,0c-23.78,0-31.22-5.74-32.16-24.61c-1.16-23.35,4.64-29.66,29.96-32.71
		c1.04-0.13,1.99-1.02,4.66-2.47c0-6.57,0-14.05,0-21.52c0-117.11,0-234.23-0.01-351.34c0-38.38,4.31-42.9,42.42-44.62
		c2.25-0.1,4.47-0.71,8.02-1.29c-0.67-83.62,36.59-138.38,121.28-157.41c-22.24-15.87-14.27-38.84-13.2-60.15
		c0.18-3.54,3.12-8.88,6.09-10.02c16.81-6.51,13.98-20.47,13.97-33.56c-0.04-41.37-0.01-82.74-0.07-124.11
		c-0.24-172.41,123.8-317.38,294.63-344.39c7.4-1.17,14.74-2.68,23.83-4.34c-2.6-30.46,9.51-50.7,42.99-54.64
		c0.27-15.18,3.07-28.04,18.25-36.66c4.36-2.48,1.23-17.33,2.4-26.39c1.91-14.8-2.21-21.58-18.64-25.88
		c-77.63-20.34-124.8-94.63-114.42-176.68c9.45-74.69,77.21-133.41,155.45-133.59c17.55-0.04,35.11,3.46,52.7,7.98
		c-34.01-0.14-65.24,6.94-92.71,27.21c-27.93,20.61-45.89,47.94-52.3,81.93c-11.22,59.56,16.23,115.99,68.82,143.81
		c55.22,29.21,114.06,17.82,164.73-31.88c-12.46,41.58-62.77,76.35-129.23,88.46c0,12.93-0.26,26.22,0.21,39.48
		c0.1,2.79,2.71,5.6,4.47,8.2c6.58,9.77,13.29,19.45,18.02,30.52c35.82,16.08,35.82,16.08,42.51,58.88
		c62,6.9,119.91,26.55,170.62,64.03c91.72,67.8,141.98,158.44,145.74,273.06c1.58,48.31,0.21,96.71,0.52,145.07
		c0.03,5.42,0.43,12.52,3.7,15.97c23.81,25.12,25.45,54.41,3.08,78.65c38.34,5.46,69.03,23.8,92.62,54.02
		c23.41,29.99,28.53,65.4,28.05,101.66c3.27,0.97,4.88,1.77,6.54,1.89c42.38,2.97,44.4,5.1,44.4,48
		c0.02,115.95,0.01,231.9,0.01,347.85C1562,1759.09,1562,1766.57,1562,1775.71z M1121.34,1754.67c0-16.64,0.01-31.67,0-46.71
		c-0.11-104.21,1.07-208.44-0.76-312.62c-1.39-79.14-78.4-140.6-155.49-127.31c-73.08,12.6-117.71,65.89-117.86,141.55
		c-0.22,109.45-0.07,218.9-0.07,328.35c0,5.48,0,10.97,0,16.73C939.59,1754.67,1029.13,1754.67,1121.34,1754.67z M732.47,1754.43
		c0-77.01,0.2-152.04-0.07-227.07c-0.19-54.7-38.79-94.83-90.46-94.79c-53.2,0.04-91.14,39.7-91.21,95.57
		c-0.09,70.41-0.05,140.81,0,211.22c0,4.99,0.6,9.99,0.92,15.08C612.26,1754.43,671.41,1754.43,732.47,1754.43z M1417.83,1754.38
		c0-5.24,0-9.19,0-13.15c0.01-71.57,0.17-143.14-0.03-214.71c-0.16-54.45-38.67-93.94-91.09-93.96
		c-51.12-0.01-90.17,39.65-90.56,92.92c-0.42,58.18-0.1,116.37-0.1,174.56c0,17.87,0,35.74,0,54.34
		C1297.01,1754.38,1356.16,1754.38,1417.83,1754.38z"/>
</g>
</svg>
