<?xml version="1.0" encoding="utf-8"?>
<!-- Generator: Adobe Illustrator 27.0.0, SVG Export Plug-In . SVG Version: 6.00 Build 0)  -->
<svg version="1.1" id="Layer_1" xmlns="http://www.w3.org/2000/svg" xmlns:xlink="http://www.w3.org/1999/xlink" x="0px" y="0px"
	 viewBox="0 0 2000 2000" style="enable-background:new 0 0 2000 2000;" xml:space="preserve">
<style type="text/css">
	.st0{fill:#C79B68;}
</style>
<g>
	<path class="st0" d="M1635.24,1348.81c-3.94,105.87-7.67,204.01-11.19,302.15c-0.94,26.32,0.61,52.86-2.23,78.95
		c-4.58,42.23-35.07,68.57-75.12,68.13c-39.7-0.43-70.64-27.55-72.95-69.93c-6.02-110.71-9.77-221.55-14.48-332.33
		c-0.58-13.64-1.45-27.26-2.58-48.11c-30.21,0-58.92,1.4-87.43-0.33c-43.5-2.64-57.52-25.1-45.08-66.57
		c17.87-59.55,32.53-120.18,52.95-178.82c20.94-60.14,18.25-116.2-12.46-171.81c-10.48-18.98-18.04-39.58-31.01-68.51
		c-31.3,92.25-112.53,121.82-176.35,170.15c-42.18,31.94-88.65,26.65-114.66-7.65c-28.15-37.12-21.56-85.93,27.33-113.36
		c89.78-50.37,141.53-128.26,180.81-218.51c7.16-16.44,16.74-31.82,25.09-47.76c30.18-57.63,77.39-92.3,142.63-90.97
		c66.78,1.36,121.81,32.8,151.31,93.81c92.68,191.68,162.2,390.69,178.88,605.08c0.97,12.41,2.89,24.74,4.52,37.1
		c5.57,42.38-7.82,58.01-51.64,59.21C1681.05,1349.28,1660.48,1348.81,1635.24,1348.81z"/>
	<path class="st0" d="M432.69,1530.76c-0.01-47.14-4.26-94.76,1.02-141.29c7.2-63.47-14.34-111.13-58.67-154.83
		c-38.37-37.82-71.28-81.2-106.33-122.35c-29.55-34.68-30.68-63.96-3.95-87.22c25.22-21.94,55.85-15.78,85.89,18.31
		c35.74,40.56,71.78,80.91,105.94,122.77c21.07,25.82,46.73,33.43,79.04,37.42c92.33,11.4,164.88-13.2,215.14-96
		c17.01-28.03,42.2-51.32,64.89-75.61c21.98-23.53,48.85-27.79,74.16-7.27c27.2,22.05,27.8,51.02,6.29,77.08
		c-45.87,55.58-92.55,110.58-141.05,163.85c-21.95,24.11-31.26,48.72-30.8,81.56c1.72,123.36,0.7,246.77,0.66,370.15
		c0,11.08,1.18,22.46-0.83,33.2c-5.9,31.43-24.66,49.57-57.73,47.1c-30.82-2.3-48.11-20.64-48.49-51.56
		c-0.8-65.15-1.58-130.35,0.21-195.46c0.88-31.81-14.66-35.73-40.86-36.13c-26.38-0.4-37.52,7.05-36.78,35.11
		c1.57,59.57,0.84,119.22,0.32,178.83c-0.39,45.36-19.11,68.85-53.82,69.57c-35.73,0.74-53.79-21.15-54.11-67.59
		C432.36,1663.85,432.71,1597.3,432.69,1530.76z"/>
	<path class="st0" d="M349.82,444.15c0.31-128.92,100.56-227.55,230.56-226.84c124.68,0.67,227.24,104.16,226.54,228.6
		c-0.71,126.05-106,229.47-232.26,228.14C449.81,672.73,349.51,570.18,349.82,444.15z M609.03,415.55c0-32.42,3.56-60.45-1.48-86.85
		c-2.58-13.53-20.55-24.12-31.56-36.05c-9.52,11.55-26.1,22.45-27.24,34.77c-3.55,38.42-3.59,77.61,0.21,115.98
		c1.14,11.53,18.34,29.07,29.87,30.53c32.68,4.15,66.6,4.17,99.26-0.1c11.44-1.49,20.62-20.2,30.84-31.04
		c-10.25-9.09-19.32-23.49-31.01-26.06C658.23,412.4,636.87,415.55,609.03,415.55z"/>
	<path class="st0" d="M1261.79,549.82c-91.51,0.05-167.09-73.96-168.31-164.8c-1.23-91.54,76.16-168.11,169.51-167.71
		c91.32,0.39,166.05,75.67,165.6,166.83C1428.14,475.59,1353.46,549.77,1261.79,549.82z"/>
	<path class="st0" d="M708.15,1023.29c0.58,71.42-61.08,133.17-132.03,132.24c-69.85-0.92-128.86-60.64-129.25-130.8
		c-0.39-71.43,56.9-130.74,127.34-131.81C645.9,891.82,707.57,951.84,708.15,1023.29z"/>
	<path class="st0" d="M960.1,1798.1c-105.83,0.39-101.46,9.42-100.92-101.28c0.48-97.71,0.1-97.38,96.98-97.8
		c110.81-0.48,102.24-5.61,102.23,100.07C1058.38,1805.71,1066.21,1798.64,960.1,1798.1z"/>
	<path class="st0" d="M981.91,1451.91c-0.92-103.82-2.95-94.9,94.44-94.54c106.59,0.4,106.31-14.68,105.44,105.61
		c-0.68,93.32-0.14,93.13-93.97,93.37C971.25,1556.65,981.95,1563.85,981.91,1451.91z"/>
	<path class="st0" d="M1301.21,1699.24c0.66,108.81,5.04,99.02-98.5,98.86c-100.53-0.15-102.34,13.11-101.36-101.4
		c0.84-97.6,0.17-97.34,97.74-97.68C1307.46,1598.64,1301.84,1591.87,1301.21,1699.24z"/>
</g>
</svg>
