<?xml version="1.0" encoding="utf-8"?>
<!-- Generator: Adobe Illustrator 27.0.0, SVG Export Plug-In . SVG Version: 6.00 Build 0)  -->
<svg version="1.1" id="Layer_1" xmlns="http://www.w3.org/2000/svg" xmlns:xlink="http://www.w3.org/1999/xlink" x="0px" y="0px"
	 viewBox="0 0 2000 2000" style="enable-background:new 0 0 2000 2000;" xml:space="preserve">
<style type="text/css">
	.st0{fill:none;stroke:#C79B68;stroke-width:32;stroke-linecap:round;stroke-linejoin:round;stroke-miterlimit:10;}
</style>
<g>
	<g>
		<g>
			<g>
				<path class="st0" d="M734.78,859.9h-24.95c-38.84,0-70.62-31.78-70.62-70.62v-24.95c0-38.84,31.78-70.62,70.62-70.62h24.95
					c38.84,0,70.62,31.78,70.62,70.62v24.95C805.4,828.12,773.62,859.9,734.78,859.9z"/>
				<path class="st0" d="M1016.07,1356.07l-146.07,0l-97.23-249.73c-9.14-23.47-31.74-38.93-56.93-38.93H548.82
					c-35.2,0-59.21,35.61-45.99,68.23c29.26,72.23,74.17,184.23,99.17,246.63c11.13,27.78,38.03,45.96,67.95,45.96h347.36
					c20.72,0,37.1-17.47,35.74-38.48C1051.81,1370.57,1035.29,1356.07,1016.07,1356.07z"/>
				<polyline class="st0" points="872.98,1174.9 1471.87,1174.9 1471.87,1641.59 				"/>
				<path class="st0" d="M872.98,1174.9h204.47c24.36,0,44.1-19.74,44.1-44.1c0-24.36-19.74-44.1-44.1-44.1H937.79L838.4,957.18
					c-25.68-34.1-66.5-56.15-112.47-56.15c-77.72,0-140.73,63.01-140.73,140.73v25.65"/>
				<line class="st0" x1="841.16" y1="1566.27" x2="840.08" y2="1428.24"/>
				<path class="st0" d="M677.39,1641.59v-16.76c0-32.34,26.22-58.55,58.55-58.55h208.26c32.34,0,58.55,26.22,58.55,58.55v16.76"/>
				<g>
					<path class="st0" d="M1051.88,1402.5l108.92,207.17c10.23,20.25,30.69,31.92,51.93,31.92c8.82,0,17.77-2.01,26.18-6.26
						c28.65-14.48,40.14-49.45,25.66-78.11l-154.52-265.61c-13.48-23.74-38.68-38.41-65.99-38.41H901.06"/>
				</g>
			</g>
		</g>
		<path class="st0" d="M1007.78,1086.7L1078,922.86c8.24-19.22,27.13-31.68,48.04-31.68h317.38c20.41,0,34.16,20.86,26.13,39.62
			l-104.61,244.09"/>
		<line class="st0" x1="1384.96" y1="1128.15" x2="1196.13" y2="1128.15"/>
	</g>
	<path class="st0" d="M144.59,811.66l782.23-676.17c34.44-29.77,85.56-29.63,119.83,0.34l780.15,682.08
		c41.19,36.02,41.69,99.92,1.06,136.57l-57.3,51.69l-7.02,753.48c-0.47,50.1-41.22,90.48-91.32,90.48H303.26
		c-50.77,0-91.8-41.41-91.32-92.18l7-751.78l-69.61-52.49C102.88,918.64,100.58,849.7,144.59,811.66z"/>
</g>
</svg>
