<?xml version="1.0" encoding="utf-8"?>
<!-- Generator: Adobe Illustrator 27.0.0, SVG Export Plug-In . SVG Version: 6.00 Build 0)  -->
<svg version="1.1" id="Layer_1" xmlns="http://www.w3.org/2000/svg" xmlns:xlink="http://www.w3.org/1999/xlink" x="0px" y="0px"
	 viewBox="0 0 2000 2000" style="enable-background:new 0 0 2000 2000;" xml:space="preserve">
<style type="text/css">
	.st0{fill:#C79B68;stroke:#A4A4A4;stroke-miterlimit:10;}
</style>
<g>
	<path class="st0" d="M1036.82,181.64c447.37,6.59,813.58,374.5,805.54,833.33c-7.81,446.03-371.51,802.96-817.06,803.47
		c-456.68,0.53-827.75-372.74-819.43-833.92C213.96,536.74,582.56,175.16,1036.82,181.64z M1024.76,263.43
		C621.92,261.85,290,590.98,287.45,993.25c-2.59,408.33,323.6,738.57,727.9,743.25c410.45,4.75,742.97-324.75,745.23-731.79
		C1762.85,595.23,1434.58,265.04,1024.76,263.43z"/>
	<path class="st0" d="M684.19,524.54c6.27,0,11.27-0.01,16.27,0c129.88,0.29,259.79-0.51,389.64,1.47
		c46.81,0.72,94.83,2.68,140,13.59c109.67,26.5,177.58,98.78,202.6,208.42c17.99,78.8,16.68,158.75-12.22,234.72
		c-38.59,101.42-113.07,162.89-221.27,181.11c-58.03,9.77-116.65,10.73-175.29,10.96c-45.68,0.17-91.36,0.06-137.05,0.12
		c-3.01,0-6.01,0.36-10.33,0.64c0,126.1,0,251.67,0,378.1c-4.93,0.22-8.57,0.52-12.2,0.52c-56.59,0.05-113.19-0.14-169.77,0.27
		c-8.87,0.06-10.64-2.96-10.64-11.12c0.22-222.97,0.21-445.94,0.24-668.9c0.01-111.82,0.01-223.65,0.01-335.48
		C684.19,534.64,684.19,530.32,684.19,524.54z M877.13,1010.18c4.97,0,8.67,0,12.38,0c46.71,0.02,93.42,0.54,140.12-0.12
		c30.29-0.43,60.59-2.13,90.83-4.02c65.84-4.12,107.52-40.66,129.33-100.65c13.89-38.2,11.48-77.6,1.89-116.85
		c-12.5-51.19-46.21-80.89-95.57-93c-21.95-5.39-45.12-7.45-67.8-7.93c-67.13-1.41-134.3-1.3-201.45-1.72
		c-3.21-0.02-6.43,0.55-9.73,0.85C877.13,794.87,877.13,901.82,877.13,1010.18z"/>
</g>
</svg>
