<?xml version="1.0" encoding="utf-8"?>
<!-- Generator: Adobe Illustrator 27.0.0, SVG Export Plug-In . SVG Version: 6.00 Build 0)  -->
<svg version="1.1" id="Layer_1" xmlns="http://www.w3.org/2000/svg" xmlns:xlink="http://www.w3.org/1999/xlink" x="0px" y="0px"
	 viewBox="0 0 2000 2000" style="enable-background:new 0 0 2000 2000;" xml:space="preserve">
<style type="text/css">
	.st0{fill:#C79B68;}
</style>
<g>
	<path class="st0" d="M141.34,1592.52c38.66-66.76,78.2-133.03,115.81-200.37c125.38-224.45,250.08-449.29,374.95-674.02
		c5.43-9.77,9.96-20.03,16.46-33.22c-22.89-1.2-41.62-2.18-62.24-3.26c0-12.71,0-23.64,0-37.09c18.6-1.23,36.23-2.39,60.07-3.96
		c0-44.02-0.12-87.48,0.02-130.94c0.31-92.61,58.92-153.6,147.41-153.58c87.49,0.02,147.14,62.14,147.9,154.45
		c0.35,42.45,0.06,84.9,0.06,129.7c66.73,0,129.67,0,201.84,0c-2.66-57.45,2.57-116.54-9.95-171.59
		c-15.71-69.07-123.31-84.58-172.03-14.85c-7.84-16.18-15.49-31.98-23.15-47.78c35.36-45.3,92.8-61.58,152.95-43.34
		c56.82,17.22,96.81,64.22,100.04,119.98c1.8,31,2.86,62.27,0.85,93.2c-3.12,48.15,10.03,90.37,40.17,127.26
		c11.93,14.6,14.18,25.29,4.28,44.3c-11.95,22.96-14.42,50.85-21.73,79.48c-22.61-16.2-48.1-34.97-74.13-52.98
		c-30-20.77-59.16-19.4-75.01,4.65c-19.51,29.58-9.6,53.72,17.14,73.38c22.93,16.86,44.01,37.06,68.79,50.45
		c73.17,39.53,113.37,101.08,130.6,180.62c4.06,18.72,12.03,36.76,19.62,54.5c17.33,40.49,48.01,62.58,92.45,66.04
		c21.83,1.7,43.47,5.83,65.23,8.65c29.32,3.8,54.42,13.53,68.69,42.45c5.05,10.24,13.92,18.59,20.96,27.87
		c36.84,48.49,53.78,53.18,112.21,28.2c47.22,66.25,95.58,132.9,142.47,200.57c14.67,21.18,27.87,38.36,58.1,35.57
		c8.47-0.78,18.54,15.8,27.88,24.42c-9.01,7.46-17.15,19.5-27.21,21.4c-18.78,3.56-38.67,1.35-58.09,1.35
		c-147.67,0.03-295.35,0.47-443.01-0.7c-14.54-0.12-29-10.21-43.5-15.68c5.13-13.08,10.27-26.16,17.36-44.23
		c-145.43-205.53-294.47-416.18-447.21-632.05c-134.24,240.78-265.44,476.1-398.38,714.55c-10.7-6.13-19.95-11.43-30.9-17.7
		c5.99-13.17,11.1-24.41,19.21-42.22c-51.6,0-98.77-1.25-145.74,1.21c-7.96,0.42-17.12,15.81-22.15,26.05
		c-10.6,21.56-19.68,45.17-50.07,35.93c-29.37-8.92-28.52-32.79-21.28-60.35c-47.79-11.96-40.45,38.55-68.09,53.4
		c-6.84-2.75-18.25-7.35-29.65-11.94C141.34,1597.7,141.34,1595.11,141.34,1592.52z M1449.46,1541.44
		c-5.48-8.91-9.05-15.53-13.36-21.62c-191.99-271.44-383.7-543.08-577-813.58c-10.69-14.96-34.65-20.45-52.44-30.34
		c-2.63,3.87-5.26,7.74-7.88,11.61c5.08,8.54,9.6,17.47,15.32,25.55c189,267.24,378.46,534.14,566.61,801.97
		C1397.94,1539.56,1414.9,1552.23,1449.46,1541.44z M457.63,1107.52c0.19,2.58,0.37,5.16,0.56,7.73c3.03,1.36,6.06,3.88,9.09,3.9
		c79.02,0.32,158.05,0.63,237.07,0.07c8.03-0.06,20.01-3.34,23.39-9.1c28.26-48.14,54.94-97.21,85.26-151.68
		c-58.48,0-108.78,0-159.08,0c-80.56,0-153.83,53.73-181,132.72c7.9,2.54,15.63,5.02,29.19,9.38
		C482.63,1103.6,470.13,1105.56,457.63,1107.52z M887.32,640.34c0-53.23,2.42-104.57-0.74-155.57
		c-2.67-43.01-42.72-73.84-88.89-74.79c-50.08-1.02-92.28,27.06-95.49,70.66c-3.84,52.22-0.91,104.94-0.91,159.69
		C763.87,640.34,823.67,640.34,887.32,640.34z M561.68,923.04c83.57,0,158.43-1.89,233.12,0.9c31.14,1.16,44.95-11.54,59.56-36.29
		c15.37-26.05-3.81-37.73-13.9-53.57c-12.43-19.55-25.67-38.77-40.5-56.51c-6.51-7.78-17.59-15.83-27-16.35
		c-34.75-1.93-69.7-1.39-104.53-0.27c-7.51,0.24-18.22,4.8-21.69,10.74C619,819.18,592.64,867.49,561.68,923.04z M560.02,1304.61
		c-37.09,0-73.23,0-109.37,0c-89,0-89,0-106.56,15.5c85.89,0,168.68,0.18,251.47-0.34c6.77-0.04,16.89-2.97,19.74-7.88
		c28.7-49.38,56.2-99.45,85.53-151.98c-70.83-5.01-70.33-4.17-120.72,25.81c-8.29,4.94-24.18,1.55-34.63-2.72
		c-12.61-5.16-23.15-15.36-39.27-26.65c-3.96,36.91-7.33,68.29-10.84,101.05C528.82,1259.57,566.68,1250.98,560.02,1304.61z
		 M391.92,1360.32c-12.37,33.12-24.5,65.69-36.68,98.24c-19.16,51.2-32.06,56.81-89.67,38.04c7.81-23.56,15.62-47.13,23.43-70.69
		c-2.11-0.82-4.22-1.64-6.33-2.46c-16.81,30.67-33.62,61.34-53.34,97.34c89.21,0,169.4,0.34,249.58-0.47
		c9.09-0.09,22.56-4.02,26.45-10.62c28.43-48.16,54.94-97.46,83.15-148.39c-41.52-2.9-40.76-2.63-51.38,27.99
		c-11.36,32.76-21.1,66.85-38.32,96.41c-6.57,11.27-31.93,11.6-48.72,16.92c-3.6-13.44-12.37-27.96-9.82-40.1
		c7.09-33.74,18.88-66.5,29.59-102.21C441.73,1360.32,417.46,1360.32,391.92,1360.32z M667.34,718.98c37.72,0,62.01,0,86.3,0
		c1.46-3.71,2.91-7.43,4.37-11.14c-15.79-8.21-31.47-22.36-47.41-22.66C698.89,684.95,686.84,702.87,667.34,718.98z"/>
	<path class="st0" d="M1481.7,1048.74c100.84-57.79,174.54,20.13,257.48,48.16c9.3,3.14,17.85,31.66,14.16,44.91
		c-6.35,22.79-27.88,28.43-50.72,19.1c-39.39-16.1-78.1-34.13-118.28-47.92c-18.35-6.29-39.5-4.41-60.71-0.87
		c63.55,24.68,83.24,87.21,120.61,132.38c6.9,8.34,0.87,40.44-8.41,45.91c-12.34,7.26-34.03,0.54-51.05-3.15
		c-5.76-1.25-10.74-10.99-14.06-17.82c-31.31-64.55-87.4-87.06-153.97-87.93c-60.54-0.79-94.09-32.5-105.09-88.06
		c-19.97-100.92-74.08-175.12-164.01-224.44c-16.87-9.25-33.92-20.41-46.42-34.62c-9.2-10.45-11.11-27.31-16.27-41.31
		c14.68,0.59,33.04-4.28,43.42,2.71c49.28,33.17,95.77,70.46,144.73,104.13c10.55,7.25,27.99,9.81,40.9,7.36
		c50.68-9.58,92.9-33.75,127.36-73.97c31.07-36.26,66.16-69.31,101.6-101.43c7.92-7.18,24.72-4.56,37.44-6.45
		c-1.09,13.66,3.15,32.19-4.15,40.16c-39.31,42.9-80.72,83.99-123.09,123.92c-15.69,14.78-18.3,28.02-10.96,47.24
		C1455.95,972.68,1467.91,1009.29,1481.7,1048.74z"/>
	<path class="st0" d="M1103.57,1668.42c-94.75,0-185.9,0-288.15,0c68.32-46.26,45.27-109.26,48.72-166.35
		c-3.56-1.2-5.4-2.35-5.93-1.91c-58.27,48.34-107.52,9.13-157.02-17.59c-8.37-4.52-11.02-19.65-16.31-29.88
		c11.19-2.23,27.23-10.38,32.83-5.79c57.68,47.26,107.53,21.69,164.52-6.21c111.45-54.57,193.81-6.17,255.63,88.98
		c3.99,6.14,2.3,22.36-2.69,26.23c-5.56,4.31-21.39,3.52-26.67-1.48c-16.82-15.91-29.21-36.61-46.37-52.05
		c-17.18-15.45-38.05-26.8-66.41-46.17C1002.42,1550.59,1057.51,1605.3,1103.57,1668.42z"/>
	<path class="st0" d="M953.68,1332.96c0.92,43.41-33.29,79.47-76.47,80.62c-43.02,1.14-82.76-37.59-82.26-80.16
		c0.51-42.79,36.08-77.58,79.64-77.89C918.74,1255.22,952.74,1288.5,953.68,1332.96z"/>
	<path class="st0" d="M1321.73,877.88c-45.16-0.46-77.17-33.26-76.56-78.44c0.59-43.46,36.04-78.24,79.06-77.55
		c42.8,0.69,77.33,36.71,76.75,80.06C1400.38,846.86,1367.52,878.35,1321.73,877.88z"/>
	<path class="st0" d="M387.63,1054.41c-28.26-43.3-28.24-79.36-1.25-107.38c26.84-27.86,57.63-29.96,102.24-4.13
		c-50.12,90.2-100.3,180.5-153.17,275.64C335.68,1105.88,336.84,1102.26,387.63,1054.41z"/>
	<path class="st0" d="M955.38,1284.61c50.64,2.31,77.05,66.85,134.5,45.45c1.29,4.3,2.59,8.59,3.88,12.89
		c-20.13,8.05-40.67,23.69-60.3,22.61C987.45,1363.03,958.72,1335.78,955.38,1284.61z"/>
</g>
</svg>
