<?xml version="1.0" encoding="utf-8"?>
<!-- Generator: Adobe Illustrator 27.0.0, SVG Export Plug-In . SVG Version: 6.00 Build 0)  -->
<svg version="1.1" id="Layer_1" xmlns="http://www.w3.org/2000/svg" xmlns:xlink="http://www.w3.org/1999/xlink" x="0px" y="0px"
	 viewBox="0 0 2000 2000" style="enable-background:new 0 0 2000 2000;" xml:space="preserve">
<style type="text/css">
	.st0{fill:#C79B68;}
</style>
<g>
	<path class="st0" d="M883.18,1195.34c0,121.97-2.37,242.63,0.9,363.14c1.92,70.66-39.93,111.87-107.23,107.1
		c-40.99-2.9-82.36,0.14-123.54-0.77c-55.07-1.21-89.13-36.31-89.22-91.2c-0.19-125.51-0.06-251.02-0.06-378.43
		c-62-17.4-78.98-62.62-76.14-121.56c1.98-41.08,0.38-82.32,0.38-127.85c-46.59,0-92.26-1.09-137.79,1.06
		c-7.64,0.36-16.35,13.82-21.28,23c-3.29,6.12-0.8,15.36-0.8,23.21c-0.01,211.85-0.01,423.71-0.01,635.56c0,10.63,0,21.27,0,33.91
		c-22.9,0-43.92,0-68.88,0c0-10.64,0-21.09,0-31.54c0-215.78-0.04-431.55,0.02-647.33c0.02-77.14,34.16-111.33,110.9-111.42
		c38.08-0.05,76.15-0.01,117.85-0.01c0-28.79-0.21-54.92,0.04-81.04c0.94-97.66,66.37-163.98,163.84-165.43
		c47.07-0.7,94.16-0.61,141.23-0.06c100.14,1.16,164.85,66.69,164.94,166.41c0.02,25.44,0,50.88,0,78.22c57.18,0,112.55,0,168.14,0
		c2.55-40.91,1.19-81.39,8.33-120.32c13.23-72.11,70.82-120.61,144.04-123.48c56.79-2.23,113.82-2.45,170.6,0
		c85.82,3.71,148.54,70.83,150.23,157.46c0.55,28.28,0.09,56.57,0.09,88.25c42.21,0,82.2-0.51,122.17,0.12
		c62.13,0.97,99.55,36.92,99.72,98.7c0.63,224.6,0.27,449.21,0.18,673.81c0,5.65-1.23,11.29-2.03,18.23c-21.61,0-41.95,0-66.76,0
		c0-10.08,0-20.38,0-30.69c0-213.81,0.02-427.63-0.01-641.44c-0.01-43.22-2.22-45.47-44.71-45.47
		c-239.32-0.03-478.63-0.01-717.95-0.02c-9.59,0-19.18,0-32.05,0c0,45.21-2.07,88.16,0.5,130.83
		C962.4,1135.07,944.12,1178.08,883.18,1195.34z"/>
	<path class="st0" d="M725.06,285.35c90.27,0.46,157.83,70.02,157.1,161.75c-0.68,85.41-72.29,156.27-158.12,156.47
		c-87.01,0.2-160.96-74.7-159.94-161.99C565.12,353.93,636.23,284.9,725.06,285.35z"/>
	<path class="st0" d="M1366.13,285.33c89.66,0.51,158.04,71.06,157.19,162.18c-0.79,84.68-73.57,156.09-159.03,156.04
		c-87.75-0.06-159.32-73.2-158.76-162.26C1206.08,353.7,1277.01,284.82,1366.13,285.33z"/>
</g>
</svg>
