<?xml version="1.0" encoding="utf-8"?>
<!-- Generator: Adobe Illustrator 27.0.0, SVG Export Plug-In . SVG Version: 6.00 Build 0)  -->
<svg version="1.1" id="Layer_1" xmlns="http://www.w3.org/2000/svg" xmlns:xlink="http://www.w3.org/1999/xlink" x="0px" y="0px"
	 viewBox="0 0 2000 2000" style="enable-background:new 0 0 2000 2000;" xml:space="preserve">
<style type="text/css">
	.st0{fill:#C79B68;}
</style>
<g>
	<path class="st0" d="M880.71,1510.83c19.34,0,36.04-0.32,52.71,0.09c17.03,0.42,27.29,10.12,27.36,27
		c0.3,70.75,0.29,141.5,0.02,212.25c-0.07,18.37-10.51,27.88-29.85,27.94c-54.58,0.18-109.15,0.06-163.73,0.06
		c-101.36,0-202.71,0.01-304.07-0.01c-29.13,0-36.89-7.59-36.9-36.08c-0.02-65.74-0.04-131.47,0.01-197.21
		c0.02-25.58,8.42-33.94,33.86-34.07c13.92-0.07,27.84-0.16,41.75-0.33c0.98-0.01,1.95-0.78,3.54-1.46
		c4.83-38.52-3.15-71.6-35.6-97.64c-37.76-30.31-73.5-63.13-110.63-94.25c-25.2-21.12-41.49-47.11-49.94-78.91
		c-37.06-139.55-74.61-278.97-111.99-418.43c-16.78-62.58,12.15-120.07,69.45-137.94c57.31-17.88,119.1,16.1,135.87,76.08
		c20.64,73.81,40.04,147.96,60.01,221.96c1.29,4.78,2.87,9.49,4.52,14.91c43.88-24.51,85-19.82,126.45,5.79
		c53.44,33.02,108.36,63.63,162.34,95.77c82.93,49.38,125.07,122.23,124.83,219.19c-0.14,58.49-0.03,116.99-0.03,175.48
		C880.71,1497.04,880.71,1503.03,880.71,1510.83z M826.77,1510.1c0-72.69,2.14-144-0.68-215.11
		c-2.23-56.12-26.96-104.98-74.24-135.83c-66.07-43.12-134.83-82.26-203.6-121.04c-31.91-17.99-71.66,4.5-74.9,40.16
		c-2.28,25.06,9.07,43.83,31.04,56.4c48.27,27.61,96.5,55.3,144.52,83.35c16.12,9.41,20.7,24.26,13.11,38.03
		c-7.7,13.99-23.29,18.26-39.01,9.28c-51.2-29.24-102.58-58.19-152.99-88.73c-40.55-24.57-57.96-70.3-48.01-117.09
		c1.55-7.31,1.64-15.67-0.25-22.85c-22.8-86.46-45.99-172.82-69.31-259.14c-8.67-32.08-38.24-51.99-66.05-45.11
		c-31.04,7.68-46.5,37.26-37.09,72.45c37.16,138.99,74.79,277.85,111.65,416.92c6.29,23.72,18.61,42.04,37.25,57.59
		c38.06,31.75,75.29,64.49,112.99,96.67c26.53,22.64,43.02,51.11,47.58,85.52c2.08,15.7,0.35,31.9,0.35,48.54
		C649.48,1510.1,737.28,1510.1,826.77,1510.1z M906.82,1565.38c-142.99,0-284.64,0-425.85,0c0,53.75,0,106.31,0,158.54
		c142.6,0,283.85,0,425.85,0C906.82,1670.88,906.82,1618.72,906.82,1565.38z"/>
	<path class="st0" d="M1094.76,1510.82c0-68.27-0.34-133.97,0.08-199.67c0.61-93.5,41.86-164.38,121.44-212.58
		c55.17-33.42,111.71-64.6,166.64-98.4c41.08-25.28,81.79-29.48,125.77-5.07c11.43-42.29,22.73-83.96,33.95-125.66
		c10.24-38.07,19.72-76.37,30.77-114.2c14.16-48.51,58.68-79.2,110.07-77.35c46.82,1.69,87.57,35.23,97,83.84
		c3.47,17.88,2.41,38.15-2.21,55.86c-36.84,141.33-75.04,282.3-112.81,423.39c-8.33,31.13-25.39,56.29-50.14,76.95
		c-36.32,30.33-71.1,62.56-108.12,91.99c-32.95,26.19-42.43,59.32-36.94,100.88c15.98,0,31.95-0.12,47.92,0.03
		c21.23,0.2,30.92,9.43,30.97,30.23c0.16,69.07,0.16,138.15-0.01,207.22c-0.05,19.98-9.78,29.8-29.69,29.82
		c-158.15,0.12-316.29,0.11-474.44,0.01c-20.96-0.01-30.38-9.61-30.42-30.77c-0.13-68.52-0.13-137.03,0-205.55
		c0.04-21.88,9.43-30.81,31.88-30.97C1061.94,1510.73,1077.42,1510.82,1094.76,1510.82z M1415.63,1509.97
		c0-6.24,0.29-11.68-0.04-17.08c-3.14-51.3,17.13-91.46,56.47-123.74c36.59-30.01,72.87-60.53,107.52-92.73
		c13.33-12.39,26.9-28.62,31.6-45.54c40.12-144.48,78.27-289.52,116.91-434.41c4.86-18.22-0.38-34.32-12.75-47.81
		c-12.91-14.09-29.15-20.34-48.23-15.65c-23.87,5.87-37.92,21.66-44.18,45.16c-22.89,85.87-46.08,171.66-68.68,257.61
		c-2.03,7.71-2.2,16.65-0.58,24.46c9.27,44.67-6.42,90.42-44.48,114.04c-51.95,32.24-105.49,61.94-158.67,92.17
		c-13.88,7.89-28.84,3.23-36.39-9.24c-7.99-13.19-4.12-27.78,10.15-37.43c4.6-3.11,9.53-5.73,14.35-8.51
		c44.32-25.57,88.63-51.14,132.98-76.66c21.91-12.61,33.19-31.56,30.32-56.67c-4.43-38.75-45.48-57.36-81.18-36.8
		c-58.31,33.59-116.17,67.95-174.21,102c-65.75,38.57-98.02,96.39-98.36,172.24c-0.26,59.61-0.05,119.23-0.05,178.84
		c0,5.29,0,10.58,0,15.74C1238.46,1509.97,1326.25,1509.97,1415.63,1509.97z M1068.72,1564.86c0,54.01,0,106.17,0,158.99
		c142.47,0,284.11,0,426,0c0-53.52,0-106.07,0-158.99C1352.35,1564.86,1211.1,1564.86,1068.72,1564.86z"/>
	<path class="st0" d="M1415.5,391.1c0,50.14,1.24,100.31-0.21,150.41c-7.34,253.97-121.03,446.08-338.04,577.25
		c-23.75,14.36-48.46,27.31-73.59,39.07c-8.03,3.76-20.58,5.15-28.14,1.53c-91-43.56-175.25-96.84-243.05-173.19
		c-97.99-110.36-156.55-238.33-168.95-385.7c-4.52-53.69-3.08-107.92-3.42-161.91c-0.49-76.88-0.16-153.76-0.11-230.64
		c0.02-31.91,19.23-43.43,46.85-27.4c38.09,22.11,76.57,42.54,120.61,50.95c62.17,11.86,121.73,4.64,179.07-21.45
		c20.73-9.44,41.17-19.62,61.21-30.45c13.55-7.32,25.37-6.51,39.41-0.25c39.94,17.83,79.37,38.63,121.26,49.86
		c71.63,19.19,141.16,5.97,206.28-29.41c12.7-6.9,24.96-14.62,37.71-21.41c23.25-12.38,42.96-0.78,43.06,25.58
		C1415.66,266.31,1415.5,328.71,1415.5,391.1z M613.95,250.82c0,103.85-0.37,208.59,0.3,313.32c0.14,22.17,2.66,44.56,6.47,66.44
		c34.98,200.83,142.04,349.96,319.41,450.77c35.34,20.08,60.88,19.83,95.87-0.43c209.87-121.51,319.12-302.32,325.74-544.29
		c2.5-91.32,0.43-182.76,0.36-274.15c0-4.56-0.71-9.11-1.11-13.95c-2.69,0.74-3.79,0.9-4.76,1.34c-2.02,0.91-3.97,2-5.96,2.97
		c-106.01,51.6-212.76,52.84-317.56-0.93c-32.29-16.57-56.81-18.54-89.45-0.42c-72.62,40.32-151.9,49.47-232.9,31.27
		C677.69,275.42,646.44,261.79,613.95,250.82z"/>
	<path class="st0" d="M1308.54,485.42c1.72,57.19,0.9,130.52-20.05,202.1c-45.47,155.36-139.51,271.17-281.74,348.2
		c-13.8,7.47-25.57,6.8-39.1-0.66C799.41,942.33,699.77,801.03,671.95,611.2c-7.13-48.67-3.97-98.88-4.91-148.4
		c-0.62-32.86-0.32-65.73-0.04-98.6c0.19-21.37,14.27-32.92,34.98-28.71c92.24,18.75,180.34,6.14,264.3-35.55
		c14.93-7.41,27.62-7.6,42.51-0.16c83.9,41.89,171.99,54.39,264.22,35.85c21.64-4.35,35.34,7.11,35.48,29.77
		C1308.7,399.93,1308.54,434.47,1308.54,485.42z M718.56,393.66c1.83,69.55-1.8,137.44,6.42,203.86
		c20.62,166.62,105.9,293.25,250.08,379.92c9.48,5.7,16.53,5.23,25.78-0.27c121.56-72.26,200.94-176.45,237.8-312.99
		c23.75-87.97,15.38-177.9,15.95-267.28c0.01-0.81-1.26-1.63-2.21-2.77c-84.93,10.23-167.32-0.08-245.56-35.92
		c-14.22-6.51-25.07-6.09-38.54,0.53c-15.36,7.54-31.87,12.97-48.22,18.22C855.52,397.7,789.41,401.93,718.56,393.66z"/>
	<path class="st0" d="M934.11,697.22c65.92-66.03,130-130.23,194.1-194.41c3.93-3.94,7.7-8.1,11.97-11.62
		c11.52-9.5,26.23-9.27,36.37,0.22c10.59,9.91,11.29,25.42,1.53,37.59c-2.43,3.03-5.3,5.7-8.06,8.45
		c-69.66,69.71-139.33,139.41-209.02,209.09c-21.18,21.17-32.22,21.2-53.22,0.22c-29.93-29.91-59.89-59.8-89.71-89.81
		c-15.89-15.99-17.25-31.34-4.25-43.56c12.47-11.73,26.9-10.06,42.39,5.4C881.76,644.3,907.12,670.03,934.11,697.22z"/>
</g>
</svg>
