<?xml version="1.0" encoding="utf-8"?>
<!-- Generator: Adobe Illustrator 27.0.0, SVG Export Plug-In . SVG Version: 6.00 Build 0)  -->
<svg version="1.1" id="Layer_1" xmlns="http://www.w3.org/2000/svg" xmlns:xlink="http://www.w3.org/1999/xlink" x="0px" y="0px"
	 viewBox="0 0 2000 2000" style="enable-background:new 0 0 2000 2000;" xml:space="preserve">
<style type="text/css">
	.st0{fill:#C79B68;}
</style>
<g>
	<path class="st0" d="M999.6,1815.93c-259.1,0.01-518.2-0.09-777.3,0.21c-19.54,0.02-40.57-1.8-44.11-22.77
		c-3.87-22.94-12.11-50.15,13.53-68.7c2.32-1.68,4.67-5.01,6.88-4.9c41.94,2.09,34.52-27.87,34.52-52.87
		c-0.01-175.3,0.18-350.61-0.45-525.91c-0.08-21.12,3.29-30.22,28.33-29.89c120.38,1.62,240.79,1.03,361.19,0.63
		c39.92-0.13,74.39-13.39,103.21-42.83c84.86-86.68,171.09-172.02,255.82-258.82c16.1-16.5,25.64-16.4,41.72,0.11
		c83.97,86.23,169.49,170.95,253.61,257.03c30.16,30.86,65.78,44.8,108.19,44.72c119.44-0.22,238.88,0.55,358.3-0.76
		c23.09-0.25,27.36,7.9,27.29,28.37c-0.64,181.08-0.33,362.16-0.71,543.24c-0.04,20.01-0.08,35.39,27.65,36.47
		c9.2,0.35,21.24,16.85,25.57,28.37c4.44,11.83,4.54,27.92,0.07,39.7c-4.21,11.09-15.82,20.46-26.2,27.66
		c-5.25,3.64-14.97,0.91-22.68,0.91C1515.88,1815.92,1257.74,1815.91,999.6,1815.93z M1020.74,1073.55
		c-1.04,90.47,12.29,80.48-69.23,81.6c-1.93,0.03-4.74,0.77-5.63-0.2c-6.21-6.76-16.63-13.83-16.7-20.9
		c-0.08-7.5,10.72-22.17,15.14-21.58c40.93,5.49,37.73-21.23,37-47.14c-0.38-13.47,0.08-26.97-0.08-40.45
		c-0.34-28.28-12.22-35.08-37.91-21.55c-6.78,3.57-13.31,7.73-19.6,12.13c-60.45,42.29-78.41,124.01-41.82,189.82
		c35.52,63.89,111.28,90.56,175.45,59.35c52.73-25.64,82.76-70.08,84.1-128.39c1.4-61.15-30.65-105.77-83.58-134.84
		c-22.13-12.15-36.69-2.4-37.08,23.04C1020.53,1040.8,1020.74,1057.18,1020.74,1073.55z M915.82,1606.9c-0.13,0-0.25,0-0.38,0
		c0,27.92,0.82,55.88-0.27,83.75c-0.79,20.19,7.5,27.53,27.19,27.15c39.46-0.76,78.95-0.64,118.42,0.05
		c20.87,0.37,28.97-7.58,28.49-29.22c-1.17-51.96,1.45-104.04-0.9-155.92c-0.96-21.25-6.86-44.39-17.46-62.64
		c-19.09-32.88-54.36-44.42-89.96-35.65c-34.68,8.55-62.29,42.28-64.77,82.95C914.37,1547.12,915.82,1577.06,915.82,1606.9z
		 M1235.12,1549.09c-0.13,2.88-0.44,8.63-0.63,14.39c-1.45,42.08,3.05,46.77,44.83,46.86c4.81,0.01,9.61-0.01,14.42-0.02
		c62.63-0.04,62.63-0.04,62.63-62.93c0-61.26,0-61.26-61.7-61.24C1234.97,1486.17,1234.97,1486.17,1235.12,1549.09z
		 M1502.07,1546.72c0,6.73-0.02,13.47,0,20.2c0.15,40.45,2.7,43.1,41.86,43.41c4.81,0.04,9.62,0.03,14.43-0.01
		c59.13-0.48,64.74,12.16,63.75-64.77c-0.76-59.41-0.14-59.42-60.34-59.39C1502.07,1486.18,1502.07,1486.18,1502.07,1546.72z
		 M1356.36,1328.85c0-9.58-0.57-19.19,0.11-28.72c1.93-27.27-10.16-36.74-37.48-36.54c-87.72,0.66-100.75,14.95-83.61,102.23
		c1.71,8.7,14.92,19.79,24.22,21.37c19.55,3.33,40.14-0.15,60.13,1.41c27.74,2.17,39.15-9.66,36.74-36.78
		C1355.79,1344.22,1356.37,1336.51,1356.36,1328.85z M501.04,1549.44c0-7.68-0.01-15.36,0-23.04c0.07-38.77-1.18-40.02-40.62-40.23
		c-3.84-0.02-7.68-0.03-11.52,0c-75.2,0.46-64.73-8.91-65.39,66.17c-0.51,58.03-0.27,57.96,57.36,58.03
		C505.8,1610.43,501.24,1615.71,501.04,1549.44z M1502.02,1327.99c0,8.65,0.69,17.36-0.13,25.93c-2.54,26.53,9.31,35.45,35.41,34.75
		c94.82-2.55,83.98,15.2,84.65-83.68c0.03-3.84-0.11-7.69-0.03-11.53c0.44-19.86-7.52-31.1-29.1-29.44
		c-8.6,0.66-17.29,0.08-25.93,0.08C1502.08,1264.08,1502.08,1264.08,1502.02,1327.99z M649.67,1545.38c0,9.57,0.85,19.24-0.16,28.71
		c-3,28.04,10.26,38.7,36.92,36.37c5.7-0.5,11.48-0.14,17.23-0.11c72.58,0.38,64.2,2.6,64.45-65.77
		c0.21-58.41,0.06-58.17-59.89-58.5C645.48,1485.75,649.39,1481.54,649.67,1545.38z M383.35,1325.53c0,10.59,0.81,21.26-0.17,31.76
		c-2.21,23.7,7.14,32.22,31.51,31.46c102.39-3.17,84.32,16.81,86.38-90.13c0.02-0.96-0.08-1.93,0-2.89
		c2.15-23.96-9.36-33.6-32.59-31.66c-7.65,0.64-15.4-0.01-23.1,0.06C377.07,1264.75,383.51,1255.38,383.35,1325.53z M704.3,1388.3
		c70.74-0.07,63.63,5.56,63.84-63.24c0.01-3.85,0.01-7.69,0.01-11.54c0.01-49.54-0.6-50.15-49.81-49.1
		c-68.46,1.46-68.11,1.46-68.7,69.43C649.08,1397.15,650.67,1388.14,704.3,1388.3z"/>
	<path class="st0" d="M1288.75,421.26c-35.41-2.59-68.07-7.36-100.57-6.43c-18.41,0.53-36.92,9.43-54.72,16.29
		c-29.89,11.52-58.43,10.03-85.86-6.18c-20.31-12-26.19-5.76-27.62,16.59c-2.97,46.52,7.06,83.76,45.55,116.59
		c54.05,46.11,101.27,100.15,153.08,149.03c10.5,9.91,28.34,16.7,42.91,16.9c103.05,1.39,206.14,1.19,309.2,0.29
		c25.45-0.22,43.55,7.88,58.76,28.74c60.66,83.19,122.7,165.36,183.4,248.52c5.99,8.21,11.46,23.22,7.83,30.27
		c-3.73,7.24-18.9,11.94-29.09,11.99c-130.03,0.61-260.08-0.28-390.11,0.45c-22.97,0.13-40.01-6.4-56.16-22.75
		c-104.89-106.16-210.48-211.63-315.92-317.24c-8.06-8.07-16.74-15.52-28.03-25.93c-28.18,27.78-55.49,54.27-82.32,81.24
		c-84.21,84.67-168.64,169.14-252.07,254.58c-20.99,21.49-43.44,30.64-73.96,30.28c-125.21-1.49-250.45-0.45-375.67-0.84
		c-10.1-0.03-22.13-1.14-29.63-6.67c-5.26-3.88-8.91-19.46-5.49-24.16c65.06-89.42,130.28-178.77,198.32-265.91
		c10.24-13.12,34.67-20.85,52.74-21.21c100.14-2,200.35-1.54,300.52-0.49c23.83,0.25,40.94-6.05,58.04-23.79
		c55.46-57.53,113.95-112.15,169.31-169.78c11.1-11.56,18.64-31.32,19.06-47.53c1.92-74.12,0.68-148.32,0.65-222.49
		c-0.01-30.69,22.04-46.74,46.53-29.26c46.57,33.24,92.03,26.54,138.87,5.23c35.32-16.07,69.86-12.17,102.99,3.94
		c9.17,4.46,19.54,17.63,19.91,27.17c1.95,49.96,0.91,100.04,0.67,150.08C1289.85,421.22,1287.53,423.65,1288.75,421.26z"/>
</g>
</svg>
