<?xml version="1.0" encoding="utf-8"?>
<!-- Generator: Adobe Illustrator 27.0.0, SVG Export Plug-In . SVG Version: 6.00 Build 0)  -->
<svg version="1.1" id="Layer_1" xmlns="http://www.w3.org/2000/svg" xmlns:xlink="http://www.w3.org/1999/xlink" x="0px" y="0px"
	 viewBox="0 0 2000 2000" style="enable-background:new 0 0 2000 2000;" xml:space="preserve">
<style type="text/css">
	.st0{fill:#C79B68;}
</style>
<g>
	<path class="st0" d="M135.72,1707.04c0-128.17,0-255.36,0-385.84c20.59,0,40.66-0.89,60.63,0.15
		c91.37,4.79,174.67-24.27,256.97-59.1c34.38-14.55,69.72-27.02,105.19-38.75c82.01-27.11,162.45-20.62,240.8,14.6
		c19.06,8.57,38.25,17.28,56.05,28.12c61.76,37.6,128.29,47.03,199.34,40.14c59.91-5.81,120.22-7.49,180.38-10.52
		c16.44-0.83,32.97,0.19,49.46,0.2c78.14,0.06,93.27,61.04,85.54,114.51c-3.66,25.34-22.16,40.84-43.42,52.24
		c-98.52,52.84-202.21,79.13-314.96,63.96c-54.52-7.33-109.62-10.4-164.82-11.45c77.01,9.12,153.83,20.61,231.08,26.75
		c93.91,7.47,178.4-24.95,257.58-72.2c32.21-19.22,47.31-48.97,41.3-87.08c-2.39-15.19,1.88-23.69,16.29-30.98
		c111.6-56.46,224.68-109.34,347.47-136.75c29.18-6.51,60.32-7.68,90.29-6.16c28.17,1.43,38.42,21.32,31.1,48.78
		c-5.95,22.33-21.17,37.71-39.3,49.62c-49.77,32.69-99.28,65.95-150.68,95.92c-153.85,89.72-308.9,177.38-462.68,267.21
		c-39.86,23.28-77.2,51.01-114.95,77.74c-37.45,26.53-77.67,31.07-119.14,14.46c-58.17-23.29-116.58-46.58-172.73-74.24
		c-134.69-66.35-273.47-78.11-418.01-40.5c-76.02,19.78-152.72,36.89-229.13,55.16C149.28,1704.5,143.08,1705.55,135.72,1707.04z"/>
	<path class="st0" d="M1272.32,1050.6c-5.58-31.37-10.46-58.72-15.33-86.08c-1.21-0.08-2.43-0.17-3.64-0.25
		c-2.46,27.9-4.92,55.79-7.54,85.47c-7.14,0.33-13.89,0.91-20.64,0.91c-99.57,0.06-199.14-0.41-298.69,0.47
		c-17.04,0.15-21.9-5.36-22.19-21.36c-0.42-23.4-2.99-46.77-8.04-70.95c-7.2,28.84-14.39,57.68-22.01,88.2
		c-6.37-2.89-11.46-4.82-16.18-7.42c-20.53-11.31-40.96-22.82-61.42-34.27c-49.13-27.5-50.44-27.76-39.74-83.27
		c7.4-38.42,17.96-76.34,29.08-113.89c13.41-45.29,44.41-76.56,89.24-88.6c44.34-11.91,90.41-17.46,135.83-25.17
		c5.85-0.99,12.32,2.52,18.54,2.75c23.19,0.86,46.65,3.71,69.54,1.3c71.48-7.53,138.56,5.27,201.22,39.84
		c22.34,12.32,36.08,33.21,46.32,56.35c24.66,55.71,35.13,114.89,42.68,174.74c0.51,4.08-1.67,10.73-4.79,12.68
		C1348.19,1004.81,1311.4,1026.88,1272.32,1050.6z"/>
	<path class="st0" d="M773.77,277.04c-5.94-13.61-11.18-25.58-16.71-38.25c45.89,0,89.86,0,139.56,0
		c-30.38,38.91-57.7,73.9-86.73,111.09c-6.15-11.7-11.29-21.47-17.65-33.57c-11.19,8.22-22.2,15.17-31.92,23.6
		C601.8,477.26,540.82,649.79,595.16,852.14c54.21,201.85,193.83,320.23,398.76,358.9c75.79,14.3,151.54,6.87,225.33-16.96
		c25.7-8.3,37.62-5.12,41.85,9.86c4,14.15-5.37,23.12-30.7,31.04c-249.31,77.9-515.9-34.4-633.49-260.45
		C470.04,730.67,539.88,445.78,763.2,284.71C766.24,282.52,769.27,280.31,773.77,277.04z"/>
	<path class="st0" d="M1410.35,1138.41c6.86,12.41,13.43,24.29,21.36,38.62c-46.82,3.63-90.57,7.02-139.45,10.81
		c26.03-41.34,49.45-78.54,74.59-118.47c7.25,11.05,13.24,20.2,20.64,31.49c7.59-6.41,15.09-11.85,21.54-18.34
		c135.28-136.04,186.36-298.71,136.99-484.23c-50.8-190.88-179.17-309.07-371.15-356.13c-73.91-18.12-148.43-15.85-222.35,2.59
		c-3.69,0.92-7.44,1.6-11.12,2.58c-14.2,3.77-24.48-1.43-27.75-15.34c-3.09-13.13,4.13-22.7,17.15-24.98
		c38.01-6.65,76.04-16.24,114.34-17.75c289.77-11.38,531.36,197.39,557.82,486.2c16.3,177.92-46.37,328.51-178.12,449.77
		C1420.2,1129.47,1415.54,1133.68,1410.35,1138.41z"/>
	<path class="st0" d="M1068.25,397.24c80.76,0.16,145.06,64.59,144.8,145.09c-0.26,81.8-64.73,145.55-146.72,145.09
		c-80.5-0.45-144.04-64.99-143.78-146.04C922.8,460.8,987.21,397.09,1068.25,397.24z"/>
</g>
</svg>
