<?xml version="1.0" encoding="utf-8"?>
<!-- Generator: Adobe Illustrator 27.0.0, SVG Export Plug-In . SVG Version: 6.00 Build 0)  -->
<svg version="1.1" id="Layer_1" xmlns="http://www.w3.org/2000/svg" xmlns:xlink="http://www.w3.org/1999/xlink" x="0px" y="0px"
	 viewBox="0 0 2000 2000" style="enable-background:new 0 0 2000 2000;" xml:space="preserve">
<style type="text/css">
	.st0{fill:#C89C69;}
</style>
<g>
	<g>
		<g>
			<path class="st0" d="M211.75,797.18v775.32h641.46V937.76h266.58v634.75h641.46V797.18H211.75z M779.31,1378.34H277.33V937.76
				h501.98V1378.34z M1695.68,1378.34H1193.7V937.76h501.98V1378.34z"/>
		</g>
		<g>
			<g>
				<path class="st0" d="M95.18,800.06c0,54.44,44.15,98.6,98.6,98.6c54.47,0,98.62-44.16,98.62-98.6H95.18z"/>
				<path class="st0" d="M193.78,907.71c-59.36,0-107.65-48.29-107.65-107.65c0-5,4.05-9.04,9.04-9.04h197.23
					c4.99,0,9.04,4.04,9.04,9.04C301.45,859.42,253.15,907.71,193.78,907.71z M104.68,809.1c4.54,45.15,42.77,80.52,89.11,80.52
					c46.34,0,84.58-35.37,89.12-80.52H104.68z"/>
			</g>
			<g>
				<path class="st0" d="M292.41,800.06c0,54.44,44.14,98.6,98.6,98.6c54.47,0,98.6-44.16,98.6-98.6H292.41z"/>
				<path class="st0" d="M391.01,907.71c-59.36,0-107.65-48.29-107.65-107.65c0-5,4.05-9.04,9.04-9.04h197.2
					c4.99,0,9.04,4.04,9.04,9.04C498.65,859.42,450.36,907.71,391.01,907.71z M301.9,809.1c4.54,45.15,42.77,80.52,89.11,80.52
					c46.33,0,84.55-35.37,89.1-80.52H301.9z"/>
			</g>
			<g>
				<path class="st0" d="M686.82,800.06c0,54.44,44.14,98.6,98.59,98.6c54.47,0,98.63-44.16,98.63-98.6H686.82z"/>
				<path class="st0" d="M785.41,907.71c-59.35,0-107.63-48.29-107.63-107.65c0-5,4.05-9.04,9.04-9.04h197.22
					c4.99,0,9.04,4.04,9.04,9.04C893.08,859.42,844.78,907.71,785.41,907.71z M696.32,809.1c4.54,45.15,42.76,80.52,89.09,80.52
					c46.35,0,84.59-35.37,89.13-80.52H696.32z"/>
			</g>
			<g>
				<path class="st0" d="M884.04,800.06c0,54.44,44.12,98.6,98.58,98.6c54.46,0,98.62-44.16,98.62-98.6H884.04z"/>
				<path class="st0" d="M982.62,907.71c-59.34,0-107.62-48.29-107.62-107.65c0-5,4.05-9.04,9.04-9.04h197.2
					c5,0,9.04,4.04,9.04,9.04C1090.28,859.42,1041.99,907.71,982.62,907.71z M893.54,809.1c4.54,45.15,42.76,80.52,89.08,80.52
					c46.34,0,84.58-35.37,89.13-80.52H893.54z"/>
			</g>
			<g>
				<path class="st0" d="M489.61,800.06c0,54.44,44.14,98.6,98.61,98.6c54.46,0,98.6-44.16,98.6-98.6H489.61z"/>
				<path class="st0" d="M588.22,907.71c-59.36,0-107.66-48.29-107.66-107.65c0-5,4.05-9.04,9.04-9.04h197.22
					c4.99,0,9.04,4.04,9.04,9.04C695.87,859.42,647.58,907.71,588.22,907.71z M499.1,809.1c4.54,45.15,42.78,80.52,89.11,80.52
					c46.34,0,84.56-35.37,89.11-80.52H499.1z"/>
			</g>
			<g>
				<g>
					<polygon class="st0" points="536.25,374.42 489.61,800.06 292.41,800.06 378.52,374.42 					"/>
					<path class="st0" d="M489.61,809.1h-197.2c-2.71,0-5.28-1.22-7-3.32c-1.72-2.09-2.4-4.86-1.86-7.51l86.12-425.64
						c0.85-4.22,4.56-7.25,8.86-7.25h157.73c2.57,0,5.02,1.1,6.73,3.01c1.71,1.91,2.53,4.47,2.26,7.02L498.6,801.05
						C498.09,805.63,494.22,809.1,489.61,809.1z M303.46,791.02H481.5l44.66-407.56H385.92L303.46,791.02z"/>
				</g>
			</g>
			<g>
				<g>
					<path class="st0" d="M884.04,809.1H686.82c-2.41,0-4.73-0.97-6.43-2.68c-1.7-1.72-2.64-4.05-2.61-6.46l23.26-425.65
						c0.06-4.95,4.09-8.93,9.04-8.93h187.95c2.48,0,4.86,1.02,6.57,2.83c1.71,1.8,2.6,4.23,2.46,6.71l-14,425.64
						C892.81,805.35,888.85,809.1,884.04,809.1z M695.98,791.02h179.5l13.02-407.56H719.02L695.98,791.02z"/>
				</g>
			</g>
			<g>
				<g>
					<path class="st0" d="M686.82,809.1H489.61c-2.57,0-5.02-1.1-6.73-3c-1.71-1.92-2.53-4.47-2.26-7.03l46.64-425.64
						c0.5-4.59,4.38-8.06,8.99-8.06h171.23c2.47,0,4.84,1.02,6.55,2.8c1.7,1.79,2.61,4.21,2.49,6.68L695.86,800.5
						C695.62,805.31,691.65,809.1,686.82,809.1z M499.7,791.02h178.51l19.78-407.56H544.36L499.7,791.02z"/>
				</g>
			</g>
			<g>
				<g>
					<path class="st0" d="M292.41,809.1H92.53c-2.84,0-5.51-1.33-7.22-3.59c-1.71-2.27-2.26-5.2-1.47-7.93l121.52-425.64
						c1.11-3.89,4.65-6.56,8.69-6.56h164.47c2.71,0,5.28,1.22,7,3.32c1.72,2.1,2.4,4.86,1.86,7.52l-86.12,425.64
						C300.42,806.07,296.71,809.1,292.41,809.1z M104.52,791.02h180.49l82.46-407.56H220.87L104.52,791.02z"/>
				</g>
			</g>
			<g>
				<path class="st0" d="M1874.47,800.06c0,54.44-44.13,98.6-98.61,98.6c-54.47,0-98.6-44.16-98.6-98.6H1874.47z"/>
				<path class="st0" d="M1775.86,907.71c-59.35,0-107.64-48.29-107.64-107.65c0-5,4.04-9.04,9.04-9.04h197.21
					c5,0,9.04,4.04,9.04,9.04C1883.52,859.42,1835.22,907.71,1775.86,907.71z M1686.76,809.1c4.55,45.15,42.78,80.52,89.1,80.52
					c46.33,0,84.57-35.37,89.12-80.52H1686.76z"/>
			</g>
			<g>
				<path class="st0" d="M1677.27,800.06c0,54.44-44.15,98.6-98.61,98.6c-54.47,0-98.59-44.16-98.59-98.6H1677.27z"/>
				<path class="st0" d="M1578.65,907.71c-59.34,0-107.63-48.29-107.63-107.65c0-5,4.04-9.04,9.04-9.04h197.2
					c5,0,9.04,4.04,9.04,9.04C1686.31,859.42,1638.01,907.71,1578.65,907.71z M1489.56,809.1c4.55,45.15,42.77,80.52,89.09,80.52
					c46.33,0,84.57-35.37,89.12-80.52H1489.56z"/>
			</g>
			<g>
				<path class="st0" d="M1282.86,800.06c0,54.44-44.16,98.6-98.62,98.6c-54.47,0-98.6-44.16-98.6-98.6H1282.86z"/>
				<path class="st0" d="M1184.23,907.71c-59.35,0-107.64-48.29-107.64-107.65c0-5,4.04-9.04,9.04-9.04h197.22
					c5,0,9.04,4.04,9.04,9.04C1291.9,859.42,1243.6,907.71,1184.23,907.71z M1095.13,809.1c4.55,45.15,42.78,80.52,89.1,80.52
					c46.34,0,84.58-35.37,89.13-80.52H1095.13z"/>
			</g>
			<g>
				<path class="st0" d="M1480.07,800.06c0,54.44-44.16,98.6-98.63,98.6c-54.46,0-98.58-44.16-98.58-98.6H1480.07z"/>
				<path class="st0" d="M1381.43,907.71c-59.34,0-107.62-48.29-107.62-107.65c0-5,4.04-9.04,9.04-9.04h197.21
					c5,0,9.04,4.04,9.04,9.04C1489.11,859.42,1440.8,907.71,1381.43,907.71z M1292.35,809.1c4.55,45.15,42.77,80.52,89.09,80.52
					c46.34,0,84.59-35.37,89.14-80.52H1292.35z"/>
			</g>
			<g>
				<g>
					<polygon class="st0" points="1433.39,374.42 1480.07,800.06 1677.27,800.06 1591.16,374.42 					"/>
					<path class="st0" d="M1677.27,809.1h-197.2c-4.61,0-8.49-3.47-8.99-8.05l-46.67-425.65c-0.28-2.55,0.54-5.11,2.25-7.02
						c1.72-1.91,4.17-3.01,6.74-3.01h157.76c4.3,0,8.01,3.03,8.87,7.25l86.11,425.64c0.54,2.66-0.15,5.42-1.86,7.51
						C1682.55,807.88,1679.98,809.1,1677.27,809.1z M1488.17,791.02h178.04l-82.45-407.56h-140.28L1488.17,791.02z"/>
				</g>
			</g>
			<g>
				<g>
					<path class="st0" d="M1282.86,809.1h-197.22c-4.8,0-8.77-3.75-9.03-8.56l-14-425.64c-0.13-2.48,0.76-4.91,2.47-6.71
						c1.7-1.81,4.08-2.83,6.56-2.83h187.96c4.95,0,8.98,3.98,9.04,8.93l23.25,425.65c0.03,2.41-0.91,4.74-2.61,6.46
						C1287.59,808.13,1285.28,809.1,1282.86,809.1z M1094.2,791.02h179.49l-23.03-407.56h-169.48L1094.2,791.02z"/>
				</g>
			</g>
			<g>
				<g>
					<path class="st0" d="M1480.07,809.1h-197.21c-4.82,0-8.8-3.79-9.03-8.6l-20.66-425.65c-0.11-2.47,0.78-4.88,2.49-6.68
						c1.7-1.79,4.07-2.8,6.54-2.8h171.19c4.61,0,8.49,3.47,8.99,8.06l46.67,425.64c0.28,2.56-0.54,5.11-2.25,7.02
						C1485.08,808.01,1482.64,809.1,1480.07,809.1z M1291.48,791.02h178.5l-44.69-407.56H1271.7L1291.48,791.02z"/>
				</g>
			</g>
			<g>
				<g>
					<path class="st0" d="M1877.14,809.1h-199.88c-4.3,0-8.01-3.03-8.87-7.25l-86.11-425.64c-0.54-2.66,0.15-5.42,1.86-7.52
						c1.72-2.1,4.29-3.32,7-3.32h164.46c4.04,0,7.59,2.68,8.7,6.56l121.53,425.64c0.78,2.73,0.23,5.66-1.48,7.93
						C1882.65,807.77,1879.98,809.1,1877.14,809.1z M1684.67,791.02h180.49l-116.37-407.56h-146.57L1684.67,791.02z"/>
				</g>
			</g>
			<g>
				<polygon class="st0" points="896.27,374.42 1068.98,374.42 1081.24,800.06 884.04,800.06 				"/>
				<path class="st0" d="M1081.42,809.1c-0.05-0.01-0.12-0.01-0.18,0h-197.2c-2.44,0-4.78-0.99-6.49-2.74
					c-1.7-1.76-2.62-4.12-2.55-6.56l12.23-425.65c0.14-4.89,4.15-8.78,9.04-8.78h172.7c4.89,0,8.9,3.89,9.04,8.78l12.21,423.84
					c0.15,0.66,0.23,1.36,0.23,2.07C1090.46,805.06,1086.42,809.1,1081.42,809.1z M893.35,791.02h178.58l-11.74-407.56H905.06
					L893.35,791.02z"/>
			</g>
		</g>
	</g>
	<path class="st0" d="M1822.49,1666.27H147.18c-4.99,0-9.04-4.04-9.04-9.04v-84.72c0-5,4.05-9.04,9.04-9.04h1675.3
		c5,0,9.04,4.04,9.04,9.04v84.72C1831.53,1662.23,1827.49,1666.27,1822.49,1666.27z M156.23,1648.18h1657.22v-66.64H156.23V1648.18z
		"/>
	<path class="st0" d="M1062.6,1280.03c-14.89,0-27-12.11-27-27s12.12-27,27-27c14.88,0,26.99,12.11,26.99,27
		S1077.48,1280.03,1062.6,1280.03z M1062.6,1244.12c-4.92,0-8.92,4-8.92,8.91s4,8.91,8.92,8.91c4.91,0,8.9-4,8.9-8.91
		S1067.51,1244.12,1062.6,1244.12z"/>
	<g>
		<path class="st0" d="M667.3,1304.61H381.46c-5.05,0-9.16-4.11-9.16-9.16v-109.4c0-5.05,4.11-9.16,9.16-9.16H667.3
			c5.05,0,9.16,4.11,9.16,9.16v109.4C676.46,1300.51,672.35,1304.61,667.3,1304.61z M383.55,1293.36H665.2v-105.2H383.55V1293.36z"
			/>
		<path class="st0" d="M561.59,1186.44c-2.07,0-4.05-1.09-5.04-2.98l-32.18-61.87l-32.18,61.87c-1.39,2.66-4.76,3.75-7.55,2.42
			c-2.78-1.33-3.91-4.58-2.52-7.26l37.21-71.54c1.91-3.67,8.16-3.67,10.07,0l37.21,71.54c1.39,2.68,0.26,5.93-2.52,7.26
			C563.3,1186.27,562.44,1186.44,561.59,1186.44z"/>
		<path class="st0" d="M542.98,1109.71c0,10.28-8.32,18.61-18.6,18.61c-10.28,0-18.61-8.33-18.61-18.61
			c0-10.28,8.33-18.62,18.61-18.62C534.66,1091.1,542.98,1099.43,542.98,1109.71z"/>
	</g>
</g>
<g>
	<g>
		<g>
			<g>
				<g>
					<g>
						<g>
							<g>
								<path class="st0" d="M425.29,1236.73c0-9.88,2.09-17.46,6.27-22.74c4.18-5.28,10.13-7.92,17.87-7.92
									c4.18,0,7.79,0.73,10.84,2.21c3.05,1.47,5.58,3.54,7.58,6.23c2,2.68,3.48,5.9,4.45,9.65c0.96,3.75,1.44,7.95,1.44,12.58
									c0,9.88-2.1,17.47-6.31,22.74c-4.21,5.28-10.2,7.92-18,7.92c-4.12,0-7.7-0.73-10.72-2.2c-3.02-1.47-5.53-3.54-7.54-6.23
									c-2-2.68-3.48-5.9-4.45-9.66C425.77,1245.55,425.29,1241.37,425.29,1236.73z M432.75,1236.73c0,3.28,0.33,6.38,0.98,9.32
									c0.65,2.94,1.65,5.52,3.01,7.75c1.36,2.22,3.09,4.01,5.21,5.33c2.12,1.32,4.62,1.99,7.5,1.99c5.25,0,9.37-1.99,12.37-5.97
									c2.99-3.98,4.49-10.12,4.49-18.42c0-3.21-0.33-6.31-0.97-9.27c-0.65-2.97-1.67-5.56-3.05-7.79
									c-1.38-2.23-3.13-4.01-5.25-5.34c-2.12-1.32-4.65-1.99-7.58-1.99c-5.2,0-9.27,1.99-12.24,5.97
									C434.23,1222.29,432.75,1228.43,432.75,1236.73z"/>
								<path class="st0" d="M485.68,1207.69c2.14-0.51,4.46-0.85,6.95-1.02c2.48-0.17,4.94-0.25,7.36-0.25
									c2.6,0,5.24,0.25,7.92,0.76c2.68,0.51,5.12,1.44,7.32,2.79c2.2,1.36,4,3.22,5.38,5.59c1.38,2.38,2.08,5.39,2.08,9.07
									c0,3.61-0.65,6.66-1.95,9.15c-1.3,2.48-3.02,4.5-5.17,6.05c-2.15,1.55-4.6,2.67-7.37,3.35c-2.77,0.68-5.62,1.02-8.55,1.02
									c-0.29,0-0.75,0-1.4,0c-0.65,0-1.33-0.01-2.03-0.04c-0.71-0.03-1.4-0.07-2.08-0.12c-0.68-0.05-1.16-0.11-1.44-0.17v22.53
									h-7.03V1207.69z M500.16,1212.51c-1.47,0-2.88,0.03-4.23,0.09c-1.36,0.05-2.43,0.19-3.22,0.42v24.56
									c0.28,0.11,0.73,0.19,1.36,0.21c0.62,0.03,1.27,0.06,1.95,0.09c0.68,0.03,1.32,0.04,1.95,0.04c0.62,0,1.07,0,1.36,0
									c1.92,0,3.82-0.18,5.72-0.55c1.89-0.36,3.6-1.02,5.12-1.99c1.52-0.96,2.76-2.31,3.69-4.07c0.93-1.75,1.39-3.97,1.39-6.69
									c0-2.31-0.44-4.25-1.31-5.8c-0.88-1.55-2.04-2.8-3.47-3.73c-1.44-0.94-3.06-1.6-4.87-2
									C503.78,1212.71,501.97,1212.51,500.16,1212.51z"/>
								<path class="st0" d="M533.02,1207.09h32.27v6.27h-25.24v19.39h23.12v6.27h-23.12v21.09h25.66v6.27h-32.69V1207.09z"/>
								<path class="st0" d="M589.09,1227.58l-4.57-8.55h-0.34l0.85,8.55v38.79h-6.61v-60.22h3.73l28.37,39.55l4.41,8.13h0.42
									l-0.93-8.13v-38.63h6.61v60.22h-3.73L589.09,1227.58z"/>
							</g>
						</g>
					</g>
				</g>
			</g>
		</g>
	</g>
</g>
</svg>
