<?xml version="1.0" encoding="utf-8"?>
<!-- Generator: Adobe Illustrator 27.0.0, SVG Export Plug-In . SVG Version: 6.00 Build 0)  -->
<svg version="1.1" id="Layer_1" xmlns="http://www.w3.org/2000/svg" xmlns:xlink="http://www.w3.org/1999/xlink" x="0px" y="0px"
	 viewBox="0 0 2000 2000" style="enable-background:new 0 0 2000 2000;" xml:space="preserve">
<style type="text/css">
	.st0{fill:#C89C69;}
</style>
<g>
	<g>
		<g>
			<path class="st0" d="M1529.05,1250.69h-811.9c-15.45,0-29.56-9.07-35.94-23.07L446.51,716.48
				c-20.6-45.01-65.95-74.01-115.44-74.01H192.56c-22.84,0-41.32,18.48-41.32,41.21c0,22.73,18.48,41.21,41.32,41.21h138.51
				c17.36,0,33.26,10.19,40.53,25.98L606.18,1262c19.82,43.22,63.38,71.21,110.96,71.21h811.9c59.68,0,108.28,48.6,108.28,108.28
				c0,24.07-7.84,46.36-21.16,64.38c-19.82,26.65-51.51,44-87.11,44H656.68c-22.73,0-41.21,18.36-41.21,41.21
				c0,22.73,18.48,41.21,41.21,41.21h150.69c-8.23,9.88-13.38,22.42-13.38,36.29c0,31.48,25.52,57,57,57c31.48,0,57-25.52,57-57
				c0-13.87-5.15-26.4-13.38-36.29h473.86c-4.93,6.05-8.62,12.99-10.86,20.71c-1.34,4.93-2.13,10.19-2.13,15.56
				c0,31.46,25.53,56.99,56.99,56.99c24.97,0,46.13-16.01,53.86-38.29c2.02-5.82,3.14-12.09,3.14-18.7
				c0-13.77-4.93-26.42-12.99-36.28h72.56c75.8,0,141.31-44.34,172.1-108.5c11.98-24.86,18.7-52.85,18.7-82.3
				C1719.84,1336.24,1634.3,1250.69,1529.05,1250.69z"/>
			<g>
				<path class="st0" d="M1545.28,1162.01c-7.73,10.97-20.27,17.58-33.82,17.58H835.16c-13.1,0-25.42-6.16-33.14-16.68
					c-7.84-10.53-10.19-24.07-6.38-36.61l64.94-213.64L961.8,579.54c5.37-17.36,21.39-29.22,39.53-29.22h276.12v-48.48
					c0-0.34,0-0.78,0.11-1.12c0.34-21.5-5.71-85.21-38.97-119.14c-16.24-16.57-37.62-24.63-65.28-24.63
					c-103.46,0-111.86,91.26-112.53,109.51c-0.78,22.62-19.71,40.53-42.33,39.86c-22.73-0.56-40.65-19.26-40.09-41.99
					c1.46-65.62,44.12-189.9,194.94-189.9c50.5,0,92.38,16.8,124.62,49.83c62.37,64.05,62.26,167.62,62.03,178.03v89.24
					c0,22.84-18.47,41.32-41.21,41.32h-286.87l-114.32,376.22l-26.76,88.01h561.65l-119.59-327.18
					c-7.84-21.39,3.13-45.01,24.52-52.85c21.39-7.84,45.12,3.14,52.96,24.52l139.85,382.61
					C1554.91,1136.82,1553.01,1150.93,1545.28,1162.01z"/>
			</g>
		</g>
		<g>
			<path class="st0" d="M1031.89,632.84l-114.32,376.22c-20.6-31.13-39.64-63.26-56.99-96.41L961.8,579.54
				c5.37-17.36,21.39-29.22,39.53-29.22h276.12v-48.48c0-0.34,0-0.78,0.11-1.12c0.34-21.5-5.71-85.21-38.97-119.14
				c-16.24-16.57-37.62-24.63-65.28-24.63c-103.46,0-111.86,91.26-112.53,109.51c-0.78,22.62-19.71,40.53-42.33,39.86
				c-22.73-0.56-40.65-19.26-40.09-41.99c1.46-65.62,44.12-189.9,194.94-189.9c50.5,0,92.38,16.8,124.62,49.83
				c62.37,64.05,62.26,167.62,62.03,178.03v89.24c0,22.84-18.47,41.32-41.21,41.32H1031.89z"/>
			<path class="st0" d="M1511.47,1179.59h-457.74c-25.53-26.31-49.6-53.86-72.45-82.52h471.18l-119.59-327.18
				c-7.84-21.39,3.13-45.01,24.52-52.85c21.39-7.84,45.12,3.14,52.96,24.52l139.85,382.61c4.7,12.65,2.8,26.76-4.93,37.85
				C1537.55,1172.99,1525.01,1179.59,1511.47,1179.59z"/>
			<path class="st0" d="M1719.84,1441.49c0,29.45-6.72,57.44-18.7,82.3c-28.66-4.93-57.11-10.86-84.99-17.92
				c13.32-18.03,21.16-40.31,21.16-64.38c0-59.68-48.6-108.28-108.28-108.28h-294.6c-36.95-25.42-72.45-52.96-106.15-82.52h400.75
				C1634.3,1250.69,1719.84,1336.24,1719.84,1441.49z"/>
		</g>
	</g>
</g>
</svg>
