<?xml version="1.0" encoding="utf-8"?>
<!-- Generator: Adobe Illustrator 27.0.0, SVG Export Plug-In . SVG Version: 6.00 Build 0)  -->
<svg version="1.1" id="Layer_1" xmlns="http://www.w3.org/2000/svg" xmlns:xlink="http://www.w3.org/1999/xlink" x="0px" y="0px"
	 viewBox="0 0 2000 2000" style="enable-background:new 0 0 2000 2000;" xml:space="preserve">
<style type="text/css">
	.st0{fill-rule:evenodd;clip-rule:evenodd;fill:#C89C69;}
</style>
<path class="st0" d="M310.16,1417.98c65.25-38.37,136.09-73.02,158.25-73.02c13.48,0,45.87,24.74,67.34,41.19
	c39.59,30.15,80.51,61.36,126.08,61.36c42.67,0,84.62-27.79,129.12-57.33c31.52-20.86,70.73-46.82,92.31-46.82
	c22.04,0,61.14,27.11,92.58,48.88c41.57,28.78,80.81,55.88,120.14,55.88c39.4,0,75.98-26.8,114.59-55.43
	c32.05-23.68,68.36-50.39,93.68-50.39c25.2,0,61.52,26.34,93.57,49.64c39.48,28.78,76.89,56.03,117.44,56.03
	c63.41,0,186.03-80.39,226.95-108.56c7.2-15.76,13.85-31.98,20.1-48.42c-1.18-4.72-3.24-9.14-6.17-13.25
	c-13.47-19.49-40.09-24.36-59.61-10.88c-66.62,45.91-155.35,95.25-181.28,95.25c-12.68,0-45.42-23.75-67.04-39.44
	c-42.6-31.06-90.86-66.08-143.97-66.08c-53.6,0-101.94,35.71-144.66,67.07c-19.56,14.46-52.27,38.68-63.61,38.75
	c-12.56,0-49.3-25.43-71.3-40.66c-45.49-31.52-92.5-64.11-141.42-64.11c-47.47,0-94.29,31.07-139.78,61.14
	c-27.33,18.12-64.82,43.02-81.65,43.02c-16.56,0-49.79-25.43-74.04-43.85c-37.84-28.86-76.93-58.78-119.38-58.78
	c-48.87,0-139.75,48.27-198.25,82.68C282.11,1368.03,295.47,1393.46,310.16,1417.98L310.16,1417.98z M1653.09,1489.54
	c-41.37,55.2-89.65,104.91-143.59,147.85c-35.93-4.72-69.7-29.24-105.26-55.12c-32.05-23.29-68.36-49.64-93.53-49.64
	c-25.39,0-61.67,26.8-93.72,50.32c-38.64,28.55-75.15,55.5-114.58,55.5c-39.32,0-78.58-27.18-120.07-56.04
	c-31.44-21.7-70.58-48.87-92.62-48.87c-21.58,0-60.9,25.96-92.35,46.89c-44.47,29.55-86.45,57.33-129.13,57.33
	c-45.57,0-86.53-31.29-126.08-61.44c-21.39-16.29-53.86-41.04-67.3-41.04c-10.81,0-33.16,8.15-60.83,21.1
	c-20.14-21.63-39.18-44.31-56.91-68.07c43.59-21.39,88.24-38.82,117.74-38.82c42.37,0,81.47,29.69,119.38,58.7
	c24.17,18.5,57.4,43.78,74,43.78c16.79,0,54.28-24.82,81.73-42.94c45.38-30.07,92.28-61.21,139.75-61.21
	c48.88,0,95.97,32.58,141.5,64.1c21.88,15.23,58.62,40.66,71.19,40.73c11.37-0.08,44.12-24.21,63.68-38.68
	c42.68-31.44,91.02-67.23,144.62-67.23c53.11,0,101.37,35.1,143.93,66.09c21.66,15.76,54.32,39.43,67.04,39.43
	C1541.45,1552.28,1597.86,1523.65,1653.09,1489.54L1653.09,1489.54z M1422.68,1697.85c-34.3-23.29-71.76-43.39-111.96-43.39
	c-53.6,0-101.94,35.63-144.62,67.07c-19.56,14.47-52.3,38.6-63.68,38.75c-12.57,0-49.3-25.43-71.19-40.66
	c-45.53-31.6-92.62-64.26-141.5-64.26c-47.47,0-94.36,31.14-139.75,61.29c-17.32,11.42-38.71,25.51-56.33,34.41
	c34.03,14.24,69.32,26.27,105.56,35.86c31.18-20.64,69.32-45.83,90.52-45.83c22.04,0,61.18,27.26,92.62,49.03
	c11.61,8.07,23.07,15.99,34.37,23.22c73.17-0.99,144.01-11.66,211.28-30.84c29.08-21.24,60.19-42.33,82.72-42.33
	c6.43,0,13.63,1.68,21.28,4.57C1363.33,1731.05,1393.63,1715.36,1422.68,1697.85L1422.68,1697.85z M559.96,1268.91
	c-28.55-17.28-59.15-30.53-91.7-30.53c-45.41,0-87.22,25.73-125.01,52.45l52.3-235.26l-75.91-114.66l-2.32-3.34
	c-4.41-6.85-6.13-14.77-5.29-22.39l19.94-169.25c1.94-16.52,16.75-28.25,33.16-26.19c15.34,1.75,26.46,14.84,26.38,29.84
	c0,0,0.65,134.45,3.35,153.33c2.66,18.8,43.35,89.76,86.56,113.67c49.03,27.03,328.9,8.76,328.9,8.76
	c20.59,0.76,36.62,18.13,35.78,38.68c-0.69,19.57-16.56,35.02-35.82,35.86l-214.81,7.91L559.96,1268.91L559.96,1268.91z
	 M484.78,727.98c38.75,0,70.24-31.44,70.24-70.27c0-38.68-31.48-70.04-70.24-70.04c-38.68,0-70.24,31.36-70.24,70.04
	C414.54,696.54,446.1,727.98,484.78,727.98L484.78,727.98z M1637.72,956.76h-245.08v82.38v4.57h245.08V956.76L1637.72,956.76z
	 M1005.62,50.23c526.96,0,954.15,427.19,954.15,954.19c0,526.93-427.19,954.18-954.15,954.18c-527.04,0-954.23-427.26-954.23-954.18
	C51.39,477.42,478.57,50.23,1005.62,50.23L1005.62,50.23z M1005.62,121.42c487.63,0,882.92,395.29,882.92,883.01
	c0,487.56-395.29,883-882.92,883c-487.68,0-883.08-395.44-883.08-883C122.53,516.7,517.94,121.42,1005.62,121.42L1005.62,121.42z
	 M1648.34,513.05c21.01,27.49,40.42,56.34,57.79,86.41c3.35,13.4,5.29,28.1,5.29,44.24v145.34v255.05l-1.68,192.39
	c-4.65,1.22-9.1,3.27-13.21,6.17c-19.53,13.48-40.96,27.19-62.17,39.97l3.35-165.21h-245.08l-1.79,142.37
	c-23.22-13.56-47.77-24.06-73.55-26.65l1.68-193.99V794.06V638.67c0-69.13-57.22-84.81-63.73-86.41l0.38,0.07l0,0
	c-16.25-3.88-28.36-18.42-28.36-35.78c0-20.41,16.48-36.93,36.85-36.93c2.43,0,4.83,0.23,7.12,0.76l0,0c0,0,0.08,0,0.11,0
	c0.38,0.08,0.69,0.23,1.07,0.23c42.26,9.75,120.22,54.74,120.22,158.06v77.05h245.08v-72.03c0-65.47-51.17-82.98-62.24-85.95
	c-17.17-3.13-30.15-18.2-30.15-36.31c0-20.25,16.48-36.7,36.81-36.7c2.74,0,5.32,0.15,7.91,0.76v-0.08
	C1606.16,488.92,1627.82,497.67,1648.34,513.05L1648.34,513.05z M1637.72,876.44v-87.02h-245.08v4.64v82.38H1637.72L1637.72,876.44z
	 M484.78,714.66c-7.04,0-13.74-1.22-19.95-3.66c0.27-1.82,0.69-3.58,1.03-5.4c11.08-10.43,26.76-10.43,37.8,0
	c0.38,1.82,0.76,3.58,1.1,5.4C498.52,713.44,491.78,714.66,484.78,714.66L484.78,714.66z M484.78,600.91c7,0,13.74,1.37,19.98,3.66
	c-0.34,1.75-0.72,3.5-1.1,5.32c-11.04,10.51-26.73,10.51-37.8,0c-0.34-1.82-0.76-3.58-1.03-5.32
	C471.04,602.28,477.74,600.91,484.78,600.91L484.78,600.91z M452.65,638.9c23.18-5.03,41.07-5.03,64.26,0
	c10.39,11.04,10.39,26.73,0,37.69c-23.19,4.95-41.08,4.95-64.26,0C442.18,665.63,442.18,649.94,452.65,638.9L452.65,638.9z
	 M454.74,897.83c-15.41,46.14,9.48,96,55.5,111.31c46.07,15.53,95.89-9.44,111.31-55.5c15.45-46.06-9.48-95.85-55.46-111.38
	C520.03,826.87,470.16,851.84,454.74,897.83z"/>
</svg>
