<?xml version="1.0" encoding="utf-8"?>
<!-- Generator: Adobe Illustrator 27.0.0, SVG Export Plug-In . SVG Version: 6.00 Build 0)  -->
<svg version="1.1" id="Layer_1" xmlns="http://www.w3.org/2000/svg" xmlns:xlink="http://www.w3.org/1999/xlink" x="0px" y="0px"
	 viewBox="0 0 841.89 841.89" style="enable-background:new 0 0 841.89 841.89;" xml:space="preserve">
<style type="text/css">
	.st0{fill:#C69B69;}
	.st1{fill:#FFFFFF;}
</style>
<g>
	<path class="st0" d="M266.29,474.44v0.85h-21.42v-0.85l0.85-0.08c1.75-0.1,3-0.63,3.77-1.58c0.77-0.95,1.16-2.41,1.16-4.36v-37.19
		c0-1.96-0.39-3.41-1.16-4.36c-0.77-0.95-2.03-1.48-3.77-1.58l-0.85-0.07v-0.78h21.42v0.77l-0.85,0.08c-1.75,0.1-3,0.63-3.77,1.58
		c-0.77,0.95-1.16,2.41-1.16,4.36v37.19c0,1.96,0.39,3.41,1.16,4.36c0.77,0.95,2.03,1.48,3.77,1.58L266.29,474.44z"/>
	<path class="st0" d="M273.84,425.21v-0.85h13.41l18.87,39.75l0.08,0.15l-4.7,11.33c-3.24-6.57-6.46-13.11-9.67-19.61
		c-3.21-6.5-6.43-13.03-9.67-19.61l-1.23,30.88c-0.1,2.42,0.37,4.18,1.43,5.29c1.05,1.11,2.78,1.71,5.2,1.81l1.54,0.08v0.77h-17.18
		v-0.77l0.92-0.08c1.69-0.1,2.94-0.63,3.74-1.58c0.8-0.95,1.24-2.4,1.35-4.35l1.46-38.06c-0.05-3.18-1.62-4.85-4.7-5.01
		L273.84,425.21z M337.33,424.44l0.08,0.85l-0.92,0.08c-1.64,0.1-2.83,0.6-3.54,1.5c-0.72,0.9-1.05,2.3-1,4.2l1.69,37.36
		c0.15,3.8,1.87,5.78,5.16,5.93l0.92,0.07v0.78H318.3v-0.77l0.85-0.08c1.64-0.1,2.82-0.57,3.54-1.39s1.1-2.08,1.16-3.78l-0.92-37.28
		l-19.11,43.76h-2.39l21.26-51.23H337.33z"/>
	<path class="st0" d="M364.37,474.44v0.85h-21.42v-0.85l0.85-0.08c1.75-0.1,3-0.63,3.77-1.58c0.77-0.95,1.16-2.41,1.16-4.36v-37.19
		c0-1.96-0.39-3.41-1.16-4.36c-0.77-0.95-2.03-1.48-3.77-1.58l-0.85-0.07v-0.78h25.65c2.88,0,5.48,0.33,7.82,1s4.34,1.62,6.01,2.85
		s2.97,2.71,3.89,4.43s1.39,3.63,1.39,5.74c0,2.16-0.5,4.11-1.5,5.86s-2.43,3.24-4.28,4.47s-4.07,2.2-6.66,2.89
		s-5.48,1.04-8.67,1.04h-8.01v15.72c0,1.95,0.39,3.4,1.16,4.35s2.03,1.48,3.77,1.58L364.37,474.44z M358.59,450.25h8.01
		c3.24,0,5.84-1.08,7.82-3.24s2.97-5.01,2.97-8.55c0-3.49-0.81-6.29-2.43-8.4s-3.74-3.16-6.36-3.16h-10.02L358.59,450.25
		L358.59,450.25z"/>
	<path class="st0" d="M427.16,455.95h-0.69l-0.31-1c-0.57-1.95-1.58-3.36-3.04-4.24c-1.46-0.87-3.51-1.31-6.12-1.31h-9.01v23.42
		h12.33c2.93,0,5.42-0.67,7.47-2s3.83-3.47,5.32-6.39l1.08-2h0.62c-0.31,1.75-0.66,3.69-1.04,5.82c-0.39,2.13-0.73,4.07-1.04,5.82
		l-0.23,1.23h-40.14v-0.85l0.85-0.08c1.75-0.1,3-0.63,3.77-1.58c0.77-0.95,1.16-2.41,1.16-4.36v-37.19c0-1.96-0.39-3.41-1.16-4.36
		c-0.77-0.95-2.03-1.48-3.77-1.58l-0.85-0.07v-0.78h40.22v12.87h-0.62l-0.69-2c-1.03-2.93-2.44-5.06-4.24-6.39
		c-1.8-1.33-4.16-2-7.09-2H408v20.03h9.01c2.62,0,4.65-0.39,6.09-1.16s2.46-2.03,3.08-3.77l0.31-0.85h0.69v14.77H427.16z"/>
	<path class="st0" d="M443.56,425.29v-0.85h26.19c2.93,0,5.6,0.31,8.01,0.92c2.41,0.62,4.48,1.5,6.2,2.66s3.05,2.54,4.01,4.16
		c0.95,1.62,1.42,3.4,1.42,5.35c0,3.08-1.12,5.71-3.35,7.9c-2.23,2.18-5.3,3.79-9.21,4.82c1.08,1.38,2.85,3.69,5.32,6.91
		c2.46,3.22,5.42,7.17,8.86,11.82c0.77,1.08,1.4,1.91,1.89,2.5c0.49,0.59,0.95,1.01,1.39,1.27c0.44,0.25,0.94,0.41,1.5,0.46
		s1.31,0.08,2.23,0.08v2h-3.39c-2.62,0-4.71-0.05-6.28-0.15s-2.92-0.42-4.04-0.96c-1.13-0.54-2.17-1.36-3.12-2.46
		c-0.95-1.1-2.17-2.63-3.66-4.58c-2.67-3.65-5.01-6.83-7.01-9.55s-3.57-4.83-4.7-6.32h-6.62v17.24c0,1.96,0.38,3.41,1.16,4.37
		s2.03,1.48,3.78,1.58l0.85,0.07v0.78h-21.42v-0.77l0.85-0.08c1.75-0.1,3-0.63,3.77-1.58c0.77-0.95,1.16-2.41,1.16-4.36v-37.19
		c0-1.95-0.39-3.41-1.16-4.36c-0.77-0.95-2.03-1.48-3.77-1.58L443.56,425.29z M467.68,448.78c3.44,0,6.2-1.03,8.28-3.08
		s3.12-4.78,3.12-8.17c0-3.24-0.85-5.82-2.54-7.74c-1.7-1.93-3.96-2.89-6.78-2.89H459.2v21.88H467.68z"/>
	<path class="st0" d="M522.61,474.44v0.85h-21.42v-0.85l0.85-0.08c1.75-0.1,3-0.63,3.78-1.58c0.77-0.95,1.16-2.41,1.16-4.36v-37.19
		c0-1.96-0.38-3.41-1.16-4.36c-0.77-0.95-2.03-1.48-3.78-1.58l-0.85-0.07v-0.78h21.42v0.77l-0.85,0.08c-1.75,0.1-3,0.63-3.78,1.58
		c-0.77,0.95-1.16,2.41-1.16,4.36v37.19c0,1.96,0.39,3.41,1.16,4.36c0.77,0.95,2.03,1.48,3.78,1.58L522.61,474.44z"/>
	<path class="st0" d="M558.43,475.29l0.15-0.85l1.85-0.08c2-0.1,3.24-0.62,3.7-1.54s0.26-2.39-0.62-4.39l-4.93-11.02h-17.8
		l-3.7,9.86c-0.87,2.36-0.98,4.11-0.31,5.24s2.18,1.75,4.54,1.85l1.23,0.08v0.85H525.3v-0.85l0.92-0.08c1.64-0.1,3-0.55,4.08-1.35
		c1.08-0.8,2-2.02,2.77-3.66l17.87-46.07h2.46l21.19,46.22c1.03,1.95,2.07,3.26,3.12,3.93c1.05,0.67,2.43,1,4.12,1v0.85h-23.4
		V475.29z M557.58,454.95l-8.63-19.26l-7.17,19.26H557.58z"/>
	<path class="st0" d="M606.74,424.44v0.85l-0.85,0.08c-1.75,0.1-3,0.63-3.78,1.58c-0.77,0.95-1.16,2.4-1.16,4.35v41.52h12.94
		c2.67,0,4.88-0.6,6.63-1.81s3.24-3.15,4.47-5.82l1.77-3.93c0.1,0.05,0.18,0.08,0.23,0.08c0.26,0.15,0.49,0.28,0.69,0.39l0.15,0.15
		c-0.31,1.8-0.65,3.83-1.04,6.09c-0.38,2.26-0.76,4.29-1.12,6.09h-0.15l-0.23,1.23h-39.98v-0.85l0.85-0.08
		c1.75-0.1,3-0.63,3.78-1.58c0.77-0.95,1.16-2.4,1.16-4.35V431.3c0-1.95-0.38-3.4-1.16-4.35c-0.77-0.95-2.03-1.48-3.78-1.58
		l-0.85-0.08v-0.85H606.74z"/>
</g>
<g>
	<path class="st0" d="M386.02,498.06c-1.37,0.81-2.51,1.91-3.41,3.3c-0.9,1.39-1.69,2.95-2.36,4.68c-0.67,1.73-1.29,3.59-1.85,5.59
		c-0.56,2-1.17,4.01-1.82,6.06c-0.65,2.04-1.42,4.05-2.29,6.03c-0.87,1.98-1.95,3.83-3.23,5.54l0.09,0.09
		c1.56-0.94,3.23-1.99,5.03-3.16c1.79-1.17,3.58-2.43,5.38-3.79c1.79-1.36,3.53-2.8,5.21-4.33s3.2-3.14,4.56-4.84
		s2.49-3.48,3.39-5.33c0.9-1.85,1.46-3.76,1.68-5.73c-0.53-0.25-0.9-0.54-1.1-0.89c-0.2-0.34-0.3-0.79-0.3-1.36
		c0-0.66,0.26-1.19,0.8-1.61c0.53-0.42,1.11-0.63,1.73-0.63c0.47,0,0.87,0.1,1.22,0.3c0.34,0.2,0.62,0.47,0.84,0.79
		c0.22,0.33,0.38,0.7,0.49,1.12c0.11,0.42,0.16,0.83,0.16,1.24c0,1.56-0.36,3.13-1.08,4.7s-1.7,3.14-2.95,4.7
		c-1.25,1.56-2.68,3.09-4.3,4.58c-1.62,1.5-3.34,2.95-5.17,4.35c-1.82,1.4-3.68,2.74-5.56,4c-1.89,1.26-3.69,2.43-5.43,3.51
		c-1.73,1.08-3.34,2.05-4.84,2.92s-2.76,1.61-3.79,2.2l-0.42-0.33c1.12-1.71,2.04-3.52,2.76-5.42c0.72-1.9,1.36-3.84,1.94-5.82
		c0.58-1.98,1.15-3.95,1.71-5.92c0.56-1.96,1.24-3.87,2.03-5.71s1.77-3.58,2.92-5.21c1.15-1.64,2.6-3.09,4.35-4.37v-0.14
		c-0.75,0.31-1.73,0.64-2.95,0.98s-2.53,0.73-3.95,1.17s-2.85,0.94-4.28,1.52s-2.73,1.25-3.88,2.01s-2.1,1.64-2.83,2.62
		c-0.73,0.98-1.1,2.11-1.1,3.39c0,1,0.24,1.85,0.72,2.55s1.29,1.05,2.41,1.05c0.78,0,1.45-0.19,2.01-0.56s1.03-0.86,1.4-1.45
		c0.37-0.59,0.65-1.25,0.82-1.99c0.17-0.73,0.26-1.47,0.26-2.22h0.56c0,0.94-0.11,1.83-0.33,2.69c-0.22,0.86-0.57,1.61-1.05,2.24
		c-0.48,0.64-1.1,1.15-1.85,1.54c-0.75,0.39-1.64,0.58-2.67,0.58c-1.43,0-2.63-0.38-3.58-1.15c-0.95-0.76-1.43-1.91-1.43-3.44
		c0-1.4,0.39-2.6,1.17-3.6s1.83-1.88,3.16-2.64c1.32-0.76,2.84-1.43,4.56-1.99c1.71-0.56,3.5-1.1,5.35-1.61
		c1.85-0.51,3.72-1.02,5.59-1.52s3.62-1.06,5.24-1.68L386.02,498.06z"/>
	<path class="st0" d="M401.73,514.24c-1.47,2.31-2.73,4.28-3.79,5.92c-1.06,1.64-1.93,3.03-2.6,4.19c-0.67,1.15-1.17,2.1-1.5,2.83
		c-0.33,0.73-0.49,1.33-0.49,1.8c0,0.37,0.07,0.68,0.21,0.91c0.14,0.23,0.35,0.35,0.63,0.35c0.62,0,1.5-0.36,2.64-1.08
		s2.56-1.95,4.28-3.7c0.69-0.72,1.36-1.43,2.01-2.13c0.65-0.7,1.27-1.38,1.85-2.03c0.58-0.65,1.09-1.25,1.54-1.78
		s0.82-0.95,1.1-1.26l0.42,0.28c-0.37,0.5-0.83,1.07-1.38,1.71c-0.55,0.64-1.13,1.31-1.75,2.01s-1.26,1.4-1.92,2.08
		c-0.65,0.69-1.29,1.34-1.92,1.96c-1.81,1.81-3.36,3.07-4.65,3.79s-2.49,1.08-3.58,1.08c-1.03,0-1.82-0.28-2.38-0.84
		s-0.84-1.29-0.84-2.2c0-0.62,0.12-1.27,0.35-1.94s0.63-1.5,1.19-2.5s1.31-2.24,2.25-3.72s2.1-3.31,3.51-5.5L401.73,514.24z
		 M404.44,503.85c0.59,0,1.11,0.22,1.57,0.66c0.45,0.44,0.68,0.95,0.68,1.54c0,0.62-0.25,1.19-0.75,1.71
		c-0.5,0.51-1.06,0.77-1.68,0.77c-0.69,0-1.28-0.18-1.78-0.54c-0.5-0.36-0.75-0.9-0.75-1.61c0-0.72,0.27-1.32,0.82-1.8
		S403.73,503.85,404.44,503.85z"/>
	<path class="st0" d="M423.8,498.01l-14.45,23.01c-1.22,1.96-2.18,3.59-2.9,4.89c-0.72,1.29-1.08,2.35-1.08,3.16
		c0,0.84,0.34,1.26,1.03,1.26c0.65,0,1.54-0.36,2.67-1.08c1.12-0.72,2.32-1.71,3.6-2.99c1.18-1.18,2.35-2.45,3.51-3.79
		c1.15-1.34,2.28-2.73,3.37-4.16l0.42,0.14c-0.37,0.5-0.8,1.06-1.29,1.68c-0.48,0.62-0.99,1.26-1.52,1.89
		c-0.53,0.64-1.07,1.28-1.61,1.92c-0.55,0.64-1.08,1.22-1.61,1.75c-1.81,1.84-3.41,3.21-4.79,4.12c-1.39,0.9-2.83,1.36-4.33,1.36
		c-2.12,0-3.18-0.94-3.18-2.81c0-0.87,0.32-1.97,0.96-3.3c0.64-1.32,1.63-3.11,2.97-5.35l13.05-21.42L423.8,498.01z"/>
	<path class="st0" d="M435.92,498.01l-14.45,23.01c-1.22,1.96-2.18,3.59-2.9,4.89c-0.72,1.29-1.08,2.35-1.08,3.16
		c0,0.84,0.34,1.26,1.03,1.26c0.65,0,1.54-0.36,2.67-1.08c1.12-0.72,2.32-1.71,3.6-2.99c1.18-1.18,2.35-2.45,3.51-3.79
		c1.15-1.34,2.28-2.73,3.37-4.16l0.42,0.14c-0.37,0.5-0.8,1.06-1.29,1.68c-0.48,0.62-0.99,1.26-1.52,1.89
		c-0.53,0.64-1.07,1.28-1.61,1.92c-0.55,0.64-1.08,1.22-1.61,1.75c-1.81,1.84-3.41,3.21-4.79,4.12c-1.39,0.9-2.83,1.36-4.33,1.36
		c-2.12,0-3.18-0.94-3.18-2.81c0-0.87,0.32-1.97,0.96-3.3c0.64-1.32,1.63-3.11,2.97-5.35l13.05-21.42L435.92,498.01z"/>
	<path class="st0" d="M445.13,514.52l4.86-0.28c-0.28,0.56-0.69,1.24-1.22,2.03s-1.11,1.65-1.73,2.57
		c-0.62,0.92-1.25,1.87-1.89,2.85s-1.22,1.93-1.75,2.85s-0.96,1.78-1.29,2.57c-0.33,0.8-0.49,1.47-0.49,2.04
		c0,0.78,0.39,1.17,1.17,1.17c0.75,0,1.76-0.44,3.04-1.31s2.62-2.03,4.02-3.46c0.59-0.59,1.19-1.23,1.8-1.92s1.19-1.36,1.75-2.04
		c0.56-0.67,1.08-1.29,1.54-1.87c0.47-0.58,0.84-1.05,1.12-1.43l0.33,0.19c-0.81,1.09-1.75,2.3-2.81,3.62
		c-1.06,1.33-2.34,2.74-3.83,4.23c-1.5,1.5-2.97,2.72-4.42,3.67s-2.89,1.43-4.33,1.43c-1,0-1.77-0.26-2.31-0.77
		c-0.55-0.51-0.82-1.15-0.82-1.89c0-0.25,0.02-0.48,0.05-0.7c0.03-0.22,0.08-0.39,0.14-0.51h-0.09c-0.97,1.09-2.06,2.01-3.27,2.76
		s-2.53,1.12-3.93,1.12c-0.75,0-1.39-0.14-1.92-0.42c-0.53-0.28-0.96-0.66-1.29-1.15s-0.57-1.03-0.72-1.64
		c-0.16-0.61-0.23-1.24-0.23-1.89c0-1.53,0.42-3.05,1.26-4.58s1.9-2.91,3.18-4.14c1.28-1.23,2.7-2.23,4.28-2.99
		c1.57-0.76,3.08-1.15,4.51-1.15c1.09,0,1.95,0.23,2.57,0.7c0.62,0.47,1.14,1.2,1.54,2.2L445.13,514.52z M431.1,526.49
		c0,0.9,0.15,1.69,0.44,2.36c0.3,0.67,0.93,1.01,1.89,1.01c0.66-0.03,1.34-0.3,2.06-0.82c0.72-0.51,1.41-1.16,2.08-1.94
		c0.67-0.78,1.31-1.64,1.92-2.6s1.14-1.91,1.59-2.88c0.45-0.97,0.81-1.88,1.08-2.74c0.26-0.86,0.4-1.58,0.4-2.17
		c0-0.84-0.16-1.5-0.47-1.96c-0.31-0.47-0.92-0.7-1.82-0.7c-0.72,0-1.44,0.22-2.17,0.66s-1.43,1.01-2.1,1.73s-1.31,1.52-1.92,2.41
		c-0.61,0.89-1.13,1.8-1.57,2.74c-0.44,0.93-0.78,1.83-1.03,2.69C431.22,525.13,431.1,525.87,431.1,526.49z"/>
	<path class="st0" d="M443.77,534.44c-1.65,0.03-2.89,0.48-3.72,1.36c-0.83,0.87-1.24,2.09-1.24,3.65c0,0.75,0.12,1.44,0.38,2.08
		c0.25,0.64,0.6,1.19,1.05,1.66c0.45,0.47,1,0.83,1.64,1.1c0.64,0.26,1.36,0.4,2.17,0.4c1.47,0,2.85-0.3,4.16-0.89
		s2.55-1.39,3.72-2.38c1.17-1,2.28-2.13,3.32-3.39s2.03-2.56,2.95-3.88c0.92-1.33,1.78-2.64,2.6-3.95c0.81-1.31,1.57-2.48,2.29-3.51
		L463,526.6c-0.5,0.59-1.05,1.16-1.66,1.71c-0.61,0.55-1.25,1.03-1.92,1.45s-1.39,0.76-2.15,1.03c-0.76,0.26-1.57,0.4-2.41,0.4
		c-1.28,0-2.25-0.44-2.92-1.33s-1-1.92-1-3.11c0-1.53,0.39-3.08,1.17-4.65s1.79-2.99,3.04-4.26c1.25-1.26,2.65-2.3,4.21-3.11
		s3.1-1.22,4.63-1.22c1.18,0,2.12,0.22,2.81,0.65c0.69,0.44,1.22,1.23,1.59,2.38l1.08-2.01l4.77-0.28c-1.68,2.87-3.34,5.77-4.96,8.7
		s-3.34,5.85-5.14,8.75c1.75-0.5,3.37-1.22,4.89-2.15s2.93-2,4.26-3.2c1.33-1.2,2.57-2.49,3.74-3.88c1.17-1.39,2.28-2.78,3.34-4.19
		l0.28,0.14c-1.03,1.5-2.16,2.97-3.39,4.42s-2.55,2.8-3.95,4.04c-1.4,1.25-2.9,2.35-4.49,3.3s-3.27,1.68-5.05,2.17
		c-1.12,1.93-2.39,3.69-3.81,5.29c-1.42,1.59-2.97,2.95-4.65,4.07s-3.51,2-5.47,2.62s-4.07,0.94-6.31,0.94
		c-1.15,0-2.24-0.1-3.27-0.3s-1.94-0.55-2.74-1.03c-0.8-0.48-1.43-1.11-1.89-1.87s-0.7-1.71-0.7-2.83c0-0.84,0.18-1.6,0.54-2.27
		c0.36-0.67,0.83-1.23,1.43-1.68c0.59-0.45,1.27-0.79,2.03-1.03c0.76-0.23,1.54-0.35,2.32-0.35c0.28,0,0.7,0.03,1.26,0.09
		s1,0.11,1.31,0.14v0.3H443.77z M455.42,526.35c0,0.91,0.16,1.67,0.47,2.29s1,0.94,2.06,0.94c0.66,0,1.33-0.23,2.01-0.7
		c0.68-0.47,1.36-1.07,2.01-1.8c0.65-0.73,1.28-1.57,1.87-2.5s1.11-1.87,1.54-2.81c0.44-0.94,0.78-1.83,1.03-2.69
		s0.37-1.58,0.37-2.17c0-0.34-0.02-0.68-0.07-1.01c-0.05-0.33-0.13-0.63-0.26-0.91c-0.12-0.28-0.31-0.51-0.56-0.68
		s-0.59-0.26-1.03-0.26c-1.15,0-2.29,0.44-3.41,1.33s-2.13,1.98-3.02,3.27c-0.89,1.29-1.61,2.64-2.17,4.05
		C455.7,524.11,455.42,525.32,455.42,526.35z"/>
	<path class="st0" d="M499.8,518.45c-0.97,1.31-2,2.6-3.11,3.88s-2.42,2.62-3.95,4.02c-2.15,1.93-4.22,3.27-6.2,4
		s-3.84,1.1-5.59,1.1c-1.78,0-3.18-0.53-4.21-1.59s-1.54-2.43-1.54-4.12c0-1.5,0.45-2.98,1.36-4.44c0.9-1.46,2.04-2.77,3.41-3.93
		c1.37-1.15,2.88-2.09,4.51-2.81c1.64-0.72,3.19-1.08,4.65-1.08c1.34,0,2.39,0.26,3.13,0.77s1.12,1.24,1.12,2.17
		c0,0.75-0.26,1.43-0.77,2.06c-0.51,0.62-1.18,1.19-1.99,1.68c-0.81,0.5-1.72,0.94-2.74,1.31c-1.01,0.37-2.02,0.7-3.02,0.98
		c-1,0.28-1.93,0.51-2.81,0.7c-0.87,0.19-1.59,0.34-2.15,0.47c-0.16,0.62-0.23,1.18-0.23,1.68c0,1.34,0.37,2.43,1.12,3.27
		s1.79,1.26,3.13,1.26c1.31,0,2.75-0.39,4.33-1.17s3.16-1.92,4.75-3.41c1.22-1.15,2.38-2.36,3.51-3.62c1.12-1.26,2.1-2.44,2.95-3.53
		L499.8,518.45z M489.65,515.27c0-0.44-0.12-0.75-0.35-0.93c-0.23-0.19-0.54-0.28-0.91-0.28c-0.78,0-1.62,0.33-2.53,0.98
		s-1.75,1.46-2.55,2.41c-0.79,0.95-1.5,1.95-2.1,2.99c-0.61,1.04-1.01,1.96-1.19,2.74c1.28-0.25,2.49-0.66,3.65-1.24
		s2.17-1.23,3.06-1.96c0.89-0.73,1.6-1.51,2.13-2.34C489.39,516.8,489.65,516.01,489.65,515.27z"/>
</g>
<g>
	<path class="st0" d="M446.48,395.9v1.85H399.7v-1.85l1.85-0.17c3.81-0.22,6.56-1.38,8.25-3.46c1.68-2.08,2.52-5.25,2.52-9.52
		v-81.24c0-4.27-0.84-7.44-2.52-9.52s-4.43-3.23-8.25-3.46l-1.85-0.15v-1.7h46.78v1.68l-1.85,0.17c-3.81,0.23-6.56,1.38-8.24,3.46
		s-2.52,5.25-2.52,9.52v81.24c0,4.27,0.84,7.45,2.52,9.52c1.68,2.08,4.43,3.23,8.24,3.46L446.48,395.9z"/>
</g>
<path class="st1" d="M456.5,342.45c0-2.41-0.47-4.2-1.42-5.37c-0.95-1.17-2.5-1.82-4.65-1.95l-1.04-0.09v-0.96h10.17v-5.67
	c0-2.41,0.47-4.2,1.42-5.37c0.95-1.17,2.5-1.82,4.65-1.95l1.04-0.09v-0.95h-26.38v0.96l1.04,0.09c2.15,0.13,3.7,0.78,4.65,1.95
	c0.95,1.17,1.42,2.96,1.42,5.37v45.82c0,2.41-0.47,4.2-1.42,5.37c-0.95,1.17-2.5,1.82-4.65,1.95l-1.04,0.1v1.04h16.22v-40.25H456.5z
	"/>
<path class="st1" d="M354.87,303.62v1.7l1.85,0.15c3.81,0.23,6.56,1.38,8.25,3.46c1.68,2.08,2.52,5.25,2.52,9.52v79.3h20.11v-1.85
	l-1.85-0.17c-3.81-0.22-6.56-1.38-8.24-3.46s-2.52-5.25-2.52-9.52v-79.14h-20.12V303.62z"/>
<path class="st1" d="M490.23,303.62v1.7l-1.79,0.15c-3.69,0.23-6.35,1.38-7.97,3.46c-1.63,2.08-2.44,5.25-2.44,9.52v79.3h-19.44
	v-1.85l1.79-0.17c3.69-0.22,6.34-1.38,7.97-3.46s2.44-5.25,2.44-9.52v-79.14h19.44V303.62z"/>
<path class="st1" d="M389.02,342.45c0-2.41,0.51-4.2,1.53-5.37c1.02-1.17,2.69-1.82,5-1.95l1.12-0.09v-0.96h-10.92v-5.67
	c0-2.41-0.51-4.2-1.53-5.37c-1.02-1.17-2.68-1.82-4.99-1.95L378.1,321v-0.95h28.34v0.96l-1.12,0.09c-2.31,0.13-3.98,0.78-5,1.95
	s-1.53,2.96-1.53,5.37v45.82c0,2.41,0.51,4.2,1.53,5.37c1.02,1.17,2.69,1.82,5,1.95l1.12,0.1v1.04h-17.42V342.45z"/>
</svg>
